<?xml version="1.0" standalone="no"?>
<!DOCTYPE svg PUBLIC "-//W3C//DTD SVG 20010904//EN"
 "http://www.w3.org/TR/2001/REC-SVG-20010904/DTD/svg10.dtd">
<svg version="1.0" xmlns="http://www.w3.org/2000/svg"
 width="749.000000pt" height="749.000000pt" viewBox="0 0 749.000000 749.000000"
 preserveAspectRatio="xMidYMid meet">

<g transform="translate(0.000000,749.000000) scale(0.100000,-0.100000)"
fill="#000000" stroke="none">
<path d="M4975 7242 c-44 -20 -81 -40 -83 -44 -2 -5 -8 -8 -13 -8 -8 0 -35
-20 -64 -47 -8 -7 -16 -13 -20 -13 -8 0 -31 -19 -57 -47 -18 -20 -32 -23 -90
-23 l-69 0 -55 56 -55 55 7 -72 c5 -50 13 -79 25 -93 24 -25 24 -43 2 -50 -10
-4 -36 -22 -58 -42 -22 -20 -56 -43 -77 -52 -21 -9 -38 -20 -38 -24 0 -5 -6
-8 -14 -8 -7 0 -32 -17 -54 -37 -62 -58 -81 -73 -94 -73 -6 0 -9 -3 -5 -6 3
-3 -5 -18 -18 -32 -57 -65 -66 -77 -71 -99 -4 -13 -10 -23 -15 -23 -5 0 -9 -7
-9 -15 0 -8 -4 -23 -9 -33 -15 -30 -29 -66 -42 -107 -26 -83 -43 -115 -61
-115 -10 0 -18 -4 -18 -8 0 -12 -69 -32 -111 -33 -62 -1 0 -18 69 -18 34 -1
62 -5 62 -11 0 -19 26 -10 52 18 30 32 72 139 57 144 -6 2 -7 20 -3 46 5 30
10 39 15 30 6 -9 9 -7 9 10 0 12 11 39 24 60 12 20 23 39 24 42 1 17 27 60 35
60 6 0 8 2 5 6 -7 7 45 61 55 56 4 -2 4 -14 1 -28 -11 -44 17 -26 59 38 18 28
70 62 80 51 3 -3 9 6 13 21 6 24 23 33 49 26 25 -7 74 -6 69 2 -3 4 -1 8 3 8
5 0 13 10 18 22 20 44 35 33 35 -26 0 -44 6 -65 27 -97 17 -26 23 -43 16 -47
-7 -5 -5 -12 5 -22 14 -13 15 -12 9 3 -4 10 1 24 11 34 10 10 26 31 35 46 10
15 23 25 28 21 6 -3 5 3 -2 14 -7 12 -17 18 -21 16 -5 -3 -8 7 -7 23 1 15 -1
35 -5 44 -5 10 -2 19 8 22 9 4 12 14 9 25 -9 36 14 32 58 -9 50 -45 85 -66
122 -73 14 -2 35 -9 46 -15 13 -7 33 -9 53 -3 31 8 31 8 -23 20 -29 7 -64 22
-76 34 -13 12 -23 18 -23 14 0 -4 -10 3 -22 14 -19 17 -20 22 -8 30 9 6 20 4
29 -3 12 -9 11 -7 -1 12 -11 16 -14 30 -8 45 4 11 8 24 9 28 8 41 55 92 76 84
7 -2 21 4 31 15 14 16 31 19 100 19 56 0 87 -4 96 -13 7 -8 29 -17 49 -21 20
-3 45 -15 57 -27 12 -11 22 -17 22 -13 0 12 131 -127 141 -150 16 -35 37 -68
46 -75 5 -3 16 -30 24 -60 8 -30 20 -56 27 -59 13 -4 13 22 -2 237 -1 9 -10
21 -21 28 -19 12 -19 12 6 13 15 0 32 -7 39 -15 7 -8 16 -12 21 -9 5 3 9 1 9
-5 0 -6 6 -8 14 -5 8 3 17 1 21 -5 3 -6 15 -11 26 -11 11 0 22 -6 25 -14 3 -8
19 -18 35 -21 16 -4 29 -10 29 -14 0 -4 18 -17 40 -30 28 -16 40 -18 40 -9 -1
24 -134 138 -162 138 -8 0 -18 4 -24 9 -17 16 -128 50 -181 55 -43 4 -53 2
-53 -10 0 -8 7 -17 14 -20 26 -10 63 -68 69 -109 3 -22 3 -32 1 -22 -3 9 -10
17 -16 17 -6 0 -8 3 -5 6 7 7 -68 101 -121 150 -27 26 -151 100 -159 95 -12
-5 -43 1 -39 8 3 5 -16 12 -42 16 l-47 8 43 14 c31 11 42 20 42 35 0 17 4 19
28 14 70 -16 104 -19 111 -7 13 20 136 37 163 23 13 -6 37 -14 53 -17 69 -11
91 -19 107 -38 13 -14 18 -16 18 -6 0 8 3 10 8 4 4 -5 16 -12 27 -13 11 -2 25
-8 30 -12 6 -4 33 -20 60 -35 28 -15 65 -36 83 -47 56 -34 34 -5 -28 37 -33
22 -60 43 -60 48 0 4 -9 7 -20 7 -11 0 -20 5 -20 10 0 6 -7 10 -15 10 -8 0
-15 5 -15 10 0 6 -10 10 -23 10 -13 0 -27 3 -30 7 -4 3 -46 19 -94 34 -82 27
-99 29 -248 28 l-160 0 -80 -37z m12 -78 c-3 -3 -12 -4 -19 -1 -8 3 -5 6 6 6
11 1 17 -2 13 -5z m-447 -109 c10 -12 10 -15 -4 -15 -9 0 -16 7 -16 15 0 8 2
15 4 15 2 0 9 -7 16 -15z m257 -31 c-3 -3 -12 -4 -19 -1 -8 3 -5 6 6 6 11 1
17 -2 13 -5z m-570 -310 c-3 -3 -12 -4 -19 -1 -8 3 -5 6 6 6 11 1 17 -2 13 -5z"/>
<path d="M5105 7200 c3 -5 8 -10 11 -10 2 0 4 5 4 10 0 6 -5 10 -11 10 -5 0
-7 -4 -4 -10z"/>
<path d="M5928 6953 c7 -3 16 -2 19 1 4 3 -2 6 -13 5 -11 0 -14 -3 -6 -6z"/>
<path d="M6000 6907 c0 -2 9 -14 20 -27 11 -13 20 -18 20 -11 0 7 -6 19 -14
27 -14 13 -26 18 -26 11z"/>
<path d="M4512 6790 c0 -14 2 -19 5 -12 2 6 2 18 0 25 -3 6 -5 1 -5 -13z"/>
<path d="M6140 6796 c0 -12 69 -76 81 -76 7 0 10 -3 6 -6 -7 -7 57 -64 73 -64
6 0 18 -7 26 -15 9 -8 11 -15 5 -15 -6 0 -11 -5 -11 -11 0 -5 5 -7 10 -4 6 3
10 2 10 -4 0 -5 -6 -11 -12 -14 -10 -3 -10 -7 -2 -18 6 -8 10 -22 9 -31 -2 -9
6 -26 16 -37 10 -11 19 -27 19 -35 0 -9 12 -19 26 -22 19 -5 22 -9 12 -15 -10
-7 -9 -9 6 -9 12 0 16 -5 12 -15 -3 -9 1 -18 9 -21 8 -4 15 -13 15 -20 0 -8 7
-17 15 -20 8 -4 15 -12 15 -19 0 -7 6 -16 13 -18 10 -4 10 -6 0 -6 -18 -1 -16
-30 2 -37 8 -4 15 -17 15 -30 0 -13 3 -24 8 -24 9 0 31 -62 38 -105 2 -16 8
-52 13 -80 10 -54 3 -164 -9 -145 -4 7 -10 -4 -14 -27 -11 -59 -17 -74 -27
-68 -5 4 -9 -1 -9 -9 0 -10 -9 -16 -24 -16 -16 0 -27 -7 -31 -20 -4 -11 -10
-18 -15 -15 -5 3 -12 0 -15 -6 -10 -16 -49 -28 -60 -18 -15 11 -68 6 -72 -7
-2 -5 7 -31 20 -57 14 -26 20 -47 15 -47 -5 0 -14 13 -19 30 -6 16 -15 27 -20
24 -5 -3 -9 4 -9 14 0 15 -5 19 -20 15 -20 -5 -27 7 -13 21 4 4 8 18 9 32 1
17 -2 22 -10 14 -12 -12 -29 -13 -22 -1 8 12 -54 20 -81 10 -30 -11 -173 -155
-173 -174 0 -8 -5 -15 -12 -15 -6 0 -9 -3 -5 -6 3 -4 -1 -13 -9 -22 -14 -13
-19 -13 -51 4 -20 10 -37 28 -39 39 -2 11 -8 21 -13 23 -6 2 -11 14 -11 27 0
13 -4 26 -9 29 -4 3 -11 26 -15 52 -11 83 -41 99 -49 27 -8 -68 -16 -101 -34
-142 -9 -20 -15 -39 -15 -43 1 -5 -7 -8 -19 -8 -11 0 -17 5 -14 10 3 6 -3 10
-13 10 -11 0 -25 7 -32 15 -7 9 -20 13 -29 10 -11 -3 -10 0 3 10 11 8 24 15
29 15 10 0 -1 60 -15 78 -6 6 -15 12 -19 12 -10 0 -25 -33 -31 -66 -7 -44 -65
-69 -94 -40 -7 8 -24 12 -36 9 -13 -3 -19 -1 -13 4 30 24 72 148 54 159 -5 3
-9 -4 -9 -15 0 -12 -5 -21 -11 -21 -5 0 -8 -4 -5 -8 3 -5 -5 -20 -17 -33 -12
-13 -21 -25 -19 -26 1 -2 2 -11 1 -20 0 -11 -3 -13 -6 -5 -2 6 -9 10 -14 6 -5
-3 -12 3 -16 13 -4 10 -14 25 -22 33 -9 8 -25 33 -36 55 -11 22 -24 43 -29 46
-5 4 -6 11 -3 16 3 5 2 15 -3 23 -15 24 16 42 60 35 22 -4 42 -11 46 -16 3 -5
14 -9 25 -9 10 0 19 -4 19 -10 0 -5 9 -10 20 -10 11 0 20 5 20 10 0 6 9 10 20
10 33 0 23 15 -11 16 -38 2 -76 21 -107 52 -16 16 -28 21 -43 17 -22 -7 -69
11 -69 27 0 7 -36 48 -43 48 -2 0 -1 -43 1 -96 3 -62 0 -110 -8 -135 -16 -47
-30 -51 -31 -9 -2 35 -1 32 -19 88 -7 24 -22 48 -32 53 -16 9 -18 5 -18 -31 0
-23 -7 -54 -15 -70 -9 -17 -16 -32 -16 -35 -3 -23 -13 -45 -20 -45 -5 0 -9 -8
-9 -17 0 -10 -8 -27 -16 -38 -15 -19 -16 -17 -11 30 8 81 -18 183 -77 297 -67
132 -78 148 -96 148 -13 0 -13 1 0 10 13 8 12 10 -2 10 -10 0 -18 6 -18 13 0
17 -62 57 -88 57 -23 0 -71 -26 -84 -44 -25 -36 -15 71 18 199 18 71 70 145
101 145 7 0 13 4 13 10 0 5 21 25 48 45 42 33 52 36 87 30 22 -3 44 -10 50
-16 5 -5 19 -9 31 -9 12 0 24 -6 27 -12 2 -7 8 -10 12 -6 23 22 -88 78 -155
78 -54 0 -80 -10 -114 -42 -12 -11 -32 -27 -45 -36 -12 -9 -34 -33 -47 -54
-28 -43 -46 -48 -61 -15 -22 44 -20 53 17 95 34 39 38 51 31 96 0 5 -9 0 -18
-12 -56 -67 -74 -92 -73 -97 0 -3 -5 -12 -12 -20 -30 -33 -34 -41 -30 -54 7
-20 -72 -8 -94 14 -13 13 -19 14 -25 4 -4 -7 -6 -16 -4 -19 2 -3 -35 -6 -82
-6 -81 -2 -86 -3 -118 -34 -19 -18 -37 -46 -40 -61 -4 -16 -11 -31 -16 -34 -5
-4 -9 -16 -9 -28 0 -18 5 -14 28 19 31 47 83 94 104 94 8 0 19 5 24 10 18 18
99 -10 154 -52 28 -21 55 -38 60 -38 6 0 10 -5 10 -11 0 -6 6 -9 14 -6 17 7
29 -19 21 -44 -4 -12 -1 -19 7 -19 10 0 13 -10 10 -35 -5 -40 -9 -42 -27 -18
-12 17 -14 17 -32 1 -10 -9 -29 -18 -42 -20 -28 -4 -41 -28 -15 -28 25 0 81
-40 93 -67 10 -21 8 -23 -22 -23 -17 0 -44 -8 -59 -18 -31 -21 -88 -84 -83
-92 2 -4 -5 -13 -16 -20 -12 -10 -19 -26 -19 -49 0 -19 -3 -31 -7 -27 -4 3
-12 -8 -18 -26 -6 -18 -16 -32 -23 -30 -21 4 -13 -14 11 -26 20 -10 20 -11 2
-9 -17 2 -20 -4 -20 -38 0 -22 -6 -44 -13 -48 -7 -5 -10 -13 -6 -18 3 -5 5
-34 5 -63 0 -36 5 -56 14 -59 10 -4 13 16 13 90 1 52 3 98 6 101 3 2 12 0 19
-7 12 -9 15 3 20 74 3 63 10 91 22 106 10 10 14 19 10 19 -4 0 0 9 10 20 10
11 26 20 37 20 10 0 18 5 18 10 0 6 9 10 20 10 11 0 20 5 20 10 0 6 11 10 25
10 14 0 25 4 25 9 0 6 21 11 46 13 29 2 50 9 54 18 4 8 16 32 26 53 10 20 22
37 27 37 4 0 6 4 2 9 -6 11 22 18 51 13 12 -2 32 -13 46 -25 38 -34 138 -182
138 -206 0 -11 5 -21 10 -21 6 0 10 -13 10 -29 0 -16 4 -31 9 -33 6 -1 12 -16
15 -33 2 -16 5 -30 6 -30 1 0 4 -25 6 -55 8 -81 -23 -220 -63 -279 -23 -35
-24 -49 -3 -36 15 9 120 171 120 185 0 5 5 10 10 10 6 0 10 7 10 15 0 9 9 33
20 55 11 22 20 52 20 69 0 24 14 41 34 41 2 0 6 -26 10 -57 4 -32 9 -73 11
-90 2 -18 0 -35 -6 -38 -5 -4 -9 -15 -9 -26 0 -10 -3 -19 -7 -19 -10 0 -35
-52 -28 -58 8 -9 36 28 29 39 -4 7 -3 9 3 6 6 -4 17 8 24 26 7 17 16 34 21 37
4 3 13 29 21 58 16 65 30 81 51 59 9 -9 16 -18 16 -22 0 -10 54 -89 72 -106
24 -22 23 -51 -3 -72 -11 -10 -18 -21 -15 -25 4 -3 12 0 18 6 15 15 98 16 98
2 0 -5 20 -10 44 -10 25 0 48 -4 51 -10 3 -5 14 -10 24 -10 21 0 71 -22 71
-32 0 -5 16 -8 35 -8 30 0 35 3 35 25 0 28 20 75 32 75 4 0 8 6 8 14 0 7 7 19
15 26 12 10 16 7 26 -16 6 -16 15 -37 20 -46 5 -10 9 -27 9 -38 0 -11 5 -20
10 -20 6 0 10 -7 10 -15 0 -8 5 -15 10 -15 6 0 10 5 10 10 0 22 29 8 49 -22
l21 -33 0 37 c0 20 -6 39 -12 42 -7 3 -3 3 10 0 16 -4 22 -1 22 10 0 9 5 16
10 16 6 0 10 5 10 11 0 17 78 85 124 108 35 17 81 26 122 22 30 -3 56 -93 74
-261 6 -47 14 -98 18 -115 l9 -30 17 37 c10 20 24 42 32 49 8 6 14 15 14 20 0
5 14 23 30 41 17 17 30 35 30 40 0 5 8 18 19 29 10 11 27 37 37 57 11 20 31
56 47 79 15 23 27 49 27 57 0 9 5 16 10 16 6 0 10 9 10 19 0 11 3 21 8 23 25
11 70 134 76 207 2 38 -24 144 -48 193 -9 17 -16 39 -16 50 0 10 -4 18 -10 18
-5 0 -10 9 -10 20 0 11 -4 20 -10 20 -5 0 -10 8 -10 18 0 10 -9 28 -20 40 -11
12 -20 28 -20 37 0 8 -4 15 -9 15 -5 0 -13 10 -17 23 -4 12 -10 24 -14 27 -3
3 -25 33 -48 67 -23 34 -46 65 -52 68 -22 14 -8 33 28 39 114 17 172 33 172
48 0 6 -8 7 -17 3 -49 -20 -93 -17 -165 11 -40 16 -75 31 -78 34 -3 3 -17 11
-32 19 -16 8 -28 18 -28 23 0 4 -8 8 -17 8 -10 0 -34 14 -53 31 -37 32 -70 53
-70 45z m-1520 -370 c0 -3 -4 -8 -10 -11 -5 -3 -10 -1 -10 4 0 6 5 11 10 11 6
0 10 -2 10 -4z m670 -523 c0 -5 -5 -15 -10 -23 -8 -12 -10 -11 -10 8 0 12 5
22 10 22 6 0 10 -3 10 -7z"/>
<path d="M4735 6746 c-11 -13 -24 -21 -29 -18 -5 3 -6 0 -2 -6 9 -15 44 2 53
24 9 25 -1 24 -22 0z"/>
<path d="M5446 6455 c-16 -8 -41 -15 -57 -15 -33 0 -35 -5 -15 -26 16 -16 40
-19 31 -4 -3 6 2 10 12 10 19 1 69 37 61 45 -2 2 -17 -2 -32 -10z"/>
<path d="M5270 6430 c8 -5 29 -9 45 -9 26 0 27 2 10 9 -11 5 -31 9 -45 9 -20
1 -22 -1 -10 -9z"/>
<path d="M5323 6373 c9 -2 23 -2 30 0 6 3 -1 5 -18 5 -16 0 -22 -2 -12 -5z"/>
<path d="M5205 6350 c3 -5 8 -10 11 -10 2 0 4 5 4 10 0 6 -5 10 -11 10 -5 0
-7 -4 -4 -10z"/>
<path d="M3758 6263 c6 -2 18 -2 25 0 6 3 1 5 -13 5 -14 0 -19 -2 -12 -5z"/>
<path d="M6173 6201 c3 -12 -1 -22 -9 -25 -9 -4 -14 -21 -14 -52 0 -45 -29
-102 -45 -86 -3 4 -6 3 -4 -3 5 -23 -65 -171 -88 -184 -10 -5 -15 -12 -12 -15
2 -3 21 9 41 27 20 18 46 39 57 47 12 8 21 19 21 24 0 5 13 30 29 56 28 46 47
119 44 168 -2 26 -3 26 33 7 16 -8 25 -15 20 -15 -5 0 16 -13 47 -30 65 -34
67 -35 67 -17 0 17 -83 88 -123 105 -45 19 -70 16 -64 -7z"/>
<path d="M3920 6181 c0 -12 -4 -21 -9 -21 -5 0 -11 -8 -15 -17 -38 -112 -41
-123 -26 -123 6 0 10 8 10 18 0 10 5 23 12 30 7 7 8 12 4 12 -5 0 -4 6 2 13
17 21 40 97 31 103 -5 3 -9 -4 -9 -15z"/>
<path d="M5210 6143 c0 -17 5 -35 10 -38 6 -3 10 -16 10 -27 0 -11 14 -34 30
-50 17 -15 30 -32 30 -36 1 -12 38 -57 44 -51 3 3 -6 22 -19 42 -14 20 -43 72
-65 114 -35 69 -39 75 -40 46z"/>
<path d="M3832 5945 c0 -16 2 -22 5 -12 2 9 2 23 0 30 -3 6 -5 -1 -5 -18z"/>
<path d="M2291 5774 c0 -11 3 -14 6 -6 3 7 2 16 -1 19 -3 4 -6 -2 -5 -13z"/>
<path d="M2310 5723 c0 -45 -23 -97 -59 -130 l-35 -33 -22 21 c-28 26 -96 40
-138 28 -17 -5 -46 -9 -65 -9 -37 0 -114 -33 -145 -62 -11 -10 -30 -18 -43
-18 -13 0 -23 -4 -23 -10 0 -5 -11 -10 -25 -10 -14 0 -33 -4 -43 -9 -9 -5 -42
-14 -72 -20 -30 -6 -68 -18 -84 -26 -15 -8 -35 -15 -42 -15 -8 0 -14 -4 -14
-8 0 -5 -16 -14 -35 -22 -19 -7 -32 -17 -29 -22 3 -4 -2 -8 -10 -8 -9 0 -16
-4 -16 -10 0 -5 -6 -10 -12 -10 -18 0 -100 -70 -165 -141 -17 -19 -40 -41 -50
-49 -11 -8 -32 -33 -49 -55 -41 -56 -56 -74 -82 -101 -12 -13 -22 -28 -22 -34
0 -5 -4 -10 -8 -10 -5 0 -17 -18 -27 -40 -10 -22 -22 -40 -27 -40 -4 0 -8 -7
-8 -15 0 -8 -4 -15 -10 -15 -5 0 -10 -5 -10 -11 0 -6 -13 -29 -28 -52 -35 -51
-102 -191 -102 -212 0 -8 -4 -15 -10 -15 -5 0 -10 -11 -10 -25 0 -14 -4 -25
-10 -25 -5 0 -10 -13 -10 -30 0 -16 -4 -30 -10 -30 -5 0 -10 -8 -10 -17 0 -15
-30 -110 -50 -158 -20 -50 -40 -112 -40 -128 0 -9 -3 -17 -8 -17 -4 0 -13 -15
-20 -32 -7 -18 -18 -41 -23 -50 -5 -10 -9 -25 -9 -33 0 -8 -4 -15 -8 -15 -5 0
-15 -19 -21 -42 -16 -54 -81 -178 -103 -199 -10 -9 -18 -23 -18 -32 0 -8 -6
-17 -12 -20 -7 -2 -9 -8 -5 -13 8 -8 57 38 57 54 0 5 7 15 15 22 8 7 12 16 9
21 -3 5 0 8 8 7 7 -2 14 8 16 21 3 19 6 21 13 10 7 -11 9 -9 9 7 0 20 19 70
39 104 5 8 13 31 18 50 8 33 9 31 11 -24 1 -33 7 -64 13 -70 8 -8 9 -3 4 22
-5 25 -3 32 9 32 9 0 17 5 17 10 1 6 2 13 3 18 2 4 6 30 11 57 4 28 11 55 16
61 5 5 15 37 23 70 42 168 51 199 58 202 4 2 8 10 8 17 0 14 44 153 63 198 7
15 15 27 19 27 5 0 8 11 8 24 0 14 4 28 10 31 5 3 10 15 10 26 0 10 4 19 8 19
5 0 15 12 23 28 8 15 16 29 19 32 9 9 30 44 40 68 5 12 14 22 20 22 6 0 8 5 5
10 -3 6 2 10 12 10 15 0 16 2 3 10 -11 7 -11 10 -2 10 7 0 11 4 8 9 -8 12 21
34 34 26 5 -3 10 1 10 9 0 8 10 22 22 30 12 9 19 16 14 16 -4 0 6 17 24 38 55
64 111 122 118 122 4 0 20 11 36 25 16 14 34 25 40 25 6 0 4 5 -4 10 -17 11
-16 12 20 14 30 1 52 14 45 26 -3 4 2 10 10 14 8 3 15 13 15 22 0 14 3 14 15
4 13 -11 14 -10 10 3 -4 10 1 17 14 22 12 3 27 12 34 18 18 17 94 57 107 57 6
0 8 -5 4 -12 -5 -9 -2 -9 9 1 20 16 23 25 5 15 -7 -4 -10 -3 -5 1 7 9 36 15
70 16 9 0 15 4 12 10 -4 5 10 9 30 9 25 0 34 4 29 12 -4 7 -3 8 4 4 17 -10 15
-26 -5 -33 -10 -4 -27 -15 -37 -25 -11 -10 -29 -16 -43 -14 -13 3 -21 1 -18
-5 4 -5 -1 -12 -9 -15 -9 -3 -16 -10 -16 -15 0 -6 -13 -23 -30 -39 -16 -16
-30 -38 -30 -50 0 -11 -5 -20 -10 -20 -6 0 -10 -6 -8 -12 1 -7 -12 -42 -29
-78 -42 -88 -46 -106 -44 -169 1 -33 -5 -76 -17 -110 -39 -113 -52 -156 -52
-173 0 -10 -4 -18 -9 -18 -5 0 -11 -21 -14 -47 -8 -73 -22 -129 -41 -157 -9
-14 -16 -32 -16 -41 0 -8 -4 -15 -9 -15 -9 0 -14 -15 -35 -117 -8 -35 -10 -63
-5 -63 5 0 9 11 9 25 0 14 4 25 9 25 5 0 11 8 14 18 42 127 70 153 75 72 1
-25 7 -54 12 -65 5 -11 10 -31 12 -45 2 -14 10 -26 18 -28 12 -2 15 11 13 78
-1 44 2 80 5 80 9 0 9 111 1 125 -14 23 18 195 36 195 7 0 24 -28 37 -62 20
-54 28 -63 56 -70 l32 -9 0 -86 c0 -82 1 -87 30 -115 17 -15 30 -33 30 -38 0
-6 5 -10 10 -10 6 0 10 -6 10 -14 0 -7 7 -19 15 -26 21 -18 19 -2 -10 54 -14
27 -25 58 -25 68 0 10 -4 18 -9 18 -5 0 -11 12 -14 28 -3 15 -8 37 -12 50 -6
18 -4 22 13 22 12 0 23 -4 27 -9 4 -8 45 -12 45 -5 0 2 -32 34 -71 73 -46 47
-75 84 -82 109 -6 20 -11 39 -12 42 -19 65 -26 172 -14 212 5 18 11 49 13 69
2 20 13 58 25 84 12 26 21 54 21 61 0 8 4 14 8 14 5 0 18 20 30 43 12 24 34
49 48 56 15 6 35 23 46 36 11 14 26 25 34 25 8 0 14 4 14 8 0 9 85 71 103 75
7 1 15 5 18 10 10 14 97 29 159 28 19 -1 53 -10 75 -20 45 -21 94 -35 112 -32
6 1 14 -3 18 -8 3 -6 12 -8 20 -5 9 4 16 -4 21 -23 4 -15 15 -37 24 -48 22
-25 120 -185 120 -197 0 -4 4 -8 9 -8 13 0 -4 68 -22 88 -8 9 -17 27 -20 40
-4 18 -2 22 10 18 8 -3 16 -6 19 -6 2 0 1 -7 -2 -15 -4 -8 -1 -15 5 -15 17 0
11 36 -19 115 -17 43 -18 53 -7 64 6 6 27 11 47 11 21 0 30 3 22 8 -7 5 6 13
39 21 48 13 52 12 77 -10 15 -13 29 -27 32 -30 3 -3 22 -12 43 -20 20 -7 37
-17 37 -21 0 -4 5 -8 12 -8 12 0 107 -69 149 -109 15 -14 47 -45 70 -67 24
-23 53 -54 64 -70 11 -15 25 -32 31 -38 12 -13 64 -90 79 -117 5 -11 13 -19
17 -19 5 0 8 -7 8 -15 0 -8 4 -15 8 -15 5 0 14 -16 22 -35 8 -19 18 -35 22
-35 5 0 7 -4 3 -9 -3 -5 1 -16 9 -23 7 -8 21 -30 31 -48 10 -19 22 -38 27 -41
5 -3 10 -16 11 -27 1 -12 6 -22 12 -22 5 0 3 -5 -5 -10 -13 -8 -12 -10 4 -10
11 0 16 -3 13 -7 -4 -3 -3 -11 2 -17 5 -6 14 -28 20 -48 7 -21 17 -38 22 -38
5 0 9 -16 9 -35 0 -19 6 -52 14 -72 8 -21 23 -72 35 -113 12 -41 26 -89 31
-106 6 -17 10 -40 10 -52 0 -12 4 -22 8 -22 8 0 28 -113 58 -325 38 -260 55
-411 61 -533 l5 -104 -35 -56 c-18 -31 -45 -79 -57 -107 -13 -27 -32 -58 -41
-68 -15 -17 -51 -85 -69 -132 -8 -21 -35 -143 -45 -210 -4 -22 -12 -43 -18
-47 -7 -4 -7 -8 -2 -8 12 0 7 -100 -5 -115 -8 -10 -14 -37 -26 -128 -4 -26
-11 -50 -15 -53 -5 -3 -9 -18 -9 -34 0 -37 -10 -61 -22 -54 -5 4 -9 -4 -7 -17
2 -27 -9 -59 -22 -59 -4 0 -3 13 2 29 6 16 8 53 6 82 l-3 54 -2 -60 c-2 -43
-5 -56 -12 -45 -9 13 -11 13 -19 0 -9 -12 -11 -12 -17 3 -5 15 -3 44 10 104 1
7 13 22 27 34 16 14 20 23 12 26 -7 3 -13 9 -13 14 0 6 4 8 8 5 5 -3 9 1 9 9
0 18 -43 20 -51 3 -4 -9 -5 -8 -5 2 1 8 1 24 0 35 -1 17 -3 18 -11 5 -7 -11
-10 -4 -10 25 0 23 5 46 12 53 7 7 8 12 4 12 -5 0 -3 6 3 14 7 8 14 27 17 43
3 15 9 30 15 31 5 2 9 14 9 26 0 12 5 27 10 32 10 10 13 24 27 136 3 26 9 46
13 43 14 -8 29 179 16 192 -14 14 -36 -23 -36 -59 0 -48 -53 -292 -74 -340 -8
-18 -31 -80 -51 -138 -48 -135 -64 -170 -80 -170 -24 0 -41 -27 -40 -63 2 -51
-21 -36 -35 24 -7 27 -16 52 -21 55 -5 3 -9 18 -9 34 0 16 -4 32 -10 35 -5 3
-10 18 -10 33 0 34 -9 47 -37 56 -21 7 -21 7 -7 -51 8 -32 19 -67 24 -78 6
-11 17 -51 26 -89 8 -39 19 -77 23 -85 5 -9 11 -30 14 -47 5 -28 4 -31 -14
-27 -11 3 -25 15 -31 27 -6 11 -14 23 -18 26 -17 11 -60 84 -60 100 0 10 -7
20 -15 24 -11 4 -14 14 -10 33 3 16 2 22 -1 16 -3 -7 -10 -13 -16 -13 -15 0
-48 40 -54 67 -4 12 -10 20 -15 17 -5 -3 -9 3 -9 14 0 26 -30 83 -40 77 -13
-8 0 -42 48 -135 25 -47 52 -98 60 -115 15 -29 77 -119 97 -141 5 -6 28 -33
50 -60 51 -63 194 -204 206 -204 6 0 7 -4 4 -10 -3 -5 0 -10 7 -10 8 0 20 -9
28 -20 8 -11 18 -20 23 -20 4 0 14 -6 21 -12 12 -11 10 -15 -8 -26 -14 -9 -15
-12 -3 -8 9 3 24 3 33 -1 13 -5 13 -7 2 -14 -9 -6 -2 -9 20 -9 17 0 32 -4 32
-10 0 -5 7 -10 15 -10 8 0 23 -4 33 -9 59 -30 129 -50 197 -55 33 -3 49 -3 35
0 -14 3 -29 10 -34 15 -6 5 -27 9 -47 9 -21 0 -39 4 -41 8 -1 4 -38 25 -80 47
-43 21 -78 43 -78 47 0 4 -6 8 -13 8 -7 0 -32 20 -56 44 l-42 43 18 34 c10 19
27 59 37 89 10 30 26 64 36 75 14 17 47 149 64 260 3 17 10 50 15 75 12 51 37
199 51 310 19 141 20 149 49 211 7 14 26 41 42 60 16 18 39 54 52 79 25 47 38
70 105 185 24 40 37 72 30 74 -10 3 -23 -11 -31 -34 -13 -34 -28 39 -38 195
-11 160 -19 223 -30 234 -5 6 -9 36 -9 68 0 32 -4 77 -10 100 -30 133 -74 349
-78 383 -2 22 -8 44 -13 50 -5 5 -9 26 -9 46 0 21 -4 41 -10 44 -5 3 -10 14
-10 23 0 19 -63 190 -91 245 -10 22 -19 45 -19 52 0 7 -3 15 -7 17 -5 2 -18
21 -29 43 -58 107 -86 154 -99 165 -8 7 -15 16 -15 21 0 12 -47 79 -52 74 -2
-2 -15 14 -28 35 -14 22 -28 40 -32 40 -5 0 -8 6 -8 13 0 6 -26 40 -57 74 -32
34 -74 80 -93 102 -19 22 -39 41 -43 41 -8 0 -65 40 -93 65 -39 34 -63 49
-140 90 -48 25 -93 45 -100 45 -8 0 -14 5 -14 10 0 6 -13 10 -28 10 -15 0 -32
4 -37 9 -6 6 -37 11 -69 13 l-60 3 3 103 c1 56 0 102 -3 102 -3 0 -6 -12 -6
-27z"/>
<path d="M4353 5698 c9 -58 18 -92 26 -98 8 -6 22 -37 27 -60 2 -8 8 -16 14
-18 5 -2 7 -8 4 -14 -4 -6 -1 -14 6 -18 23 -14 -69 -23 -100 -10 -44 18 -63 7
-58 -35 2 -22 0 -35 -7 -35 -15 0 -105 87 -105 101 0 7 -3 9 -7 5 -9 -9 39
-106 53 -106 17 0 22 -30 12 -67 -8 -32 -10 -33 -61 -33 -29 0 -47 -4 -41 -8
14 -9 14 -44 0 -37 -6 3 -19 8 -28 11 -10 4 -18 10 -18 15 0 5 -7 9 -15 9 -7
0 -19 8 -24 18 -6 10 -11 12 -11 4 0 -11 -36 17 -96 76 -7 6 -17 12 -22 12 -5
0 -18 12 -28 27 -9 15 -21 32 -26 38 -5 5 -15 19 -23 30 l-14 20 -1 -20 c0
-33 71 -135 95 -135 3 0 15 -9 27 -19 11 -11 46 -33 77 -48 74 -37 83 -49 56
-77 -13 -13 -13 -15 3 -18 9 -2 29 0 44 5 69 23 238 -20 238 -60 0 -6 4 -13 8
-15 12 -5 52 -95 52 -117 0 -11 5 -23 10 -26 6 -3 10 -19 10 -35 0 -16 5 -32
10 -35 6 -3 10 -14 10 -24 0 -28 38 -142 57 -171 25 -38 63 -76 63 -63 0 7 -5
15 -10 18 -6 4 -8 11 -5 16 4 5 2 9 -3 9 -9 0 -52 89 -52 108 0 7 -4 12 -10
12 -5 0 -10 11 -10 24 0 14 -4 28 -10 31 -5 3 -10 17 -10 31 0 14 -4 22 -10
19 -6 -4 -10 9 -10 31 0 40 -22 117 -51 177 -11 22 -19 47 -19 58 0 10 -4 19
-9 19 -5 0 -12 8 -16 19 -3 10 -17 31 -30 47 -14 16 -25 32 -25 37 0 12 33 7
60 -8 41 -23 43 -17 11 22 -17 21 -31 46 -31 55 0 10 -4 18 -10 18 -5 0 -10
10 -10 23 0 20 4 23 30 19 17 -2 30 -8 30 -13 0 -5 13 -9 29 -9 17 0 33 -4 36
-10 4 -6 52 -10 113 -10 l107 1 -45 20 c-25 11 -52 25 -60 30 -8 5 -22 12 -30
16 -28 13 -87 81 -99 115 -7 18 -16 40 -21 49 -5 9 -12 33 -15 53 -9 48 -40
51 -32 4z m130 -240 c3 -10 -7 -12 -39 -9 -24 1 -44 7 -44 12 0 14 77 11 83
-3z m-238 -176 c6 -4 11 -14 13 -22 2 -8 8 -16 13 -18 15 -6 10 -22 -6 -22
-24 0 -58 37 -52 54 7 17 16 20 32 8z"/>
<path d="M5656 5589 c4 -7 44 0 44 7 0 2 -11 3 -24 2 -14 -1 -23 -5 -20 -9z"/>
<path d="M4350 5490 c0 -5 10 -10 23 -10 18 0 19 2 7 10 -19 13 -30 13 -30 0z"/>
<path d="M5470 5471 c0 -5 -9 -11 -20 -14 -11 -3 -20 -11 -20 -19 0 -11 2 -11
9 0 5 8 22 13 42 11 19 -1 42 -1 52 0 16 1 17 3 3 16 -16 16 -66 21 -66 6z"/>
<path d="M4171 5374 c0 -11 3 -14 6 -6 3 7 2 16 -1 19 -3 4 -6 -2 -5 -13z"/>
<path d="M1887 5363 c-4 -3 -7 -14 -7 -23 0 -13 6 -16 25 -12 31 5 42 21 24
33 -17 10 -33 11 -42 2z"/>
<path d="M4090 5353 c0 -12 7 -24 16 -27 25 -10 26 -2 4 24 -19 22 -20 22 -20
3z"/>
<path d="M4560 5341 c0 -4 11 -6 25 -3 14 2 25 6 25 8 0 2 -11 4 -25 4 -14 0
-25 -4 -25 -9z"/>
<path d="M1825 5320 c-3 -5 -1 -10 4 -10 6 0 11 5 11 10 0 6 -2 10 -4 10 -3 0
-8 -4 -11 -10z"/>
<path d="M4491 5298 c-25 -9 -19 -30 7 -26 13 2 18 -7 22 -42 5 -41 6 -43 15
-20 5 14 9 30 10 35 0 6 15 11 33 13 17 2 32 8 32 14 0 5 -6 8 -14 5 -8 -3
-30 2 -49 12 -23 12 -41 15 -56 9z"/>
<path d="M1917 5263 c-10 -17 11 -84 40 -126 36 -53 74 -97 84 -97 11 0 -1 32
-16 45 -6 6 -25 35 -41 65 -16 30 -32 57 -36 58 -5 2 -8 11 -8 20 0 23 -16 46
-23 35z"/>
<path d="M4522 5150 c0 -14 2 -19 5 -12 2 6 2 18 0 25 -3 6 -5 1 -5 -13z"/>
<path d="M1359 5097 c-50 -41 -159 -158 -159 -171 0 -7 -34 -47 -72 -86 -16
-16 -33 -39 -38 -52 -21 -45 -40 -73 -50 -71 -5 2 -7 -3 -4 -10 2 -7 -4 -29
-15 -50 -11 -21 -17 -45 -14 -53 3 -8 1 -14 -5 -14 -5 0 -12 -15 -15 -32 -4
-29 -49 -195 -64 -238 -3 -8 -7 -28 -8 -45 -6 -68 -17 -151 -22 -165 -9 -23
-13 -42 -18 -82 -4 -42 8 -46 37 -13 17 19 19 19 31 3 8 -10 17 -15 20 -11 4
3 7 1 7 -5 0 -7 5 -12 11 -12 5 0 8 4 5 9 -3 5 1 12 10 15 10 4 14 14 11 26
-3 11 -2 20 3 20 14 0 19 -70 9 -128 -15 -95 -11 -180 9 -210 11 -15 25 -41
33 -59 8 -19 16 -27 20 -21 4 6 -3 29 -16 52 -25 46 -31 122 -13 177 6 19 15
75 19 124 15 166 22 210 33 217 6 4 4 9 -7 14 -10 4 -23 2 -30 -5 -6 -6 -18
-11 -27 -11 -9 0 -35 -16 -58 -36 l-42 -36 0 26 c0 14 5 26 10 26 6 0 10 14
10 30 0 17 5 30 13 30 7 0 13 18 15 48 4 80 11 110 48 205 20 51 36 100 35
109 0 10 4 20 10 23 5 4 9 18 9 33 0 21 2 24 10 12 7 -11 10 -12 10 -2 0 18
31 84 47 100 7 7 13 17 13 22 0 5 11 21 24 37 13 16 34 48 47 72 28 54 124
153 167 172 23 10 32 20 30 33 -5 33 -23 29 -79 -17z"/>
<path d="M4568 5063 c6 -2 18 -2 25 0 6 3 1 5 -13 5 -14 0 -19 -2 -12 -5z"/>
<path d="M5958 5039 c-10 -5 -18 -14 -18 -20 0 -12 46 -59 57 -59 4 0 26 -18
47 -40 22 -22 45 -40 53 -40 15 0 18 17 2 22 -13 4 -31 85 -24 108 4 13 -2 19
-27 23 -18 4 -42 9 -53 12 -11 3 -28 0 -37 -6z"/>
<path d="M2098 4673 c1 -104 5 -199 9 -213 3 -14 5 -47 4 -75 -1 -32 1 -45 7
-37 10 15 22 -38 22 -101 0 -30 -4 -37 -16 -35 -10 2 -19 -3 -22 -11 -4 -11 2
-13 26 -8 25 5 34 2 47 -16 19 -27 19 -19 1 63 -24 108 -38 231 -34 305 l3 70
23 -38 c12 -21 22 -44 22 -52 0 -7 4 -15 8 -17 4 -1 20 -24 35 -50 15 -26 33
-53 40 -60 6 -7 21 -30 32 -51 21 -41 66 -97 77 -97 4 0 24 -17 45 -37 50 -49
82 -68 95 -55 7 7 3 14 -11 22 -12 6 -19 15 -16 21 4 5 2 9 -4 9 -5 0 -28 17
-50 38 -32 30 -41 45 -41 73 -1 30 -2 32 -14 17 -18 -24 -22 -23 -36 12 -7 17
-16 30 -21 30 -5 0 -9 7 -9 15 0 8 -11 25 -25 39 -14 14 -25 29 -25 34 0 14
-25 62 -32 62 -5 0 -8 8 -8 18 0 18 -41 131 -60 164 -6 10 -10 27 -10 38 0 11
-4 28 -9 38 -5 9 -14 29 -22 45 -28 60 -34 30 -31 -160z"/>
<path d="M1761 4688 c-1 -62 3 -126 7 -143 5 -18 5 -39 -1 -52 -7 -15 -7 -27
1 -35 5 -7 13 -39 16 -71 7 -64 16 -88 45 -131 11 -17 18 -33 15 -38 -3 -4 2
-8 11 -8 9 0 29 -7 45 -15 27 -14 30 -14 30 0 0 8 -5 15 -11 15 -23 0 -34 27
-35 83 0 31 4 57 9 57 13 0 36 -31 37 -48 0 -16 40 -51 58 -52 7 0 10 -4 7
-10 -3 -5 3 -10 14 -10 12 0 21 -4 21 -10 0 -5 5 -10 10 -10 24 0 -12 39 -41
45 -21 5 -27 10 -19 15 9 6 8 9 -6 14 -19 6 -44 48 -44 74 0 7 -4 11 -9 8 -4
-3 -18 28 -30 69 -25 83 -51 118 -51 68 0 -20 -5 -30 -15 -30 -15 0 -19 16
-29 102 -3 22 -7 56 -10 75 -3 19 -7 59 -9 88 -7 91 -15 67 -16 -50z m75 -277
c-4 -5 -1 -11 6 -13 7 -3 8 -10 4 -17 -7 -11 -10 -11 -17 0 -12 19 -11 39 2
39 5 0 8 -4 5 -9z m11 -83 c-3 -8 -6 -5 -6 6 -1 11 2 17 5 13 3 -3 4 -12 1
-19z m20 -65 c-3 -10 -5 -2 -5 17 0 19 2 27 5 18 2 -10 2 -26 0 -35z"/>
<path d="M2400 4780 c0 -5 5 -10 11 -10 5 0 7 5 4 10 -3 6 -8 10 -11 10 -2 0
-4 -4 -4 -10z"/>
<path d="M2400 4743 c0 -10 6 -30 14 -44 7 -15 19 -51 27 -80 7 -30 18 -58 24
-64 7 -5 19 -25 29 -42 9 -18 19 -33 21 -33 8 0 1 24 -8 31 -5 4 -11 24 -13
45 -7 58 -47 156 -76 186 -17 17 -18 17 -18 1z"/>
<path d="M2435 4534 c3 -49 5 -54 15 -54 15 0 12 43 -4 65 -12 17 -13 16 -11
-11z"/>
<path d="M2870 4492 c0 -23 4 -42 8 -42 4 0 8 -10 9 -22 4 -127 7 -168 15
-168 5 0 8 33 7 73 -3 94 -9 138 -19 132 -5 -3 -8 8 -8 25 1 17 -2 33 -5 37
-4 3 -7 -12 -7 -35z"/>
<path d="M2531 4454 c0 -11 3 -14 6 -6 3 7 2 16 -1 19 -3 4 -6 -2 -5 -13z"/>
<path d="M1234 4452 c-6 -4 -14 -32 -18 -62 -3 -30 -9 -73 -12 -96 -4 -29 -2
-44 10 -53 24 -20 41 5 43 64 1 27 7 66 14 87 17 54 -1 84 -37 60z"/>
<path d="M1610 4368 c0 -7 5 -20 10 -28 8 -12 10 -11 10 7 0 12 -4 25 -10 28
-5 3 -10 0 -10 -7z"/>
<path d="M2702 4317 c-16 -16 -22 -18 -22 -7 0 13 -2 13 -10 0 -5 -8 -7 -32
-3 -52 4 -27 0 -45 -12 -64 -9 -15 -12 -23 -6 -20 13 8 13 -1 1 -29 -7 -19 -8
-19 -15 -2 -5 11 -19 30 -31 43 -13 12 -24 30 -24 39 0 9 -4 13 -10 10 -5 -3
-10 1 -10 9 0 9 -7 16 -15 16 -10 0 -14 -9 -13 -25 1 -14 6 -25 11 -25 4 0 5
-4 2 -10 -3 -5 -1 -10 5 -10 6 0 10 -6 9 -12 -3 -32 16 -58 57 -77 24 -12 44
-22 44 -24 0 -1 -11 -44 -25 -95 -14 -51 -25 -104 -25 -117 0 -13 -4 -27 -10
-30 -5 -3 -10 -19 -10 -35 0 -16 -4 -32 -10 -35 -5 -3 -10 -15 -10 -26 0 -10
-4 -19 -10 -19 -6 0 -10 -36 -9 -87 0 -49 -5 -113 -11 -143 -6 -30 -10 -80 -9
-110 1 -30 -4 -68 -10 -83 -6 -16 -11 -33 -11 -38 0 -18 -140 -149 -166 -155
-13 -3 -24 -9 -24 -13 0 -3 -19 -15 -43 -26 -56 -26 -62 -33 -82 -91 -25 -75
-32 -151 -18 -229 19 -114 35 -143 62 -112 8 11 6 18 -9 32 -26 24 -27 55 -1
48 11 -3 27 -14 37 -24 9 -10 22 -19 29 -19 18 0 68 -27 92 -50 12 -11 27 -20
33 -20 5 0 10 -4 10 -10 0 -5 7 -10 15 -10 8 0 15 -4 15 -10 0 -5 7 -10 15
-10 8 0 15 -3 15 -8 0 -4 10 -12 23 -17 12 -6 23 -19 24 -30 5 -40 16 -80 29
-99 11 -16 12 -12 8 25 -3 24 -7 53 -10 64 -29 116 -49 718 -25 755 7 9 6 19
-2 29 -9 12 -9 13 1 7 9 -5 12 5 12 38 0 25 4 46 9 46 5 0 7 16 5 36 -2 20 0
42 6 49 6 7 11 42 11 76 1 38 6 71 15 83 8 11 14 31 14 43 0 21 5 23 45 23 25
0 45 5 45 10 0 6 -12 10 -27 10 -44 1 -67 24 -58 57 13 52 16 68 21 108 3 22
9 51 14 65 4 14 14 58 21 98 7 39 15 72 18 72 5 0 28 63 37 100 0 3 6 18 12
33 28 68 4 124 -36 84z m-202 -1161 c-13 -17 -13 -473 1 -482 5 -3 9 -23 9
-44 l0 -39 -59 30 c-33 16 -65 29 -71 29 -6 0 -8 5 -5 10 3 6 -3 10 -14 10
-12 0 -21 5 -21 10 0 6 -5 10 -10 10 -6 0 -22 11 -36 25 -14 14 -36 28 -49 31
-42 10 -46 58 -19 198 8 45 39 86 65 86 9 0 19 6 22 13 2 7 25 23 51 36 25 13
46 28 46 33 0 4 5 8 11 8 7 0 22 12 35 26 13 14 29 22 34 19 6 -3 10 2 11 12
0 11 3 13 6 5 3 -7 0 -19 -7 -26z"/>
<path d="M5138 4285 c18 -13 29 -14 62 -5 22 6 40 13 40 15 0 3 -28 5 -62 5
-59 0 -61 -1 -40 -15z"/>
<path d="M2881 4152 c-6 -11 -8 -21 -6 -23 2 -3 5 -23 6 -45 2 -30 7 -40 20
-40 14 0 16 7 13 41 -10 87 -16 99 -33 67z"/>
<path d="M2538 4143 c7 -3 16 -2 19 1 4 3 -2 6 -13 5 -11 0 -14 -3 -6 -6z"/>
<path d="M3121 3984 c0 -11 3 -14 6 -6 3 7 2 16 -1 19 -3 4 -6 -2 -5 -13z"/>
<path d="M4455 3986 c-70 -21 -117 -45 -110 -56 5 -8 14 -7 28 3 12 8 46 16
75 19 60 6 59 8 87 -97 8 -27 23 -83 34 -122 12 -40 21 -84 21 -97 0 -14 5
-28 10 -31 6 -3 10 -18 11 -33 0 -15 9 -45 19 -67 l19 -40 0 52 c1 28 -3 55
-9 58 -5 3 -10 21 -10 40 0 19 -4 37 -10 40 -5 3 -10 17 -10 30 0 13 -4 26 -8
29 -4 2 -9 24 -10 48 -2 24 -7 58 -13 75 -12 39 -4 73 18 73 9 0 13 3 10 7 -8
7 57 32 88 34 39 2 -91 36 -165 44 -19 2 -53 -2 -75 -9z"/>
<path d="M6070 3940 c0 -5 5 -10 11 -10 5 0 7 5 4 10 -3 6 -8 10 -11 10 -2 0
-4 -4 -4 -10z"/>
<path d="M605 3917 c-4 -10 -5 -21 -1 -24 10 -10 18 4 13 24 -4 17 -4 17 -12
0z"/>
<path d="M4300 3920 c0 -5 -7 -10 -15 -10 -8 0 -15 -4 -15 -10 0 -5 6 -10 13
-10 17 1 48 26 40 33 -10 10 -23 8 -23 -3z"/>
<path d="M6098 3913 c7 -3 16 -2 19 1 4 3 -2 6 -13 5 -11 0 -14 -3 -6 -6z"/>
<path d="M687 3881 c-13 -16 -27 -28 -29 -25 -3 2 -11 -7 -18 -21 -7 -14 -18
-25 -23 -25 -15 0 -36 -33 -37 -57 0 -12 -6 -24 -12 -26 -10 -4 -10 -6 0 -6 6
-1 12 -11 12 -23 0 -22 -40 -246 -60 -336 -6 -23 -10 -55 -10 -72 0 -16 -4
-32 -10 -35 -5 -3 -10 -19 -10 -36 0 -16 -4 -29 -10 -29 -5 0 -10 -16 -10 -35
0 -19 -4 -35 -8 -35 -4 0 -9 -19 -11 -42 -1 -23 1 -39 5 -35 8 8 35 81 66 177
11 36 24 74 28 85 4 11 13 40 20 65 7 25 16 54 20 65 5 11 14 41 20 68 7 26
17 47 21 47 5 0 9 13 9 28 0 15 4 32 8 37 5 6 14 37 21 70 7 33 21 95 32 139
11 43 18 80 16 82 -3 3 -16 -9 -30 -25z"/>
<path d="M2929 3872 c-16 -22 -29 -25 -46 -10 -10 8 -13 0 -13 -36 0 -44 1
-45 20 -34 11 7 20 18 20 25 0 7 6 13 14 13 13 0 22 -19 32 -65 3 -11 9 -24
14 -29 6 -6 10 -36 10 -68 0 -32 4 -58 8 -58 8 0 21 -52 57 -240 8 -41 17 -92
20 -112 3 -21 11 -38 16 -38 10 0 10 239 1 368 -3 43 -6 51 -18 41 -19 -15
-44 11 -44 47 0 28 -15 85 -31 116 -5 10 -9 28 -9 41 0 13 -9 32 -19 41 -18
16 -20 16 -32 -2z"/>
<path d="M4236 3874 c-11 -8 -16 -14 -10 -14 13 0 39 18 34 24 -3 2 -14 -2
-24 -10z"/>
<path d="M6190 3880 c0 -5 5 -10 10 -10 6 0 10 5 10 10 0 6 -4 10 -10 10 -5 0
-10 -4 -10 -10z"/>
<path d="M6260 3865 c0 -8 -4 -15 -9 -15 -5 0 -11 -10 -15 -23 -3 -13 -17 -36
-30 -50 -14 -15 -23 -27 -21 -27 7 0 -81 -86 -105 -101 -22 -14 -25 -24 -26
-75 -1 -33 -5 -87 -9 -121 -5 -44 -4 -63 4 -63 6 0 11 15 11 33 0 74 53 212
93 244 21 17 49 50 100 116 12 16 34 41 50 56 l27 29 -22 6 c-36 9 -48 7 -48
-9z"/>
<path d="M4176 3825 c-16 -14 -24 -25 -18 -25 6 0 14 5 17 10 4 6 11 8 16 5 5
-4 9 1 9 10 0 9 5 13 10 10 6 -3 10 -1 10 4 0 17 -13 13 -44 -14z"/>
<path d="M1110 3797 c0 -19 4 -37 8 -39 5 -1 20 -36 35 -76 21 -58 27 -91 27
-157 0 -46 5 -87 10 -90 6 -3 10 -15 10 -25 0 -26 61 -139 97 -181 45 -52 176
-179 185 -179 5 0 25 -16 45 -36 36 -36 37 -38 41 -134 5 -111 4 -112 -82
-103 -33 4 -49 1 -61 -11 -15 -15 -14 -16 19 -16 20 0 36 5 36 10 0 6 7 10 15
10 8 0 15 -4 15 -10 0 -5 -4 -10 -10 -10 -11 0 -4 -51 14 -92 6 -16 14 -28 18
-28 5 0 8 -5 8 -11 0 -6 7 -17 15 -25 8 -8 21 -25 30 -36 8 -12 18 -19 21 -15
4 4 -2 17 -14 30 -28 30 -29 80 -2 132 17 33 20 59 20 155 -1 80 -5 120 -14
133 -7 9 -16 17 -19 17 -2 0 -19 13 -36 29 -18 17 -50 45 -73 63 -116 93 -187
183 -220 275 -15 43 -28 90 -28 105 0 15 -4 30 -10 33 -5 3 -10 35 -10 70 0
35 -4 67 -10 70 -5 3 -10 19 -10 35 0 16 -5 32 -11 36 -7 4 -9 21 -6 40 4 22
2 34 -5 34 -6 0 -20 7 -30 17 -17 15 -18 14 -18 -20z m460 -1074 c0 -16 -4
-34 -9 -42 -8 -12 -11 -12 -23 0 -7 8 -14 26 -16 42 -3 23 0 27 22 27 22 0 26
-5 26 -27z"/>
<path d="M1198 3810 c-24 -26 -23 -30 6 -30 14 0 49 -13 79 -30 54 -30 147
-43 147 -21 0 5 9 11 20 13 54 8 1 35 -135 68 -83 21 -99 21 -117 0z"/>
<path d="M6400 3788 c0 -8 7 -21 15 -28 19 -16 19 -1 0 24 -12 16 -15 17 -15
4z"/>
<path d="M4138 3783 c7 -3 16 -2 19 1 4 3 -2 6 -13 5 -11 0 -14 -3 -6 -6z"/>
<path d="M4073 3725 c0 -8 4 -12 9 -9 4 3 8 9 8 15 0 5 -4 9 -8 9 -5 0 -9 -7
-9 -15z"/>
<path d="M2860 3686 c-6 -24 -10 -52 -8 -62 3 -11 10 7 17 39 15 70 9 86 -9
23z"/>
<path d="M2370 3710 c-14 -4 -42 -8 -62 -9 -46 -1 -48 -14 -6 -35 36 -18 58
-20 58 -6 0 6 5 10 11 10 5 0 7 -4 4 -10 -3 -5 1 -10 10 -10 9 0 14 -4 11 -8
-2 -4 8 -7 22 -6 15 1 33 3 40 3 7 1 11 5 8 10 -3 4 3 16 14 26 30 27 15 45
-39 44 -25 -1 -57 -5 -71 -9z m-20 -46 c0 -2 -7 -4 -15 -4 -8 0 -15 4 -15 10
0 5 7 7 15 4 8 -4 15 -8 15 -10z"/>
<path d="M487 3657 c-44 -50 -48 -68 -8 -35 27 21 56 66 49 74 -2 2 -20 -16
-41 -39z"/>
<path d="M403 3652 c-27 -32 -33 -74 -8 -48 8 8 15 21 15 29 0 9 5 17 12 19 6
2 9 9 7 15 -2 7 -14 0 -26 -15z"/>
<path d="M6646 3596 c28 -13 59 -37 68 -53 10 -15 41 -51 70 -78 28 -28 70
-73 94 -100 45 -53 57 -54 20 -2 -31 44 -45 57 -52 50 -3 -4 -6 0 -6 8 0 8
-13 28 -28 46 -49 56 -62 73 -62 79 0 3 -13 18 -28 34 -21 20 -43 30 -78 35
l-49 6 51 -25z"/>
<path d="M356 3573 c-6 -14 -5 -15 5 -6 7 7 10 15 7 18 -3 3 -9 -2 -12 -12z"/>
<path d="M403 3575 c-8 -9 -9 -16 -3 -20 6 -3 13 1 16 10 9 21 2 26 -13 10z"/>
<path d="M2856 3578 c-7 -21 -3 -48 6 -48 4 0 7 14 6 30 -2 32 -6 38 -12 18z"/>
<path d="M335 3510 c3 -5 8 -10 11 -10 2 0 4 5 4 10 0 6 -5 10 -11 10 -5 0 -7
-4 -4 -10z"/>
<path d="M3340 3505 c0 -8 -4 -15 -10 -15 -9 0 -6 -208 3 -217 2 -2 7 43 10
99 4 57 10 113 13 126 4 13 2 22 -5 22 -6 0 -11 -7 -11 -15z"/>
<path d="M300 3499 c0 -6 -6 -7 -12 -3 -7 4 -10 4 -6 -1 7 -8 -15 -35 -29 -35
-5 0 -15 -9 -23 -20 -8 -11 -19 -20 -24 -20 -5 0 -16 -8 -25 -18 -9 -11 -23
-21 -31 -25 -11 -4 -9 -6 6 -6 29 -1 144 85 144 108 0 6 7 8 15 5 8 -4 15 -2
15 4 0 5 -7 12 -15 16 -8 3 -15 1 -15 -5z"/>
<path d="M2932 3490 c0 -14 2 -19 5 -12 2 6 2 18 0 25 -3 6 -5 1 -5 -13z"/>
<path d="M5890 3501 c0 -5 -14 -14 -32 -22 -17 -7 -26 -15 -20 -17 6 -2 28 8
49 22 24 17 31 26 20 26 -9 0 -17 -4 -17 -9z"/>
<path d="M3818 3453 c7 -3 16 -2 19 1 4 3 -2 6 -13 5 -11 0 -14 -3 -6 -6z"/>
<path d="M2911 3424 c0 -11 3 -14 6 -6 3 7 2 16 -1 19 -3 4 -6 -2 -5 -13z"/>
<path d="M3773 3415 c-12 -12 -19 -26 -16 -29 4 -3 -1 -6 -10 -6 -9 0 -17 -6
-17 -14 0 -8 -4 -16 -8 -18 -12 -5 -54 -68 -45 -68 7 0 58 38 75 57 34 36 68
83 68 92 0 18 -23 11 -47 -14z"/>
<path d="M2831 3413 c-1 -12 -6 -23 -13 -25 -9 -3 -8 -13 4 -39 15 -30 18 -31
23 -14 4 11 11 28 16 38 6 11 6 17 -1 17 -6 0 -15 10 -20 23 -9 22 -9 22 -9 0z"/>
<path d="M2752 3383 c-6 -10 -12 -79 -16 -154 -5 -108 -3 -136 7 -136 8 0 14
15 16 36 1 20 4 52 6 71 19 161 13 233 -13 183z"/>
<path d="M4657 3344 c-2 -15 -1 -38 3 -53 7 -21 8 -16 9 27 1 56 -4 67 -12 26z"/>
<path d="M6037 3363 c-4 -3 -7 -11 -7 -17 0 -6 5 -5 12 2 6 6 9 14 7 17 -3 3
-9 2 -12 -2z"/>
<path d="M118 3353 c6 -2 18 -2 25 0 6 3 1 5 -13 5 -14 0 -19 -2 -12 -5z"/>
<path d="M90 3341 c0 -5 -21 -18 -47 -29 -27 -12 -41 -21 -32 -22 8 0 37 11
63 24 32 16 42 25 31 29 -8 4 -15 3 -15 -2z"/>
<path d="M2813 3264 c-3 -8 -1 -20 6 -27 8 -8 11 -4 9 16 -3 31 -6 34 -15 11z"/>
<path d="M6024 3223 c4 -27 10 -65 13 -86 3 -20 10 -40 16 -44 10 -6 3 102
-10 155 -11 43 -26 23 -19 -25z"/>
<path d="M6940 3263 c0 -7 5 -13 10 -13 6 0 10 -9 10 -20 0 -11 4 -28 9 -38 5
-9 15 -32 22 -50 17 -47 21 -34 6 27 -11 48 -56 122 -57 94z"/>
<path d="M3306 3229 c-3 -13 -7 -50 -10 -81 -4 -49 -2 -56 9 -44 8 8 15 39 16
75 2 63 -6 92 -15 50z"/>
<path d="M3072 3180 c0 -14 2 -19 5 -12 2 6 2 18 0 25 -3 6 -5 1 -5 -13z"/>
<path d="M2803 3175 c-7 -8 -13 -25 -13 -38 0 -13 -8 -31 -18 -40 -20 -19 -22
-88 -3 -111 8 -9 8 -22 0 -43 -13 -39 -6 -127 15 -175 9 -21 16 -47 16 -58 0
-11 5 -20 11 -20 7 0 9 12 5 33 -8 45 -9 167 -2 197 15 64 15 79 -1 73 -14 -5
-15 0 -9 38 9 48 18 159 14 159 -2 -1 -9 -7 -15 -15z"/>
<path d="M2861 3130 c-6 -22 -16 -40 -21 -40 -18 0 -10 -26 8 -27 18 -1 40 41
49 90 6 35 -24 16 -36 -23z"/>
<path d="M2832 3030 c0 -14 2 -19 5 -12 2 6 2 18 0 25 -3 6 -5 1 -5 -13z"/>
<path d="M4663 2975 c0 -33 2 -45 4 -27 2 18 2 45 0 60 -2 15 -4 0 -4 -33z"/>
<path d="M3070 2995 c-2 -11 -4 -40 -6 -65 -2 -34 0 -41 7 -27 6 9 8 39 6 65
-2 26 -5 38 -7 27z"/>
<path d="M7030 2993 c0 -11 4 -23 8 -28 5 -6 15 -37 22 -70 18 -87 33 -132 38
-117 2 7 1 25 -4 40 -4 15 -6 31 -5 36 1 4 -2 13 -7 20 -5 6 -15 37 -22 69
-13 58 -30 85 -30 50z"/>
<path d="M422 2960 c0 -14 2 -19 5 -12 2 6 2 18 0 25 -3 6 -5 1 -5 -13z"/>
<path d="M2093 2970 c-13 -5 -23 -12 -23 -15 0 -10 27 -5 46 10 21 16 11 18
-23 5z"/>
<path d="M2722 2975 c4 -4 3 -16 -3 -26 -5 -11 -6 -19 -1 -19 15 0 22 39 9 47
-7 3 -9 3 -5 -2z"/>
<path d="M390 2896 c-5 -15 -10 -35 -9 -44 0 -14 2 -14 6 -2 2 8 9 25 15 37 6
13 8 26 5 29 -4 4 -11 -5 -17 -20z"/>
<path d="M2722 2838 c-11 -41 -1 -192 13 -195 11 -2 14 211 3 222 -3 4 -11 -8
-16 -27z"/>
<path d="M1375 2740 c-19 -8 -19 -9 3 -9 12 -1 22 4 22 9 0 6 -1 10 -2 9 -2 0
-12 -4 -23 -9z"/>
<path d="M2808 2668 c-3 -7 -1 -26 4 -43 4 -16 8 -46 8 -65 0 -19 5 -42 11
-50 8 -11 9 0 4 40 -3 30 -7 70 -9 88 -5 38 -12 50 -18 30z"/>
<path d="M311 2654 c0 -11 3 -14 6 -6 3 7 2 16 -1 19 -3 4 -6 -2 -5 -13z"/>
<path d="M1162 2649 c-24 -12 -41 -23 -39 -25 7 -7 77 9 77 18 0 5 10 13 23
18 20 8 20 9 2 9 -11 1 -39 -9 -63 -20z"/>
<path d="M1081 2583 c-7 -8 -10 -17 -6 -21 3 -3 9 -2 13 4 4 6 14 13 21 16 13
4 13 5 0 10 -8 3 -20 -1 -28 -9z"/>
<path d="M2739 2579 c-1 -8 -1 -17 0 -21 0 -5 4 -38 7 -75 4 -38 11 -71 16
-74 5 -3 9 -12 8 -20 -5 -30 0 -69 9 -69 11 0 6 76 -6 92 -5 7 -11 38 -12 68
-5 93 -6 98 -13 106 -5 4 -9 1 -9 -7z"/>
<path d="M2632 2540 c0 -14 2 -19 5 -12 2 6 2 18 0 25 -3 6 -5 1 -5 -13z"/>
<path d="M2951 2544 c0 -11 3 -14 6 -6 3 7 2 16 -1 19 -3 4 -6 -2 -5 -13z"/>
<path d="M242 2528 c-7 -7 -12 -20 -12 -30 0 -10 -4 -18 -10 -18 -5 0 -10 -8
-10 -17 0 -26 21 -1 36 42 13 39 13 40 -4 23z"/>
<path d="M980 2495 c-1 -5 -2 -13 -2 -17 2 -13 -24 -26 -63 -31 -88 -13 -115
-20 -115 -28 0 -5 -10 -9 -23 -9 -13 0 -33 -9 -45 -20 -12 -11 -26 -20 -32
-20 -5 0 -10 -4 -10 -9 0 -5 -15 -25 -32 -44 -39 -40 -58 -71 -58 -92 0 -8 -4
-15 -10 -15 -5 0 -10 -7 -10 -15 0 -16 -20 -56 -32 -65 -3 -3 -9 -23 -13 -45
l-7 -40 25 45 c13 25 43 81 66 125 51 96 55 101 127 145 54 33 64 35 147 36
48 1 92 5 95 10 4 5 5 29 1 54 -3 25 -7 41 -9 35z"/>
<path d="M3231 2484 c0 -11 3 -14 6 -6 3 7 2 16 -1 19 -3 4 -6 -2 -5 -13z"/>
<path d="M4672 2455 c0 -16 2 -22 5 -12 2 9 2 23 0 30 -3 6 -5 -1 -5 -18z"/>
<path d="M3170 2440 c0 -5 5 -10 10 -10 6 0 10 5 10 10 0 6 -4 10 -10 10 -5 0
-10 -4 -10 -10z"/>
<path d="M6982 2395 c0 -16 2 -22 5 -12 2 9 2 23 0 30 -3 6 -5 -1 -5 -18z"/>
<path d="M177 2403 c-4 -3 -7 -13 -7 -22 1 -13 3 -13 11 2 11 19 8 33 -4 20z"/>
<path d="M150 2361 c0 -7 -9 -26 -21 -42 -16 -23 -17 -29 -5 -29 15 0 43 67
32 77 -3 4 -6 1 -6 -6z"/>
<path d="M1016 2362 c-4 -7 0 -19 8 -28 9 -8 16 -20 16 -25 0 -5 8 -9 17 -9
14 0 14 3 -4 23 -11 12 -22 29 -25 37 -3 10 -6 11 -12 2z"/>
<path d="M2570 2360 c0 -5 5 -10 10 -10 6 0 10 5 10 10 0 6 -4 10 -10 10 -5 0
-10 -4 -10 -10z"/>
<path d="M6081 2354 c0 -11 3 -14 6 -6 3 7 2 16 -1 19 -3 4 -6 -2 -5 -13z"/>
<path d="M1860 2325 c1 -25 29 -77 30 -54 0 9 -7 30 -15 45 -12 23 -15 25 -15
9z"/>
<path d="M1799 2278 c-13 -18 -29 -39 -36 -46 -16 -16 -17 -32 -3 -32 19 0 60
48 60 70 0 11 5 20 10 20 6 0 10 5 10 10 0 20 -19 9 -41 -22z"/>
<path d="M2590 2276 c0 -9 5 -16 10 -16 6 0 10 4 10 9 0 6 -4 13 -10 16 -5 3
-10 -1 -10 -9z"/>
<path d="M93 2263 c-4 -10 -15 -27 -25 -38 -10 -11 -22 -31 -25 -45 -3 -14
-14 -32 -25 -41 -18 -17 -25 -49 -10 -49 5 0 18 20 31 44 15 31 36 53 69 72
26 15 50 32 54 38 15 21 8 27 -14 12 -32 -23 -51 -21 -43 4 8 25 -3 27 -12 3z"/>
<path d="M2597 2236 c-8 -9 -27 -16 -41 -16 -14 0 -26 -4 -26 -10 0 -11 12
-13 47 -10 13 1 30 -6 39 -14 12 -12 12 -16 2 -16 -10 0 -9 -3 2 -10 8 -5 10
-10 5 -10 -6 0 -10 -18 -10 -40 0 -22 3 -40 8 -40 15 0 37 -28 37 -49 0 -11 5
-23 11 -27 15 -9 6 50 -15 100 -9 21 -16 51 -16 67 0 16 -5 29 -11 29 -6 0 -8
8 -5 18 3 9 2 23 -3 30 -7 11 -11 11 -24 -2z"/>
<path d="M4466 2145 c4 -8 13 -15 21 -15 13 0 13 3 3 15 -7 8 -16 15 -21 15
-5 0 -6 -7 -3 -15z"/>
<path d="M2611 1985 c-1 -38 -5 -79 -7 -90 -10 -42 -13 -114 -5 -119 4 -3 9
-33 10 -68 1 -34 6 -67 12 -74 14 -17 3 -51 -19 -58 -11 -3 -8 -5 8 -4 14 0
30 0 36 -1 19 -2 59 -155 70 -271 8 -76 16 -93 23 -45 9 60 -14 235 -30 235
-5 0 -9 9 -9 19 0 11 -4 22 -9 25 -24 15 -15 86 11 86 6 0 44 25 85 56 69 52
77 55 99 44 l24 -13 0 -229 c0 -125 4 -247 10 -270 5 -24 17 -77 26 -118 9
-41 21 -80 26 -87 16 -20 4 -151 -25 -271 -26 -107 -27 -118 -18 -230 9 -104
27 -177 61 -257 5 -11 11 -36 14 -55 7 -50 16 -92 26 -115 5 -11 11 -32 14
-47 5 -20 13 -28 27 -28 15 0 19 5 15 16 -3 8 -17 52 -30 97 -13 45 -31 99
-40 121 -9 21 -16 49 -16 62 0 13 -4 24 -8 24 -4 0 -14 27 -21 60 -8 33 -17
60 -22 60 -13 0 -11 107 1 131 6 10 11 53 12 94 1 41 5 75 10 75 4 0 8 15 8
33 0 18 4 37 10 43 5 5 10 26 12 47 1 20 5 37 9 37 16 0 32 129 47 390 5 80
14 155 20 167 7 12 12 44 12 72 0 29 5 51 12 53 6 2 36 -4 66 -14 50 -16 121
-26 82 -11 -8 4 -28 16 -45 28 -16 12 -41 25 -55 28 -57 12 -186 81 -237 126
-7 6 -16 11 -20 11 -4 0 -28 16 -52 35 -24 19 -47 35 -51 35 -4 0 -10 -17 -14
-37 -7 -44 -88 -143 -116 -143 -26 0 -32 34 -39 235 -4 99 -8 149 -10 110z"/>
<path d="M4654 1900 c3 -56 7 -105 10 -108 3 -3 6 -54 6 -114 0 -65 4 -108 10
-108 13 0 12 36 -1 180 -5 63 -10 143 -11 178 -1 34 -5 65 -10 68 -6 4 -7 -36
-4 -96z"/>
<path d="M2696 1966 c4 -16 13 -41 21 -55 14 -26 14 -25 7 9 -3 19 -13 44 -21
55 -13 19 -14 18 -7 -9z"/>
<path d="M408 1865 c-10 -13 -18 -28 -18 -33 0 -5 -16 -29 -35 -53 -19 -24
-35 -49 -35 -56 0 -6 -8 -14 -17 -16 -15 -4 -15 -5 -2 -6 21 -1 89 68 89 91 0
10 4 18 9 18 10 0 34 55 30 69 -2 5 -12 -1 -21 -14z"/>
<path d="M2990 1828 c1 -20 39 -61 58 -63 31 -3 62 -16 62 -27 0 -5 7 -8 15
-4 8 3 15 1 15 -4 0 -6 12 -9 28 -9 23 2 24 2 5 6 -13 2 -23 9 -23 14 0 5 -5
9 -11 9 -6 0 -28 12 -48 28 -59 44 -101 65 -101 50z"/>
<path d="M7390 1724 c0 -6 8 -29 18 -50 14 -33 17 -71 18 -234 0 -107 2 -215
4 -240 3 -42 4 -40 11 25 16 134 22 336 10 348 -6 6 -11 26 -11 44 0 18 -4 33
-10 33 -5 0 -10 8 -10 18 -1 19 -29 73 -30 56z"/>
<path d="M260 1660 c-6 -10 -12 -47 -14 -80 -2 -33 -10 -68 -18 -78 -7 -9 -20
-30 -28 -47 -43 -91 -98 -152 -162 -181 -28 -12 -38 -23 -38 -40 0 -17 5 -22
20 -21 11 1 20 4 20 8 0 4 14 10 30 14 18 4 27 11 24 17 -4 7 -2 8 4 4 6 -3
15 2 21 11 9 16 10 16 11 -5 0 -13 -4 -20 -10 -17 -6 3 -10 -1 -10 -10 0 -17
-20 -56 -33 -66 -5 -3 -9 -10 -9 -15 -1 -18 -21 -54 -30 -54 -5 0 -6 -4 -3
-10 3 -5 1 -10 -5 -10 -6 0 -8 -4 -5 -10 3 -5 -2 -10 -12 -10 -14 0 -15 -2 -4
-9 9 -6 10 -10 1 -13 -7 -2 -10 -20 -8 -48 l3 -45 43 67 c23 37 42 72 42 78 0
5 20 47 44 92 24 46 62 118 85 161 22 42 41 86 41 96 0 11 3 22 8 25 8 5 16
216 8 216 -3 0 -10 -9 -16 -20z"/>
<path d="M1786 1644 c-4 -11 1 -18 14 -21 18 -5 20 -14 20 -94 0 -53 4 -89 10
-89 6 0 10 -12 10 -27 0 -14 3 -23 7 -19 7 7 7 56 -3 184 -6 77 -8 82 -29 82
-13 0 -26 -7 -29 -16z"/>
<path d="M3130 1640 c13 -11 25 -20 28 -20 3 0 -3 9 -13 20 -10 11 -23 20 -28
20 -6 0 0 -9 13 -20z"/>
<path d="M5870 1633 c1 -9 70 -55 70 -47 0 10 -28 34 -39 34 -6 0 -11 5 -11
10 0 6 -4 10 -10 10 -5 0 -10 -3 -10 -7z"/>
<path d="M1754 1546 c-6 -37 -9 -344 -4 -436 3 -39 6 -21 11 65 18 290 21 405
11 405 -6 0 -14 -15 -18 -34z"/>
<path d="M5966 1565 c10 -8 23 -15 28 -15 6 0 1 7 -10 15 -10 8 -23 15 -28 15
-6 0 -1 -7 10 -15z"/>
<path d="M6138 1562 c-43 -8 -78 -19 -78 -24 0 -12 58 -10 65 2 3 6 29 10 56
10 28 0 48 4 45 9 -4 5 0 12 6 14 23 10 -14 5 -94 -11z"/>
<path d="M6282 1523 c0 -29 -7 -62 -19 -83 -26 -46 -40 -130 -21 -130 14 0 38
44 38 70 0 9 4 20 8 26 17 18 36 125 26 142 -21 32 -32 23 -32 -25z"/>
<path d="M2568 1553 c7 -3 16 -2 19 1 4 3 -2 6 -13 5 -11 0 -14 -3 -6 -6z"/>
<path d="M4688 1462 c3 -59 0 -74 -21 -113 -14 -24 -28 -42 -31 -41 -3 2 -15
6 -26 9 -11 3 -20 9 -20 14 0 10 -31 12 -54 3 -22 -8 -20 -43 4 -79 l20 -30 1
30 c1 17 1 33 0 38 -2 15 21 6 44 -18 14 -13 25 -36 25 -51 0 -15 8 -34 18
-43 18 -17 42 -76 42 -104 0 -10 4 -25 10 -35 5 -9 16 -39 24 -67 19 -64 36
-115 47 -137 5 -10 9 -26 9 -36 0 -10 4 -22 9 -28 5 -5 11 -18 13 -29 1 -11 7
-23 12 -27 5 -3 10 -37 11 -75 2 -83 11 -117 42 -163 12 -19 23 -41 23 -48 0
-7 5 -10 11 -6 8 4 8 9 0 17 -6 6 -11 19 -11 29 0 10 -7 29 -15 42 -11 16 -16
51 -17 112 -1 49 -5 96 -9 104 -23 45 -49 112 -49 124 0 8 -4 18 -10 21 -5 3
-10 17 -10 31 0 13 -4 32 -9 42 -14 29 -31 87 -31 110 0 28 -30 103 -48 121
-11 11 -12 30 -7 80 4 36 11 68 16 69 10 4 13 161 3 186 -13 35 -20 12 -16
-52z"/>
<path d="M4240 1480 c0 -5 9 -10 21 -10 11 0 17 5 14 10 -3 6 -13 10 -21 10
-8 0 -14 -4 -14 -10z"/>
<path d="M5761 1404 c0 -11 3 -14 6 -6 3 7 2 16 -1 19 -3 4 -6 -2 -5 -13z"/>
<path d="M4416 1392 c-3 -5 7 -15 22 -23 15 -8 30 -18 34 -24 5 -6 11 -6 18 1
8 8 3 15 -19 24 -17 7 -31 16 -31 21 0 11 -17 12 -24 1z"/>
<path d="M5648 1288 c-53 -60 -47 -71 7 -15 25 26 45 49 45 52 0 14 -19 1 -52
-37z"/>
<path d="M6240 1270 c0 -16 23 -60 32 -60 4 0 8 -9 8 -20 0 -11 3 -20 8 -20 4
0 18 -25 32 -55 14 -30 28 -55 33 -55 14 0 7 50 -13 85 -11 20 -20 40 -20 46
0 6 -6 16 -12 23 -7 7 -22 25 -33 39 -20 27 -35 35 -35 17z"/>
<path d="M2395 1220 c-4 -6 24 -10 77 -9 57 1 75 4 58 9 -36 12 -128 12 -135
0z"/>
<path d="M2665 1200 c-3 -5 -1 -10 4 -10 6 0 11 5 11 10 0 6 -2 10 -4 10 -3 0
-8 -4 -11 -10z"/>
<path d="M7132 1190 c0 -14 2 -19 5 -12 2 6 2 18 0 25 -3 6 -5 1 -5 -13z"/>
<path d="M1162 1186 c9 -9 21 -16 27 -16 6 0 11 -4 11 -10 0 -5 7 -10 15 -10
8 0 15 5 15 10 0 6 -6 10 -14 10 -8 0 -16 4 -18 9 -1 4 -14 12 -28 16 -22 7
-23 6 -8 -9z"/>
<path d="M2325 1180 c3 -5 12 -7 20 -3 21 7 19 13 -6 13 -11 0 -18 -4 -14 -10z"/>
<path d="M2290 1158 c0 -4 7 -8 15 -8 8 0 15 4 15 8 0 5 -7 9 -15 9 -8 0 -15
-4 -15 -9z"/>
<path d="M5597 1159 c5 -5 27 -12 49 -14 21 -2 30 -2 19 1 -11 3 -27 8 -35 11
-28 11 -43 12 -33 2z"/>
<path d="M914 1135 c-39 -10 -99 -43 -92 -50 2 -2 31 3 63 12 64 16 214 14
238 -4 16 -14 77 -25 77 -15 0 16 -97 52 -141 52 -24 0 -58 4 -74 8 -17 4 -48
3 -71 -3z"/>
<path d="M1248 1143 c7 -3 16 -2 19 1 4 3 -2 6 -13 5 -11 0 -14 -3 -6 -6z"/>
<path d="M2225 1129 c-27 -10 -66 -19 -85 -20 -32 0 -33 -1 -12 -9 44 -18 152
11 152 41 0 5 -1 9 -2 8 -2 0 -25 -9 -53 -20z"/>
<path d="M7430 1115 c0 -14 4 -25 9 -25 4 0 6 11 3 25 -2 14 -6 25 -8 25 -2 0
-4 -11 -4 -25z"/>
<path d="M5688 1123 c6 -2 18 -2 25 0 6 3 1 5 -13 5 -14 0 -19 -2 -12 -5z"/>
<path d="M4533 1085 c-3 -9 -3 -18 -1 -21 3 -3 8 4 11 16 6 23 -1 27 -10 5z"/>
<path d="M7152 1070 c0 -14 2 -19 5 -12 2 6 2 18 0 25 -3 6 -5 1 -5 -13z"/>
<path d="M1262 1060 c4 -13 78 -40 111 -40 10 0 25 -7 33 -15 8 -8 24 -21 36
-29 19 -14 20 -19 10 -58 -6 -24 -10 -51 -10 -61 2 -29 15 -5 22 38 3 22 8 59
12 83 5 36 4 41 -10 36 -9 -4 -18 0 -22 9 -7 19 -50 34 -128 43 -46 5 -58 4
-54 -6z"/>
<path d="M778 1053 c7 -3 16 -2 19 1 4 3 -2 6 -13 5 -11 0 -14 -3 -6 -6z"/>
<path d="M744 1027 c-18 -21 -70 -57 -113 -80 -22 -12 -50 -30 -61 -39 -11
-10 -25 -18 -30 -18 -6 0 -10 -4 -10 -10 0 -5 -7 -10 -15 -10 -8 0 -15 -4 -15
-10 0 -5 -7 -10 -15 -10 -8 0 -15 -4 -15 -10 0 -5 -7 -10 -15 -10 -9 0 -34
-12 -57 -27 -22 -16 -48 -32 -57 -38 -9 -5 -18 -12 -21 -15 -3 -3 -26 -16 -52
-29 -27 -13 -48 -28 -48 -33 0 -4 -8 -8 -19 -8 -10 0 -24 -7 -31 -15 -7 -8
-19 -15 -26 -15 -14 0 -54 -19 -64 -31 -3 -3 -22 -13 -42 -22 -31 -15 -38 -23
-38 -47 0 -31 17 -39 38 -18 7 7 12 9 12 5 0 -5 11 3 25 17 14 14 37 29 50 32
14 3 25 9 25 13 0 3 15 12 33 20 17 8 34 17 37 20 3 3 27 16 53 29 26 12 50
29 53 37 4 8 12 15 20 15 8 0 14 5 14 10 0 6 4 10 10 10 11 0 107 61 161 103
20 15 39 27 44 27 4 0 15 8 24 18 9 10 31 25 49 33 18 8 35 22 38 31 3 9 13
20 23 23 23 7 75 65 59 65 -7 -1 -18 -6 -24 -13z"/>
<path d="M6200 1031 c23 -14 59 -17 62 -6 2 6 -15 11 -37 13 -28 1 -35 -1 -25
-7z"/>
<path d="M7437 1023 c-7 -14 5 -93 14 -93 5 0 9 -8 9 -17 1 -10 8 -29 16 -43
15 -24 15 -23 9 25 -3 27 -10 54 -15 59 -6 6 -10 22 -10 37 0 27 -14 47 -23
32z"/>
<path d="M5826 995 c2 -11 4 -30 4 -42 0 -13 6 -23 14 -23 8 0 17 -6 19 -12 3
-8 6 -7 6 4 1 9 -3 20 -9 23 -5 3 -10 15 -10 26 0 10 -4 19 -9 19 -5 0 -11 6
-14 13 -2 6 -3 3 -1 -8z"/>
<path d="M6000 1006 c0 -8 -5 -16 -12 -18 -6 -2 -8 -10 -4 -17 6 -9 11 -8 22
6 16 21 18 43 4 43 -5 0 -10 -6 -10 -14z"/>
<path d="M5971 944 c0 -11 3 -14 6 -6 3 7 2 16 -1 19 -3 4 -6 -2 -5 -13z"/>
<path d="M4331 884 c-25 -29 -26 -34 -6 -34 8 0 19 9 25 20 6 11 21 20 35 20
37 0 37 15 0 17 -24 1 -39 -5 -54 -23z"/>
<path d="M5903 853 c-18 -7 -16 -20 2 -20 8 0 15 6 15 14 0 7 -1 13 -2 12 -2
0 -9 -3 -15 -6z"/>
<path d="M4292 813 c-6 -12 -12 -34 -12 -48 0 -14 -4 -35 -10 -45 -5 -10 -7
-26 -4 -35 10 -25 24 2 24 47 0 20 5 38 11 40 6 2 9 17 7 33 -3 29 -3 30 -16
8z"/>
<path d="M1432 800 c0 -14 2 -19 5 -12 2 6 2 18 0 25 -3 6 -5 1 -5 -13z"/>
<path d="M4151 780 c-1 -8 6 -28 14 -44 8 -15 15 -32 15 -37 0 -5 9 -18 20
-29 11 -11 20 -29 20 -39 0 -11 5 -21 11 -23 9 -3 9 -9 0 -25 -6 -12 -11 -30
-11 -39 0 -35 22 3 35 60 13 54 7 75 -16 61 -12 -8 -38 23 -39 46 0 9 -7 23
-16 30 -9 7 -20 22 -24 34 -6 13 -9 15 -9 5z"/>
<path d="M1412 745 c0 -16 2 -22 5 -12 2 9 2 23 0 30 -3 6 -5 -1 -5 -18z"/>
<path d="M2647 608 c-2 -7 -1 -22 4 -33 6 -16 8 -14 8 13 1 33 -4 41 -12 20z"/>
<path d="M2652 498 c-1 -26 3 -50 8 -53 6 -4 8 -10 5 -15 -3 -5 -1 -11 5 -15
5 -3 10 -15 10 -26 0 -10 5 -19 10 -19 6 0 10 -9 10 -20 0 -11 4 -20 8 -20 5
0 14 -16 22 -35 8 -19 17 -35 22 -35 4 0 8 -11 8 -24 0 -14 5 -28 10 -31 6 -3
10 -15 10 -25 0 -10 5 -22 10 -25 12 -8 2 47 -10 55 -4 3 -11 25 -15 49 -7 43
-60 153 -77 159 -4 2 -8 17 -8 33 0 16 -4 29 -9 29 -6 0 -12 15 -14 33 -3 25
-4 22 -5 -15z"/>
<path d="M4217 403 c-4 -6 0 -18 7 -28 8 -11 16 -14 19 -8 4 6 0 18 -7 28 -8
11 -16 14 -19 8z"/>
<path d="M4910 401 c0 -5 5 -13 10 -16 6 -3 10 -2 10 4 0 5 -4 13 -10 16 -5 3
-10 2 -10 -4z"/>
<path d="M4895 322 c-6 -4 -15 -18 -21 -32 -7 -14 -23 -50 -37 -82 -14 -31
-31 -59 -36 -63 -15 -9 -14 -26 2 -22 7 1 13 -11 15 -30 2 -18 -1 -33 -6 -33
-5 0 -12 -14 -14 -30 -4 -24 -1 -30 14 -30 23 0 48 23 48 43 0 8 7 20 15 27
12 10 15 10 15 -4 0 -9 5 -16 10 -16 6 0 10 -11 10 -25 0 -19 5 -25 22 -25 17
0 19 3 10 12 -7 7 -12 19 -12 28 0 9 -10 36 -22 61 -24 48 -29 146 -8 159 6 4
10 21 8 38 -2 19 -7 29 -13 24z"/>
<path d="M751 213 c0 -32 -5 -59 -11 -61 -5 -2 -10 -17 -10 -32 0 -16 -4 -31
-9 -34 -5 -3 -11 -16 -14 -28 -2 -13 -8 -31 -12 -41 -6 -14 -2 -17 22 -17 24
0 31 6 41 33 7 18 12 43 12 55 0 12 5 22 10 22 14 0 13 133 -2 148 -21 21 -26
13 -27 -45z"/>
<path d="M4240 218 c0 -9 6 -19 13 -21 9 -4 9 -6 -1 -6 -7 -1 6 -20 28 -43 22
-24 63 -67 90 -97 28 -30 53 -51 56 -48 6 6 -56 83 -121 150 -17 18 -38 43
-48 57 -12 18 -17 20 -17 8z"/>
<path d="M2801 124 c0 -11 3 -14 6 -6 3 7 2 16 -1 19 -3 4 -6 -2 -5 -13z"/>
<path d="M2811 68 c1 -13 5 -34 9 -48 7 -20 8 -16 9 23 1 26 -3 47 -9 47 -5 0
-10 -10 -9 -22z"/>
<path d="M4520 24 c0 -24 1 -25 56 -18 68 8 127 30 104 38 -8 4 -35 3 -60 -2
-25 -5 -57 -5 -72 -1 -25 6 -28 5 -28 -17z"/>
</g>
</svg>
