<?xml version="1.0" standalone="no"?>
<!DOCTYPE svg PUBLIC "-//W3C//DTD SVG 20010904//EN"
 "http://www.w3.org/TR/2001/REC-SVG-20010904/DTD/svg10.dtd">
<svg version="1.0" xmlns="http://www.w3.org/2000/svg"
 width="640.000000pt" height="640.000000pt" viewBox="0 0 640.000000 640.000000"
 preserveAspectRatio="xMidYMid meet">
<metadata>
Created by potrace 1.14, written by Peter Selinger 2001-2017
</metadata>
<g transform="translate(0.000000,640.000000) scale(0.100000,-0.100000)"
fill="#000000" stroke="none">
<path d="M2855 5399 c4 -13 8 -28 9 -34 0 -5 10 -25 21 -44 19 -30 26 -34 73
-38 59 -5 63 2 33 51 -25 40 -72 75 -112 83 -29 6 -31 4 -24 -18z"/>
<path d="M4586 5296 c-45 -22 -64 -36 -56 -41 10 -6 10 -10 -2 -19 -25 -19
-29 -44 -7 -49 10 -3 19 -12 19 -20 0 -10 10 -15 34 -15 25 0 37 6 47 24 7 13
26 33 43 44 17 11 25 20 19 20 -23 0 -13 19 18 36 l32 16 -29 19 c-37 24 -37
25 -118 -15z"/>
<path d="M3345 4966 c-50 -36 5 -135 68 -122 16 3 38 6 48 6 25 0 24 16 -6 78
-23 47 -28 52 -58 52 -18 0 -41 -6 -52 -14z"/>
<path d="M4080 4951 c0 -5 -3 -17 -7 -27 -4 -12 -3 -15 5 -10 7 4 1 -9 -13
-30 -40 -59 -30 -83 42 -98 39 -9 68 5 88 44 22 43 18 65 -17 95 -24 20 -38
25 -60 21 -18 -3 -27 -2 -23 4 3 6 1 10 -4 10 -6 0 -11 -4 -11 -9z"/>
<path d="M3769 4565 c-1 -6 -2 -14 -4 -20 -1 -5 -3 -17 -3 -25 -2 -11 -16 -16
-50 -18 -42 -2 -52 -8 -101 -58 -52 -54 -53 -57 -47 -100 3 -24 15 -62 27 -85
19 -38 19 -42 4 -59 -9 -9 -15 -21 -14 -26 5 -31 -3 -43 -33 -46 -31 -3 -31
-4 -14 -21 10 -10 38 -23 62 -29 24 -7 55 -22 68 -33 31 -27 97 -31 131 -9 14
9 25 14 25 11 0 -11 78 21 109 44 41 30 45 48 20 76 -13 12 -19 23 -14 23 5 0
0 6 -10 14 -19 13 -19 15 -1 57 44 106 45 112 16 136 -11 10 -20 27 -20 39 0
26 -60 54 -115 54 -27 0 -35 4 -35 18 0 10 5 23 12 30 9 9 9 15 0 24 -7 7 -13
8 -13 3z"/>
<path d="M4185 4290 c4 -6 11 -8 16 -5 14 9 11 15 -7 15 -8 0 -12 -5 -9 -10z"/>
<path d="M4220 4286 c0 -2 7 -6 15 -10 8 -3 15 -1 15 4 0 6 -7 10 -15 10 -8 0
-15 -2 -15 -4z"/>
<path d="M4130 4257 c0 -8 8 -21 18 -30 15 -14 19 -14 37 0 20 15 20 15 -2 10
-15 -3 -23 1 -26 14 -6 22 -27 26 -27 6z"/>
<path d="M4183 4165 c0 -9 7 -15 16 -13 19 4 18 22 -2 26 -7 2 -14 -4 -14 -13z"/>
<path d="M4227 4074 c3 -7 9 -14 14 -14 14 0 10 17 -5 23 -10 4 -13 1 -9 -9z"/>
<path d="M4267 4063 c-12 -11 -8 -23 8 -23 8 0 15 7 15 15 0 16 -12 20 -23 8z"/>
<path d="M4279 4029 c-11 -7 -7 -15 20 -36 44 -36 72 -47 64 -27 -3 7 -9 14
-13 14 -5 0 -11 8 -14 18 -8 25 -40 42 -57 31z"/>
<path d="M4067 3994 c-9 -9 4 -35 14 -28 5 3 9 12 9 20 0 14 -12 19 -23 8z"/>
<path d="M4188 3978 c-11 -17 -13 -37 -8 -78 4 -30 6 -58 4 -61 -6 -10 -54 3
-55 15 -1 6 0 22 1 35 2 24 -14 41 -37 41 -9 0 -10 -7 -3 -24 6 -18 5 -26 -5
-30 -9 -3 -16 5 -20 25 -4 16 -13 29 -21 29 -11 0 -12 -4 -5 -18 13 -25 3 -62
-15 -55 -9 3 -14 -1 -14 -12 0 -9 -4 -13 -10 -10 -5 3 -10 2 -10 -4 0 -6 -7
-8 -15 -5 -11 5 -15 -1 -15 -20 0 -24 -13 -32 -44 -27 -5 1 -6 -5 -3 -12 4
-11 0 -13 -14 -10 -11 3 -19 0 -19 -6 0 -7 -4 -9 -10 -6 -5 3 -10 0 -10 -8 0
-7 -11 -20 -25 -27 -14 -7 -25 -17 -25 -22 0 -5 -8 -2 -17 7 -16 16 -17 16
-27 -6 -10 -24 -10 -24 -14 5 -4 29 -4 29 -15 6 -16 -31 -29 -30 -45 3 -12 25
-32 29 -32 6 0 -5 -9 -18 -19 -28 -20 -20 -20 -20 -27 2 -7 22 -7 22 -17 -3
l-11 -25 -4 28 c-3 23 -6 26 -18 16 -8 -6 -14 -19 -15 -28 0 -10 -2 -12 -6 -3
-2 6 -9 10 -14 6 -5 -3 -9 1 -9 8 0 10 -2 10 -9 -1 -11 -17 -34 -4 -27 15 4
10 0 14 -12 12 -12 -2 -16 3 -15 18 3 31 -24 26 -56 -12 -16 -18 -32 -30 -36
-26 -4 4 -5 -4 -3 -18 2 -14 -1 -25 -7 -25 -5 0 -9 5 -7 11 3 14 -25 27 -39
18 -5 -3 -9 -11 -9 -19 0 -7 -7 -15 -15 -19 -8 -3 -15 -10 -15 -15 0 -7 9 -7
26 0 15 5 29 7 32 4 6 -6 8 -4 -38 -34 -33 -21 -33 -22 -8 -17 23 5 26 3 21
-11 -6 -16 -4 -16 15 1 33 28 37 13 7 -23 -21 -24 -23 -31 -11 -31 9 0 16 -4
16 -8 0 -9 -44 -32 -60 -32 -19 0 -48 -33 -42 -48 4 -12 1 -14 -13 -9 -16 7
-16 5 -4 -9 8 -10 15 -12 17 -5 2 6 10 11 18 11 8 0 11 -6 7 -17 -5 -15 -3
-16 8 -5 7 6 20 12 28 12 11 0 10 -4 -4 -20 -18 -19 -17 -20 3 -20 12 0 22 6
22 14 0 18 87 89 100 81 5 -3 10 -1 10 4 0 6 5 11 11 11 6 0 9 -6 6 -14 -4
-10 0 -12 14 -9 31 8 22 -11 -28 -60 -40 -40 -44 -47 -26 -47 12 0 28 6 35 13
12 11 63 37 73 37 3 0 5 -7 5 -17 0 -14 2 -14 20 2 12 11 29 37 40 59 13 30
19 35 19 20 1 -12 8 -27 16 -34 8 -7 15 -18 15 -25 0 -8 5 -15 12 -17 7 -3 12
-20 12 -39 1 -22 6 -33 14 -32 8 2 12 -12 12 -45 0 -34 3 -43 10 -32 8 12 10
9 10 -12 0 -26 16 -46 27 -34 3 3 8 25 10 50 6 49 26 54 38 9 3 -15 13 -36 22
-47 15 -21 15 -21 9 4 -3 14 -6 30 -6 36 0 6 -9 21 -20 34 -11 13 -20 31 -20
41 0 10 -10 39 -22 64 -18 38 -20 49 -10 65 7 11 12 31 12 44 0 27 21 47 28
28 2 -7 7 -10 12 -7 4 3 10 -2 14 -10 3 -8 1 -15 -4 -15 -5 0 -9 -10 -7 -22 1
-14 -3 -22 -10 -21 -9 2 -9 -6 1 -35 8 -22 10 -48 5 -64 -8 -32 9 -50 23 -24
13 22 48 3 48 -27 0 -12 7 -31 15 -42 10 -12 13 -30 9 -52 -4 -21 -2 -33 5
-33 6 0 11 -7 11 -15 0 -8 4 -15 8 -15 5 0 8 27 7 60 -1 33 2 60 6 60 13 0 18
29 7 36 -7 4 -8 3 -4 -4 4 -7 3 -12 -2 -12 -21 0 -31 73 -12 85 5 3 12 -6 16
-20 6 -26 6 -26 25 -6 11 11 19 24 19 28 0 5 9 14 20 21 16 10 20 10 20 -2 0
-8 3 -23 6 -33 5 -15 4 -15 -4 -3 -17 23 -34 -32 -21 -67 5 -14 7 -39 4 -55
-5 -19 -1 -33 9 -44 15 -14 17 -13 28 13 11 28 14 37 16 61 1 6 9 12 18 12 10
0 14 -5 10 -15 -4 -13 -2 -13 14 -5 12 7 21 7 25 0 10 -17 25 -11 25 10 0 26
26 16 34 -14 7 -28 -6 -78 -22 -84 -9 -3 -11 4 -6 22 3 14 2 26 -3 26 -5 0
-10 -16 -11 -35 -2 -24 1 -34 10 -33 7 2 12 -3 10 -10 -1 -8 3 -12 10 -9 7 2
12 12 10 22 -2 10 1 14 7 11 6 -4 8 -21 6 -39 -3 -18 -2 -26 1 -18 7 16 34
-50 34 -85 0 -12 7 -27 15 -34 13 -11 15 -8 15 22 0 19 -4 38 -9 43 -5 6 -12
42 -14 80 -3 39 -8 82 -12 98 -6 24 -5 27 14 24 11 -2 23 -6 26 -9 4 -3 15 -4
26 -1 15 4 17 8 8 19 -15 19 -9 25 18 18 20 -6 47 -56 36 -67 -3 -3 4 -3 16 0
12 3 21 12 21 20 0 10 7 14 20 10 11 -3 22 -2 25 3 5 9 -18 20 -43 20 -9 0
-23 4 -31 9 -12 8 -11 12 4 28 18 17 18 18 0 22 -10 2 -23 -3 -29 -11 -7 -9
-23 -12 -45 -8 -28 4 -35 10 -38 33 -3 19 1 27 12 27 25 0 17 17 -15 32 -16 7
-30 16 -30 21 0 4 12 1 28 -6 47 -25 73 -30 67 -15 -4 9 3 14 17 15 13 1 24 7
26 13 2 5 10 10 18 10 8 0 14 4 14 9 0 5 19 16 41 25 23 9 39 19 36 23 -8 8
-108 -28 -131 -47 -15 -11 -17 -12 -11 -1 5 9 2 19 -10 28 -18 12 -18 13 2 13
12 0 28 3 36 6 14 5 13 8 -1 23 -9 10 -22 16 -28 14 -6 -2 -23 12 -38 32 -17
22 -34 34 -42 31 -8 -3 -14 0 -13 7 3 27 -2 36 -23 39 -18 2 -24 11 -26 37 -4
39 16 39 35 0 7 -14 21 -34 33 -44 20 -18 20 -18 21 11 1 23 3 24 6 7 3 -14 9
-20 19 -16 8 3 14 1 14 -5 0 -5 11 -8 25 -7 14 2 27 -1 31 -6 3 -5 19 -9 35
-9 23 0 29 -4 27 -17 -2 -11 3 -18 12 -18 8 0 15 7 15 15 0 8 7 21 15 28 8 8
9 11 3 7 -7 -3 -13 -1 -13 4 0 6 5 11 10 11 6 0 10 4 10 9 0 14 -35 23 -64 15
-22 -5 -25 -10 -20 -28 6 -18 5 -19 -9 -7 -9 7 -24 11 -32 7 -10 -3 -13 -2
-10 4 8 13 -31 77 -65 108 -14 12 -18 20 -9 17 9 -3 22 1 29 10 17 20 30 19
30 -4 0 -18 27 -37 38 -26 3 3 1 5 -3 5 -5 0 0 6 10 14 18 13 18 15 1 40 -9
15 -24 30 -32 33 -8 3 -14 13 -14 22 0 9 -12 34 -27 56 -29 43 -34 65 -18 78
6 5 2 6 -8 3 -11 -3 -20 0 -23 9 -8 21 -19 19 -36 -7z m38 -55 c21 -28 16 -39
-6 -15 -11 12 -20 24 -20 27 0 11 13 4 26 -12z m-102 -347 c14 -25 35 -48 46
-51 21 -7 28 -25 10 -25 -5 0 -10 4 -10 8 0 5 -6 9 -12 10 -38 3 -53 12 -74
47 -12 21 -21 42 -18 47 12 19 34 5 58 -36z m61 24 c3 -5 1 -10 -4 -10 -6 0
-11 5 -11 10 0 6 2 10 4 10 3 0 8 -4 11 -10z m-176 -55 c1 -17 -1 -17 -9 -5
-5 8 -9 26 -9 40 0 23 1 23 9 5 5 -11 9 -29 9 -40z m-247 3 c-7 -7 -12 -8 -12
-2 0 6 3 14 7 17 3 4 9 5 12 2 2 -3 -1 -11 -7 -17z m188 -40 c-1 -8 -6 -6 -15
6 -20 26 -19 42 0 22 8 -8 15 -21 15 -28z m132 20 c-7 -7 -12 -8 -12 -2 0 6 3
14 7 17 3 4 9 5 12 2 2 -3 -1 -11 -7 -17z m-222 -18 c5 0 12 -27 16 -61 5 -45
10 -59 20 -55 26 10 14 -13 -14 -27 l-29 -14 -25 56 c-27 60 -28 117 -2 107 8
-3 13 -2 13 2 -3 17 4 25 8 10 2 -10 8 -18 13 -18z m-425 10 c-3 -5 -16 -15
-28 -21 -19 -9 -19 -8 3 10 28 23 34 26 25 11z m585 -30 c0 -5 -6 -10 -14 -10
-8 0 -18 5 -21 10 -3 6 3 10 14 10 12 0 21 -4 21 -10z m50 0 c0 -5 -4 -10 -10
-10 -5 0 -10 5 -10 10 0 6 5 10 10 10 6 0 10 -4 10 -10z m197 4 c-3 -3 -12 -4
-19 -1 -8 3 -5 6 6 6 11 1 17 -2 13 -5z m-7 -35 c0 -5 -13 -9 -30 -9 -18 0
-30 5 -30 13 0 9 10 12 30 9 17 -2 30 -8 30 -13z m-280 -49 c0 -5 -5 -10 -11
-10 -5 0 -7 5 -4 10 3 6 8 10 11 10 2 0 4 -4 4 -10z m124 -15 c-4 -8 -10 -12
-15 -9 -14 8 -10 24 6 24 9 0 12 -6 9 -15z m18 -65 c3 -21 -2 -37 -16 -52 -20
-21 -21 -21 -24 -4 -2 11 2 23 10 27 8 5 13 21 12 38 -3 39 12 31 18 -9z m-60
-47 c-2 -7 -8 -13 -12 -13 -15 0 -21 18 -14 45 l6 26 13 -23 c6 -13 10 -29 7
-35z"/>
<path d="M3841 3404 c0 -11 3 -14 6 -6 3 7 2 16 -1 19 -3 4 -6 -2 -5 -13z"/>
<path d="M4316 3942 c-2 -4 4 -9 15 -9 11 -1 17 2 14 8 -7 11 -22 12 -29 1z"/>
<path d="M4140 3886 c0 -8 5 -18 10 -21 6 -3 10 1 10 9 0 8 -4 18 -10 21 -5 3
-10 -1 -10 -9z"/>
<path d="M3325 3760 c27 -12 35 -12 35 0 0 6 -12 10 -27 9 -25 0 -26 -1 -8 -9z"/>
<path d="M3345 3719 c-4 -6 -5 -13 -2 -16 7 -7 27 6 27 18 0 12 -17 12 -25 -2z"/>
<path d="M1360 3583 c0 -10 12 -29 27 -43 21 -20 25 -21 20 -7 -4 11 -10 30
-13 43 -7 28 -34 33 -34 7z"/>
<path d="M1485 3580 c-3 -5 1 -10 9 -10 9 0 16 5 16 10 0 6 -4 10 -9 10 -6 0
-13 -4 -16 -10z"/>
<path d="M4276 3555 c9 -22 54 -46 54 -27 0 15 -16 29 -37 36 -18 6 -22 4 -17
-9z"/>
<path d="M1491 3473 c-1 -42 -15 -65 -24 -41 -3 7 -6 3 -6 -9 -1 -17 3 -21 16
-16 11 4 14 3 9 -5 -11 -18 -35 -15 -63 8 -14 11 -29 17 -34 14 -5 -3 -16 -30
-25 -60 -8 -29 -19 -54 -24 -54 -4 0 -15 11 -24 25 -9 14 -13 25 -10 25 4 0
-1 9 -11 20 -13 14 -19 36 -19 70 0 48 -8 65 -19 38 -3 -11 0 -45 15 -153 3
-17 -4 -21 -34 -23 -35 -3 -38 -5 -38 -36 0 -17 -4 -36 -8 -41 -5 -6 -15 -29
-22 -52 -10 -32 -19 -43 -34 -44 -15 -1 -17 -3 -5 -6 26 -6 12 -45 -15 -41
-11 2 -20 9 -18 16 1 7 -9 12 -23 12 -14 0 -28 0 -32 0 -5 0 -8 -24 -8 -52 1
-41 7 -62 29 -95 16 -24 33 -43 38 -43 5 0 21 -11 36 -25 15 -14 34 -25 42
-26 10 0 11 -2 3 -6 -7 -2 -13 -11 -13 -19 0 -8 -4 -14 -9 -14 -18 0 -9 -55
12 -72 14 -11 17 -18 8 -18 -30 0 -56 -70 -31 -85 6 -3 10 -17 10 -31 0 -13 4
-24 9 -24 13 0 22 28 11 35 -10 6 -2 35 9 35 12 0 32 -65 21 -68 -7 -3 -7 -9
1 -18 10 -12 9 -13 -5 -8 -18 7 -21 -12 -6 -36 8 -12 10 -12 11 5 0 11 3 14 6
7 2 -6 9 -10 13 -7 5 3 15 -4 24 -16 11 -17 18 -20 28 -11 8 7 19 7 28 2 8 -5
18 -6 22 -4 4 3 8 -2 8 -11 0 -8 7 -18 15 -21 25 -10 17 -22 -11 -16 -19 3
-25 1 -20 -7 4 -6 13 -11 21 -11 7 0 17 -9 20 -20 3 -11 11 -20 17 -20 7 0 8
-13 5 -35 -3 -19 -4 -35 -2 -35 15 0 35 15 35 26 0 16 30 33 48 27 8 -3 12 5
12 25 0 42 29 96 61 114 3 1 13 -3 22 -11 20 -16 15 -81 -8 -114 -9 -12 -12
-31 -8 -50 5 -23 3 -28 -7 -22 -10 6 -12 4 -7 -7 3 -9 1 -20 -4 -25 -15 -15
21 -93 43 -93 10 0 18 5 18 11 0 5 5 7 10 4 6 -4 8 -10 5 -15 -6 -10 24 -50
37 -50 5 0 8 7 8 16 0 11 5 14 16 10 20 -8 78 49 68 66 -5 7 -2 9 8 5 11 -4
18 1 21 14 3 11 9 19 14 18 20 -3 25 2 13 16 -9 11 -9 15 -1 15 8 0 9 5 2 18
-13 25 -3 60 20 67 10 4 19 11 19 16 0 5 5 9 10 9 6 0 10 -7 10 -15 0 -9 6
-18 14 -21 11 -4 12 -13 6 -35 -9 -31 0 -72 19 -84 21 -12 11 -26 -10 -15 -11
7 -23 9 -27 6 -3 -3 0 -6 7 -6 8 0 11 -6 7 -16 -3 -8 -2 -12 3 -9 5 3 13 0 17
-6 7 -12 -15 -31 -28 -23 -5 3 -17 22 -27 42 l-19 37 1 -53 c0 -29 -5 -58 -11
-64 -15 -15 -16 -88 -1 -88 5 0 7 -4 4 -10 -9 -15 -25 -12 -25 4 0 7 -6 19
-14 25 -27 22 -74 -67 -49 -92 3 -4 21 5 40 19 32 24 33 24 33 5 0 -27 12 -27
28 0 7 12 16 18 19 15 4 -3 -2 -15 -12 -27 -15 -16 -16 -22 -6 -28 9 -6 10
-11 2 -15 -19 -12 -12 -29 9 -23 14 4 20 0 21 -11 1 -10 4 -1 8 18 4 26 11 35
26 36 36 2 38 4 24 21 -12 15 -12 16 4 10 9 -3 17 -2 17 3 0 20 16 9 29 -21
13 -30 12 -32 -15 -55 -24 -20 -27 -25 -14 -34 12 -8 11 -10 -7 -10 -24 0 -31
-14 -12 -25 5 -4 19 1 30 11 18 16 19 16 19 -10 0 -26 1 -26 25 -10 16 11 34
14 55 9 34 -8 37 -13 13 -30 -14 -11 -15 -15 -4 -28 7 -9 10 -20 7 -25 -3 -5
13 -9 35 -10 22 -1 48 -6 56 -11 11 -6 23 -3 36 10 23 21 36 17 18 -5 -18 -21
3 -28 25 -8 28 26 58 36 50 17 -10 -26 10 -17 53 25 22 22 43 40 46 40 3 0 4
-11 3 -25 -1 -14 -8 -25 -15 -25 -7 0 -27 -13 -45 -28 -18 -15 -45 -33 -60
-40 -32 -13 -38 -33 -9 -25 16 4 19 1 14 -16 -3 -12 -10 -21 -15 -21 -5 0 -6
-5 -3 -11 9 -13 45 18 45 38 0 8 6 13 13 10 6 -2 17 5 23 16 10 17 12 17 17 3
4 -9 -3 -25 -17 -39 -12 -12 -20 -29 -18 -36 3 -10 0 -12 -12 -8 -11 4 -16 1
-16 -10 0 -13 -2 -14 -17 -2 -13 11 -17 11 -20 2 -3 -7 -11 -13 -18 -13 -17 0
-62 -37 -54 -44 3 -3 16 3 29 14 26 23 30 23 64 10 21 -8 26 -6 26 6 0 8 5 12
10 9 17 -11 11 -19 -31 -43 -22 -13 -38 -26 -35 -29 3 -4 0 -13 -8 -22 -12
-14 -12 -18 1 -30 14 -12 15 -12 11 0 -8 21 10 49 32 49 10 0 22 5 25 10 10
16 38 12 32 -4 -4 -11 -1 -13 10 -9 12 5 14 1 8 -15 -8 -26 -2 -27 30 -6 34
22 79 15 83 -14 5 -31 -12 -49 -54 -57 -27 -5 -41 -2 -55 11 -15 13 -22 15
-31 6 -9 -9 -9 -12 2 -12 7 0 10 -3 6 -7 -4 -5 -11 -8 -15 -8 -16 0 -41 -34
-35 -48 3 -9 0 -26 -7 -38 -12 -23 -12 -23 14 -6 54 35 65 11 16 -34 -32 -30
-34 -54 -3 -28 16 13 17 11 10 -15 -7 -27 -6 -28 11 -15 10 7 29 24 42 36 26
25 41 29 41 12 0 -8 5 -7 15 1 13 11 14 10 8 -6 -4 -10 -15 -25 -24 -32 -30
-21 -13 -42 24 -31 44 12 47 12 47 -11 0 -24 9 -25 36 -5 26 20 44 19 44 -2 0
-14 2 -15 9 -4 11 18 31 5 31 -20 0 -10 3 -19 8 -19 8 0 81 72 112 110 16 20
19 21 13 5 -5 -15 2 -12 33 14 43 39 55 60 79 143 10 39 21 58 31 58 11 0 13
-6 9 -20 -4 -11 -2 -20 4 -20 6 0 11 7 11 16 0 8 5 12 10 9 6 -3 10 -1 10 5 0
6 4 9 8 6 5 -3 8 3 8 12 0 57 5 72 22 72 14 0 14 2 3 9 -12 8 -12 12 -2 25 8
10 11 27 7 43 -4 18 -3 23 2 15 7 -10 13 -5 23 20 17 41 20 60 8 52 -22 -13
-6 27 31 76 31 41 40 63 41 94 0 23 2 51 5 64 3 15 0 21 -7 17 -16 -10 -28
-49 -18 -61 8 -10 -28 -81 -37 -71 -3 2 0 25 6 51 6 26 8 51 5 56 -3 4 0 10 5
12 14 4 30 72 21 87 -7 11 -22 -11 -34 -49 -3 -8 -6 0 -6 18 -1 17 3 32 7 32
5 0 14 18 21 40 11 37 31 63 31 41 0 -6 5 -11 10 -11 6 0 10 9 10 21 0 15 -4
19 -16 15 -12 -5 -15 -2 -10 10 3 8 6 34 6 57 0 27 3 37 9 29 6 -10 10 -8 14
10 12 44 8 53 -13 30 -12 -12 -25 -22 -29 -22 -9 0 -5 103 4 128 7 18 -20 68
-41 76 -10 4 -14 13 -11 26 3 11 1 20 -3 20 -20 0 -40 -13 -40 -26 0 -8 -4
-14 -10 -14 -5 0 -10 5 -10 10 0 14 -28 12 -33 -2 -3 -10 -12 -9 -35 5 -36 21
-53 6 -27 -23 17 -19 15 -50 -4 -50 -10 0 -12 17 -11 97 1 46 -1 52 -20 50
-11 -1 -20 -8 -20 -15 0 -9 -7 -5 -20 9 -15 19 -19 21 -20 7 0 -9 7 -23 15
-32 14 -13 13 -16 -6 -30 -12 -8 -18 -19 -14 -25 3 -6 2 -11 -3 -11 -6 0 -13
11 -16 25 -4 14 -13 25 -21 25 -8 0 -15 5 -15 10 0 6 7 10 15 10 8 0 15 3 16
8 4 52 12 79 24 88 8 6 15 19 15 28 0 9 6 16 13 17 6 0 1 4 -11 10 -16 6 -30
5 -40 -2 -15 -9 -14 -10 5 -6 15 3 20 1 16 -9 -3 -8 -16 -14 -29 -14 -13 0
-24 -5 -24 -11 0 -20 -27 -37 -52 -32 -14 3 -45 22 -69 44 -24 21 -48 39 -54
39 -5 0 -4 -4 4 -9 10 -7 10 -10 1 -16 -7 -4 -16 -1 -21 6 -13 20 -11 1 2 -23
8 -15 8 -22 -1 -28 -10 -6 -8 -15 6 -39 l18 -31 -29 -30 c-33 -34 -28 -58 16
-72 22 -7 22 -7 -4 -4 -24 3 -27 0 -22 -18 5 -20 4 -19 -6 2 -7 12 -21 22 -33
22 -16 0 -18 2 -7 9 12 8 11 12 -3 27 -14 13 -15 19 -4 25 10 7 9 9 -4 9 -10
0 -18 5 -18 12 0 9 -3 8 -12 -1 -10 -10 -10 -15 -1 -18 7 -2 9 -11 6 -19 -8
-21 -23 -17 -23 6 0 26 -8 25 -30 -2 l-18 -23 -7 28 c-8 31 -32 32 -27 1 3
-18 3 -18 -14 -2 -13 13 -15 20 -6 30 6 8 15 25 21 40 9 24 8 26 -14 24 -19
-3 -24 3 -30 28 -4 17 -9 25 -12 19 -7 -18 -23 -16 -23 2 0 8 -4 15 -10 15 -5
0 -10 6 -10 13 0 8 -11 24 -25 37 -19 17 -22 26 -13 31 7 5 0 7 -17 5 -17 -2
-29 -9 -28 -15 2 -6 -9 -11 -24 -11 -25 0 -26 -1 -9 -19 10 -11 16 -26 13 -33
-4 -10 -6 -10 -6 0 -2 20 -18 13 -25 -10 -7 -29 -54 -52 -73 -37 -10 9 -13 8
-13 -5 0 -23 -21 -20 -27 5 -4 16 -8 17 -14 7 -7 -10 -9 -10 -9 3 0 21 82 107
98 102 7 -3 12 4 12 17 0 11 7 32 16 45 9 13 13 29 10 34 -4 5 0 29 9 53 8 24
15 48 15 53 0 6 -21 33 -47 60 -25 28 -43 42 -40 32 5 -14 2 -17 -11 -15 -9 1
-23 -1 -30 -6 -16 -10 -62 19 -62 40 0 11 4 13 16 6 9 -5 26 -7 38 -5 23 5 23
5 7 61 -8 32 -19 59 -23 60 -4 2 -8 8 -8 13 0 6 4 8 9 4 5 -3 12 -1 16 5 3 6
-2 13 -12 17 -10 4 -33 22 -52 40 -18 18 -37 30 -41 28 -4 -3 -13 9 -20 25
-17 40 -37 57 -52 42 -17 -17 -33 -15 -19 2 9 11 4 18 -24 35 -32 18 -35 19
-36 3 0 -10 -3 -12 -6 -4 -6 15 -30 16 -35 1 -3 -8 -10 -6 -20 5 -20 19 -64
37 -72 29 -3 -4 -6 -15 -6 -25 0 -10 -4 -18 -10 -18 -10 0 -14 15 -10 35 1 6
-2 6 -6 2 -5 -5 -14 7 -20 25 l-12 33 -1 -42z m46 -85 c-3 -8 -6 -5 -6 6 -1
11 2 17 5 13 3 -3 4 -12 1 -19z m285 -160 c-7 -7 -12 -8 -12 -2 0 14 12 26 19
19 2 -3 -1 -11 -7 -17z m-375 -85 c-14 -14 -19 -15 -29 -4 -11 10 -9 15 6 27
27 20 47 0 23 -23z m153 27 c0 -5 -2 -10 -4 -10 -3 0 -8 5 -11 10 -3 6 -1 10
4 10 6 0 11 -4 11 -10z m-375 -60 c3 -5 1 -10 -4 -10 -6 0 -11 5 -11 10 0 6 2
10 4 10 3 0 8 -4 11 -10z m505 -36 c0 -8 -9 -14 -20 -14 -22 0 -26 10 -8 28
13 13 28 7 28 -14z m-75 -65 c-10 -15 -25 -10 -19 6 4 8 10 12 15 9 5 -3 7
-10 4 -15z m-35 2 c0 -5 -9 -11 -20 -14 -22 -6 -28 8 -7 16 19 8 27 8 27 -2z
m-310 -171 c0 -5 -5 -10 -11 -10 -5 0 -7 5 -4 10 3 6 8 10 11 10 2 0 4 -4 4
-10z m-75 -41 c-10 -15 -25 -10 -19 6 4 8 10 12 15 9 5 -3 7 -10 4 -15z m482
-99 c2 -25 -32 -48 -69 -48 -16 0 -28 2 -28 5 0 2 12 17 28 33 32 35 67 39 69
10z m180 -72 c-3 -8 -6 -5 -6 6 -1 11 2 17 5 13 3 -3 4 -12 1 -19z m793 12 c0
-5 -2 -10 -4 -10 -3 0 -8 5 -11 10 -3 6 -1 10 4 10 6 0 11 -4 11 -10z m-1045
-10 c-3 -5 -1 -10 4 -10 20 0 11 -28 -10 -33 -12 -3 -18 -10 -15 -15 3 -6 -8
-15 -26 -21 -24 -9 -34 -8 -40 1 -12 20 -10 22 27 42 19 11 35 25 35 33 0 7 7
13 16 13 8 0 12 -4 9 -10z m325 -11 c0 -5 -4 -9 -10 -9 -5 0 -10 7 -10 16 0 8
5 12 10 9 6 -3 10 -10 10 -16z m624 -45 c5 -14 4 -15 -9 -4 -17 14 -19 20 -6
20 5 0 12 -7 15 -16z m46 -5 c0 -6 -4 -7 -10 -4 -5 3 -10 11 -10 16 0 6 5 7
10 4 6 -3 10 -11 10 -16z m-733 -21 c-3 -8 -6 -5 -6 6 -1 11 2 17 5 13 3 -3 4
-12 1 -19z m-50 -40 c-3 -8 -6 -5 -6 6 -1 11 2 17 5 13 3 -3 4 -12 1 -19z
m137 -29 c3 -17 2 -38 -4 -47 -7 -13 -9 -8 -10 21 0 20 -4 37 -10 37 -5 0 -7
7 -4 15 9 21 20 10 28 -26z m353 35 c-3 -3 -12 -4 -19 -1 -8 3 -5 6 6 6 11 1
17 -2 13 -5z m434 -34 c5 -3 4 -19 0 -35 -5 -17 -10 -25 -10 -18 -1 7 -10 21
-22 31 -19 19 -19 20 -2 37 14 14 18 15 22 4 2 -8 8 -16 12 -19z m199 -35 c8
0 16 -8 18 -18 4 -21 -27 -35 -38 -16 -5 7 -13 10 -17 5 -4 -5 -2 -11 5 -13 6
-3 12 -11 12 -18 0 -8 8 -18 17 -24 10 -5 14 -13 10 -17 -4 -4 -22 7 -40 26
-26 26 -32 39 -29 62 3 16 11 32 18 35 8 3 15 13 15 22 1 9 4 3 8 -14 3 -17
12 -30 21 -30z m-620 31 c0 -8 -7 -16 -15 -20 -18 -6 -45 2 -45 15 0 4 6 6 14
3 8 -3 17 -1 21 5 9 16 25 14 25 -3z m140 -57 c0 -5 -9 -9 -20 -9 -22 0 -27
16 -7 23 15 5 27 -1 27 -14z m-603 -31 c-3 -8 -6 -5 -6 6 -1 11 2 17 5 13 3
-3 4 -12 1 -19z m793 7 c10 -12 10 -15 -3 -15 -8 0 -20 7 -27 15 -10 12 -10
15 3 15 8 0 20 -7 27 -15z m-529 -52 c-8 -15 -10 -15 -11 -2 0 17 10 32 18 25
2 -3 -1 -13 -7 -23z m358 -2 c-7 -11 -19 -16 -31 -13 -34 8 -17 27 30 31 9 1
10 -3 1 -18z m416 -1 c3 -5 2 -10 -4 -10 -5 0 -13 5 -16 10 -3 6 -2 10 4 10 5
0 13 -4 16 -10z m-79 -15 c-3 -20 -16 -31 -16 -13 0 13 8 28 16 28 1 0 1 -7 0
-15z m-459 -37 c-3 -8 -6 -5 -6 6 -1 11 2 17 5 13 3 -3 4 -12 1 -19z m616 -3
c-3 -8 -9 -15 -14 -15 -10 0 -12 24 -3 33 11 11 24 -3 17 -18z m-583 5 c0 -5
-4 -10 -10 -10 -5 0 -10 5 -10 10 0 6 5 10 10 10 6 0 10 -4 10 -10z m-20 -66
c0 -8 -7 -14 -15 -14 -15 0 -21 21 -9 33 10 9 24 -2 24 -19z m578 -12 c2 -7
-6 -12 -17 -12 -21 0 -27 11 -14 24 9 9 26 2 31 -12z m-523 -9 c-4 -10 -8 -24
-8 -30 0 -7 -4 -13 -8 -13 -15 0 -20 20 -9 40 13 25 35 27 25 3z m180 -4 c4
-11 4 -23 0 -27 -7 -7 -25 17 -25 36 0 20 18 14 25 -9z m387 -8 c-6 -3 -14
-20 -19 -36 -8 -29 -9 -30 -25 -13 -10 10 -14 18 -8 18 5 0 7 6 4 14 -3 9 5
20 23 29 18 10 29 12 32 5 2 -6 -1 -13 -7 -17z m-1146 -18 c-10 -10 -19 5 -10
18 6 11 8 11 12 0 2 -7 1 -15 -2 -18z m664 7 c0 -11 -4 -20 -10 -20 -5 0 -10
9 -10 20 0 11 5 20 10 20 6 0 10 -9 10 -20z m-511 -62 c-8 -14 -14 -18 -17
-10 -4 13 17 46 25 38 3 -2 -1 -15 -8 -28z m441 22 c0 -5 -5 -10 -11 -10 -5 0
-7 5 -4 10 3 6 8 10 11 10 2 0 4 -4 4 -10z m-660 -30 c0 -5 -4 -10 -10 -10 -5
0 -10 5 -10 10 0 6 5 10 10 10 6 0 10 -4 10 -10z m100 -9 c0 -6 -4 -13 -10
-16 -5 -3 -10 1 -10 9 0 9 5 16 10 16 6 0 10 -4 10 -9z m300 5 c0 -11 -19 -15
-25 -6 -3 5 1 10 9 10 9 0 16 -2 16 -4z m97 -18 c-3 -8 -6 -5 -6 6 -1 11 2 17
5 13 3 -3 4 -12 1 -19z m588 -75 c-9 -26 -25 -12 -21 20 7 60 8 62 17 27 4
-19 6 -41 4 -47z m-875 37 c0 -5 -2 -10 -4 -10 -3 0 -8 5 -11 10 -3 6 -1 10 4
10 6 0 11 -4 11 -10z m240 -24 c0 -3 -6 -6 -13 -6 -8 0 -22 -9 -32 -20 -14
-15 -21 -17 -26 -8 -6 9 -13 9 -34 0 -35 -16 -41 -15 -41 9 0 18 5 19 37 14
29 -5 40 -2 59 18 20 20 26 22 37 12 7 -8 13 -16 13 -19z m190 -10 c0 -16 -18
-31 -27 -22 -8 8 5 36 17 36 5 0 10 -6 10 -14z m-160 -19 c0 -5 -9 -11 -20
-14 -10 -3 -22 -14 -25 -24 -8 -23 -23 -25 -31 -4 -4 9 3 23 16 33 23 19 60
24 60 9z m580 -43 c0 -8 -5 -12 -10 -9 -6 4 -8 11 -5 16 9 14 15 11 15 -7z
m-446 -11 c3 -10 9 -25 12 -33 5 -13 4 -13 -6 0 -9 11 -13 12 -17 3 -7 -19
-53 -16 -53 2 0 38 52 61 64 28z m-424 -7 c0 -2 -8 -10 -17 -17 -16 -13 -17
-12 -4 4 13 16 21 21 21 13z m153 -3 c11 -10 -24 -43 -45 -43 -19 0 -22 8 -12
34 6 16 45 22 57 9z m67 -59 c0 -10 -44 -43 -57 -44 -20 0 -15 17 9 34 22 16
48 21 48 10z m126 -90 c-9 -9 -20 -14 -23 -10 -4 3 2 13 13 20 25 18 31 12 10
-10z m114 6 c0 -5 -4 -10 -10 -10 -5 0 -10 -7 -10 -16 0 -8 -4 -12 -10 -9 -6
4 -5 13 3 25 13 21 27 26 27 10z m148 -2 c-2 -6 -10 -14 -16 -16 -7 -2 -10 2
-6 12 7 18 28 22 22 4z m-68 -12 c0 -16 -18 -31 -27 -22 -8 8 5 36 17 36 5 0
10 -6 10 -14z m-147 -51 c-3 -9 -8 -14 -10 -11 -3 3 -2 9 2 15 9 16 15 13 8
-4z m-33 -55 c-6 -11 -15 -20 -20 -20 -14 0 -12 6 6 24 21 22 27 20 14 -4z
m111 -23 c-16 -16 -25 -1 -10 16 8 8 16 11 18 5 2 -5 -2 -15 -8 -21z m-51 -15
c0 -10 -38 -42 -49 -42 -5 0 -11 -6 -14 -12 -2 -8 -8 -9 -13 -4 -5 5 -3 11 6
14 8 3 23 16 35 28 20 24 35 31 35 16z m457 -69 c-3 -10 -5 -4 -5 12 0 17 2
24 5 18 2 -7 2 -21 0 -30z m-233 -8 c3 -8 1 -28 -5 -43 l-11 -27 -9 24 c-10
25 -3 61 11 61 4 0 10 -7 14 -15z m-144 -54 c0 -6 -4 -13 -10 -16 -5 -3 -10 1
-10 9 0 9 5 16 10 16 6 0 10 -4 10 -9z m-95 -151 c-3 -5 -13 -10 -22 -10 -9 0
-27 -10 -40 -22 -13 -12 -26 -19 -29 -16 -7 8 66 58 84 58 7 0 10 -4 7 -10z
m266 -53 c-6 -15 -15 -27 -21 -27 -9 0 1 37 17 63 12 19 14 -8 4 -36z"/>
<path d="M3005 3495 c-26 -12 -27 -13 -8 -14 12 -1 25 -5 28 -11 8 -12 16 -12
34 -1 10 7 11 13 2 27 -10 18 -10 18 -11 -1 -1 -17 -2 -17 -8 -3 -6 14 -11 15
-37 3z"/>
<path d="M3075 3490 c3 -5 8 -10 11 -10 2 0 4 5 4 10 0 6 -5 10 -11 10 -5 0
-7 -4 -4 -10z"/>
<path d="M4368 3406 c-10 -7 -15 -16 -11 -20 12 -11 -19 -26 -54 -26 l-33 0
20 -20 c20 -20 87 -29 75 -11 -7 12 22 41 40 41 9 0 12 6 9 15 -4 10 0 15 15
15 12 0 21 5 21 10 0 15 -62 12 -82 -4z"/>
<path d="M3547 3366 c-4 -9 -13 -16 -22 -16 -8 0 -15 -7 -15 -16 0 -8 4 -13 9
-10 15 10 0 -31 -19 -52 -18 -19 -17 -72 2 -72 5 0 4 -8 -2 -19 -5 -11 -10
-34 -10 -51 0 -29 1 -30 16 -15 10 10 17 34 17 65 1 34 5 50 14 50 8 0 13 13
13 37 0 29 3 34 12 25 19 -19 29 -14 22 12 -3 13 -1 34 6 45 6 12 7 21 1 21
-5 0 -16 3 -24 6 -8 3 -17 -2 -20 -10z"/>
<path d="M3490 3300 c-9 -16 -8 -18 5 -14 8 4 15 12 15 20 0 20 -7 17 -20 -6z"/>
<path d="M4445 3310 c-10 -17 5 -33 19 -21 7 6 16 8 19 4 4 -3 7 -3 7 0 0 13
-39 27 -45 17z"/>
<path d="M3370 3300 c-8 -5 -12 -12 -9 -15 4 -3 12 1 19 10 14 17 11 19 -10 5z"/>
<path d="M3936 3268 c-10 -47 -14 -107 -8 -106 4 1 15 -2 25 -7 27 -11 30 -1
7 28 -16 20 -19 34 -14 66 7 42 -2 58 -10 19z"/>
<path d="M3215 3217 c-26 -30 -27 -39 -2 -21 26 18 35 34 20 34 -5 -1 -13 -6
-18 -13z"/>
<path d="M4330 3168 c0 -7 7 -21 14 -31 10 -13 15 -15 19 -5 9 26 19 -2 39
-104 11 -57 29 -118 41 -137 26 -43 34 -24 13 29 -9 22 -12 40 -6 40 9 0 -23
104 -39 124 -4 6 -11 23 -15 38 -3 15 -15 30 -26 33 -11 3 -20 11 -20 16 0 5
-4 9 -10 9 -5 0 -10 -6 -10 -12z"/>
<path d="M3797 3163 c-4 -3 -7 -11 -7 -17 0 -6 5 -5 12 2 6 6 9 14 7 17 -3 3
-9 2 -12 -2z"/>
<path d="M4030 3149 c-13 -24 -4 -41 10 -19 10 16 13 40 5 40 -2 0 -9 -9 -15
-21z"/>
<path d="M4596 3163 c-16 -3 -35 -11 -43 -19 -14 -13 -33 -18 -60 -15 -17 2
-16 -11 2 -35 14 -18 14 -18 15 0 0 15 5 17 30 13 17 -4 30 -3 30 2 0 4 14 6
30 3 24 -3 29 -1 25 11 -4 8 1 17 10 21 15 5 12 28 -3 25 -4 -1 -20 -4 -36 -6z"/>
<path d="M3734 3112 c2 -18 6 -36 10 -39 10 -10 7 41 -4 57 -7 11 -9 6 -6 -18z"/>
<path d="M3419 3091 c-15 -14 -30 -33 -34 -41 -5 -8 9 2 30 23 21 20 36 39 34
41 -2 2 -16 -8 -30 -23z"/>
<path d="M3587 3083 c-4 -3 -7 -16 -6 -27 0 -19 1 -19 10 3 10 24 8 36 -4 24z"/>
<path d="M3485 3060 c3 -5 8 -10 11 -10 2 0 4 5 4 10 0 6 -5 10 -11 10 -5 0
-7 -4 -4 -10z"/>
<path d="M3732 3040 c0 -14 2 -19 5 -12 2 6 2 18 0 25 -3 6 -5 1 -5 -13z"/>
<path d="M3490 2995 c0 -8 5 -15 10 -15 6 0 10 7 10 15 0 8 -4 15 -10 15 -5 0
-10 -7 -10 -15z"/>
<path d="M3861 2994 c0 -11 3 -14 6 -6 3 7 2 16 -1 19 -3 4 -6 -2 -5 -13z"/>
<path d="M3296 2979 c-23 -27 -15 -35 9 -9 10 11 16 22 14 25 -3 2 -13 -5 -23
-16z"/>
<path d="M3581 2963 c0 -25 1 -26 9 -8 12 27 12 35 0 35 -5 0 -10 -12 -9 -27z"/>
<path d="M1040 2971 c0 -5 5 -13 10 -16 6 -3 10 -2 10 4 0 5 -4 13 -10 16 -5
3 -10 2 -10 -4z"/>
<path d="M3952 2955 c-6 -14 -7 -25 -2 -25 9 0 25 39 18 46 -3 2 -10 -7 -16
-21z"/>
<path d="M4155 2938 c-12 -29 -11 -57 2 -44 7 6 22 76 16 76 -2 0 -10 -15 -18
-32z"/>
<path d="M4280 2942 c0 -18 4 -32 9 -32 5 0 8 11 7 25 -4 38 -16 43 -16 7z"/>
<path d="M4225 2940 c-3 -5 -1 -10 4 -10 6 0 11 5 11 10 0 6 -2 10 -4 10 -3 0
-8 -4 -11 -10z"/>
<path d="M4240 2903 c0 -7 5 -15 10 -18 6 -4 7 -12 3 -18 -4 -7 -6 -20 -5 -30
2 -10 -2 -25 -9 -33 -10 -12 -10 -15 2 -12 27 6 41 28 34 55 -7 30 -35 74 -35
56z"/>
<path d="M4011 2874 c0 -11 3 -14 6 -6 3 7 2 16 -1 19 -3 4 -6 -2 -5 -13z"/>
<path d="M4165 2879 c-4 -6 -5 -12 -2 -15 2 -3 7 2 10 11 7 17 1 20 -8 4z"/>
<path d="M4505 2860 c3 -5 11 -10 16 -10 6 0 7 5 4 10 -3 6 -11 10 -16 10 -6
0 -7 -4 -4 -10z"/>
<path d="M3951 2834 c0 -11 3 -14 6 -6 3 7 2 16 -1 19 -3 4 -6 -2 -5 -13z"/>
<path d="M4455 2829 c-9 -14 3 -88 19 -118 13 -23 13 -23 19 -2 3 11 1 19 -4
15 -5 -3 -9 22 -9 55 0 57 -10 76 -25 50z"/>
<path d="M4620 2823 c-8 -13 -13 -14 -16 -5 -3 6 -18 12 -32 11 -16 0 -21 -3
-12 -6 8 -3 18 -11 22 -17 10 -15 40 -14 57 2 9 9 10 17 3 24 -7 7 -14 4 -22
-9z"/>
<path d="M4133 2819 c-13 -5 -23 -15 -23 -23 0 -24 14 -25 39 -1 26 25 18 37
-16 24z"/>
<path d="M3240 2769 c0 -5 5 -7 10 -4 6 3 10 8 10 11 0 2 -4 4 -10 4 -5 0 -10
-5 -10 -11z"/>
<path d="M4295 2736 c2 -60 13 -69 21 -17 4 22 10 41 15 41 5 0 9 5 9 11 0 8
-4 8 -13 0 -9 -7 -17 -7 -24 0 -7 7 -9 -4 -8 -35z"/>
<path d="M4370 2773 c0 -4 5 -15 10 -23 8 -13 10 -13 10 2 0 9 -4 20 -10 23
-5 3 -10 3 -10 -2z"/>
<path d="M4250 2745 c0 -14 4 -25 9 -25 12 0 23 29 15 41 -10 18 -24 9 -24
-16z"/>
<path d="M3507 2743 c-10 -9 -9 -23 2 -23 5 0 11 7 15 15 5 15 -5 20 -17 8z"/>
<path d="M1093 2705 c0 -22 2 -30 4 -17 2 12 2 30 0 40 -3 9 -5 -1 -4 -23z"/>
<path d="M4005 2689 c-4 -6 -5 -12 -2 -15 2 -3 7 2 10 11 7 17 1 20 -8 4z"/>
<path d="M4250 2679 c0 -5 5 -7 10 -4 6 3 10 8 10 11 0 2 -4 4 -10 4 -5 0 -10
-5 -10 -11z"/>
<path d="M2434 2665 c-18 -15 -18 -15 5 -13 14 2 26 9 29 16 5 17 -10 15 -34
-3z"/>
<path d="M4162 2664 c-12 -8 -22 -21 -22 -28 0 -8 -9 -16 -21 -19 -18 -5 -19
-8 -7 -27 10 -16 14 -17 16 -5 2 8 10 15 18 15 8 0 14 9 14 21 0 11 5 17 10
14 6 -3 10 2 10 12 0 15 2 16 10 3 5 -8 12 -11 16 -7 4 4 1 14 -7 22 -13 13
-17 13 -37 -1z"/>
<path d="M1103 2655 c-8 -8 -7 -18 4 -36 l14 -24 -5 30 c-4 28 -3 28 10 10 13
-18 14 -18 14 6 0 27 -18 34 -37 14z"/>
<path d="M2862 2643 c-24 -29 -29 -49 -11 -37 6 3 16 0 21 -7 7 -10 8 -6 4 14
-4 15 -3 27 2 27 5 0 9 7 9 15 0 19 0 20 -25 -12z"/>
<path d="M4220 2650 c0 -5 7 -10 15 -10 8 0 15 5 15 10 0 6 -7 10 -15 10 -8 0
-15 -4 -15 -10z"/>
<path d="M4701 2641 c-11 -7 -9 -10 8 -16 25 -8 36 -2 26 14 -8 13 -15 14 -34
2z"/>
<path d="M2957 2623 c-4 -3 -7 -11 -7 -17 0 -6 5 -5 12 2 6 6 9 14 7 17 -3 3
-9 2 -12 -2z"/>
<path d="M4480 2610 c0 -11 4 -20 9 -20 5 0 7 9 4 20 -3 11 -7 20 -9 20 -2 0
-4 -9 -4 -20z"/>
<path d="M3045 2610 c3 -5 8 -10 11 -10 2 0 4 5 4 10 0 6 -5 10 -11 10 -5 0
-7 -4 -4 -10z"/>
<path d="M3466 2611 c-4 -7 -5 -15 -2 -18 9 -9 19 4 14 18 -4 11 -6 11 -12 0z"/>
<path d="M4374 2597 c-8 -21 2 -35 16 -21 5 5 6 15 0 24 -8 12 -10 12 -16 -3z"/>
<path d="M2985 2580 c-3 -5 1 -10 10 -10 9 0 13 5 10 10 -3 6 -8 10 -10 10 -2
0 -7 -4 -10 -10z"/>
<path d="M4280 2580 c0 -5 4 -10 9 -10 6 0 13 5 16 10 3 6 -1 10 -9 10 -9 0
-16 -4 -16 -10z"/>
<path d="M4330 2580 c0 -5 5 -10 10 -10 6 0 10 5 10 10 0 6 -4 10 -10 10 -5 0
-10 -4 -10 -10z"/>
<path d="M3060 2570 c0 -5 5 -10 10 -10 6 0 10 5 10 10 0 6 -4 10 -10 10 -5 0
-10 -4 -10 -10z"/>
<path d="M4090 2555 c0 -8 5 -15 10 -15 6 0 10 7 10 15 0 8 -4 15 -10 15 -5 0
-10 -7 -10 -15z"/>
<path d="M4715 2560 c-4 -6 5 -10 19 -10 14 0 26 5 26 10 0 6 -9 10 -19 10
-11 0 -23 -4 -26 -10z"/>
<path d="M3472 2520 c-12 -22 -18 -40 -13 -40 5 0 11 9 14 20 7 28 24 25 32
-7 5 -23 1 -32 -21 -50 -15 -12 -31 -20 -35 -17 -4 2 -10 -3 -13 -12 -3 -8 -2
-12 4 -9 6 4 10 -7 10 -26 0 -27 2 -30 15 -19 28 23 50 84 50 139 0 30 -4 56
-10 57 -5 2 -20 -14 -33 -36z"/>
<path d="M3766 2545 c4 -8 11 -15 16 -15 6 0 5 6 -2 15 -7 8 -14 15 -16 15 -2
0 -1 -7 2 -15z"/>
<path d="M4635 2549 c-4 -6 -5 -12 -2 -15 2 -3 7 2 10 11 7 17 1 20 -8 4z"/>
<path d="M1282 2508 c3 -7 13 -15 24 -17 16 -3 17 -1 5 13 -16 19 -34 21 -29
4z"/>
<path d="M3570 2513 c0 -4 5 -15 10 -23 8 -13 10 -13 10 2 0 9 -4 20 -10 23
-5 3 -10 3 -10 -2z"/>
<path d="M4570 2509 c0 -5 5 -7 10 -4 6 3 10 8 10 11 0 2 -4 4 -10 4 -5 0 -10
-5 -10 -11z"/>
<path d="M3990 2495 c0 -9 -6 -12 -17 -8 -13 5 -15 2 -10 -11 4 -10 7 -20 7
-22 0 -12 19 -2 24 14 3 9 9 23 12 30 3 6 1 12 -5 12 -6 0 -11 -7 -11 -15z"/>
<path d="M4070 2486 c0 -14 5 -28 10 -31 6 -3 10 5 10 19 0 14 -4 28 -10 31
-6 3 -10 -5 -10 -19z"/>
<path d="M3117 2487 c-11 -29 -9 -53 4 -40 6 6 9 21 7 34 -3 21 -4 22 -11 6z"/>
<path d="M3157 2486 c-4 -10 -5 -21 -2 -24 9 -9 17 6 13 25 -3 17 -4 17 -11
-1z"/>
<path d="M3254 2485 c-11 -27 2 -37 14 -11 7 16 8 26 1 26 -5 0 -12 -7 -15
-15z"/>
<path d="M4554 2492 c7 -12 -10 -17 -45 -14 -15 1 -39 -35 -39 -58 0 -18 31
-10 66 16 35 27 43 47 22 60 -7 4 -8 3 -4 -4z"/>
<path d="M4437 2476 c-10 -8 -14 -16 -10 -19 5 -3 14 3 21 14 14 22 13 23 -11
5z"/>
<path d="M3657 2423 c4 -21 7 -57 5 -81 -2 -39 19 -112 33 -112 3 0 3 5 -1 12
-4 6 -8 39 -9 72 -2 59 -20 146 -31 146 -3 0 -1 -17 3 -37z"/>
<path d="M4189 2448 c-1 -7 0 -17 1 -23 1 -5 3 -16 3 -22 1 -27 17 -11 17 16
0 29 -19 55 -21 29z"/>
<path d="M3138 2405 c-13 -27 -14 -33 -3 -29 9 4 6 -11 -12 -45 -15 -32 -22
-58 -18 -69 6 -14 9 -13 15 9 10 36 40 80 50 74 5 -3 17 8 26 25 10 16 22 30
26 30 4 0 8 8 8 17 0 12 -8 7 -29 -17 -24 -28 -32 -33 -42 -22 -10 9 -10 15
-1 24 13 13 16 38 5 38 -5 0 -16 -16 -25 -35z"/>
<path d="M3940 2430 c0 -5 5 -10 10 -10 6 0 10 5 10 10 0 6 -4 10 -10 10 -5 0
-10 -4 -10 -10z"/>
<path d="M4380 2430 c0 -5 -7 -10 -15 -10 -8 0 -15 -5 -15 -11 0 -6 -6 -9 -14
-6 -8 3 -17 -1 -20 -9 -9 -22 -8 -24 10 -24 8 0 12 5 9 10 -3 6 -1 10 4 10 6
0 11 -6 12 -12 0 -7 4 -3 9 9 7 16 14 20 31 16 15 -4 20 -2 15 5 -3 6 -2 13 4
17 5 3 10 -2 10 -12 0 -15 2 -16 10 -3 6 9 5 17 -3 22 -17 11 -47 10 -47 -2z"/>
<path d="M3095 2420 c-3 -5 -1 -10 4 -10 6 0 11 5 11 10 0 6 -2 10 -4 10 -3 0
-8 -4 -11 -10z"/>
<path d="M3360 2419 c0 -5 5 -7 10 -4 6 3 10 8 10 11 0 2 -4 4 -10 4 -5 0 -10
-5 -10 -11z"/>
<path d="M4069 2419 c-3 -7 -2 -27 1 -44 6 -24 8 -27 14 -13 5 10 4 30 -1 45
-6 18 -11 22 -14 12z"/>
<path d="M4620 2422 c0 -12 19 -26 26 -19 2 2 -2 10 -11 17 -9 8 -15 8 -15 2z"/>
<path d="M3911 2405 c0 -5 3 -16 8 -23 7 -11 9 -10 14 3 4 9 3 14 -2 10 -5 -3
-12 1 -14 7 -3 7 -6 9 -6 3z"/>
<path d="M4137 2389 c4 -13 8 -18 11 -10 2 7 -1 18 -6 23 -8 8 -9 4 -5 -13z"/>
<path d="M4450 2394 c0 -9 -6 -14 -12 -11 -17 6 -50 -12 -43 -23 3 -5 13 -6
23 -3 14 5 14 3 -3 -15 -45 -48 -49 -54 -35 -62 9 -6 23 4 42 31 27 37 48 99
34 99 -3 0 -6 -7 -6 -16z"/>
<path d="M4577 2395 c3 -8 9 -12 14 -9 12 7 11 11 -5 17 -10 4 -13 1 -9 -8z"/>
<path d="M3422 2353 c-19 -52 -22 -64 -13 -58 12 6 35 74 28 81 -2 3 -9 -8
-15 -23z"/>
<path d="M3521 2354 c0 -11 3 -14 6 -6 3 7 2 16 -1 19 -3 4 -6 -2 -5 -13z"/>
<path d="M4284 2349 c-3 -6 0 -18 9 -26 13 -13 14 -12 10 11 -6 29 -9 31 -19
15z"/>
<path d="M4152 2283 c2 -48 6 -59 16 -51 16 14 15 57 -3 88 -14 24 -15 22 -13
-37z"/>
<path d="M3160 2309 c0 -18 1 -18 20 -2 11 10 20 18 20 18 0 0 -9 1 -20 2 -14
1 -20 -4 -20 -18z"/>
<path d="M4044 2312 c4 -10 -1 -33 -10 -51 -12 -24 -13 -36 -5 -44 8 -8 11 -7
11 2 0 8 6 19 14 25 15 12 10 86 -6 86 -5 0 -7 -8 -4 -18z"/>
<path d="M4730 2320 c-9 -6 -10 -10 -3 -10 6 0 15 5 18 10 8 12 4 12 -15 0z"/>
<path d="M3304 2288 c-9 -18 -27 -48 -41 -65 -23 -32 -18 -48 7 -18 7 8 16 13
20 10 8 -5 24 32 34 78 8 36 0 34 -20 -5z"/>
<path d="M3591 2304 c0 -11 3 -14 6 -6 3 7 2 16 -1 19 -3 4 -6 -2 -5 -13z"/>
<path d="M4580 2305 c0 -8 -9 -15 -19 -15 -11 0 -23 -4 -26 -10 -3 -5 -14 -10
-25 -10 -10 0 -20 -7 -24 -15 -4 -11 1 -15 19 -15 14 0 25 5 25 10 0 6 5 10
10 10 6 0 10 -7 10 -15 0 -11 7 -14 24 -9 13 3 27 1 30 -5 6 -9 -18 -16 -45
-13 -3 1 -11 -10 -17 -23 -10 -21 -9 -23 5 -18 11 4 14 2 9 -5 -4 -8 -2 -10 8
-6 8 3 12 12 10 19 -4 9 8 17 36 25 22 6 44 18 47 25 3 8 9 12 14 9 5 -3 9 2
9 10 0 9 5 16 10 16 6 0 10 7 10 15 0 21 -12 19 -39 -6 -12 -12 -23 -19 -25
-18 -1 2 -10 16 -19 32 -19 30 -37 36 -37 12z m20 -35 c0 -5 -9 -10 -21 -10
-11 0 -17 5 -14 10 3 6 13 10 21 10 8 0 14 -4 14 -10z"/>
<path d="M4257 2277 c-16 -18 -31 -44 -34 -59 -3 -15 -9 -25 -14 -22 -5 3 -9
0 -9 -6 0 -7 9 -14 20 -17 13 -3 20 -14 20 -29 0 -15 6 -24 15 -24 8 0 15 4
15 10 0 5 6 7 14 4 11 -4 14 4 13 35 -1 23 -6 41 -10 41 -4 0 -3 9 3 20 6 12
7 32 3 50 l-8 29 -28 -32z"/>
<path d="M1487 2281 c-2 -10 0 -26 5 -35 8 -14 11 -15 24 -1 12 11 12 19 4 35
-13 25 -26 26 -33 1z"/>
<path d="M4312 2266 c2 -19 5 -22 15 -14 18 14 16 38 -2 38 -10 0 -14 -9 -13
-24z"/>
<path d="M4406 2261 c-7 -21 -10 -22 -18 -8 -9 18 -28 23 -28 9 0 -5 10 -19
22 -32 l21 -23 9 23 c5 13 7 31 5 39 -2 11 -6 9 -11 -8z"/>
<path d="M3491 2244 c-17 -14 -31 -33 -31 -41 0 -9 -10 -30 -23 -47 -37 -49
-80 -144 -73 -162 11 -28 33 2 51 71 10 35 24 66 31 69 8 3 14 13 14 22 0 11
6 15 20 11 13 -3 23 1 29 11 10 21 24 92 17 92 -2 0 -18 -12 -35 -26z"/>
<path d="M3850 2251 c0 -6 4 -13 10 -16 6 -3 7 1 4 9 -7 18 -14 21 -14 7z"/>
<path d="M3821 2214 c0 -11 3 -14 6 -6 3 7 2 16 -1 19 -3 4 -6 -2 -5 -13z"/>
<path d="M3912 2210 c0 -14 2 -19 5 -12 2 6 2 18 0 25 -3 6 -5 1 -5 -13z"/>
<path d="M4510 2220 c0 -5 5 -10 10 -10 6 0 10 5 10 10 0 6 -4 10 -10 10 -5 0
-10 -4 -10 -10z"/>
<path d="M3197 2213 c-4 -3 -7 -15 -7 -25 0 -12 -4 -16 -11 -12 -6 3 -15 0
-20 -7 -13 -21 -11 -26 11 -32 13 -3 20 0 20 9 0 8 4 14 10 14 6 0 11 60 4 60
0 0 -4 -3 -7 -7z"/>
<path d="M3627 2113 c-4 -64 -2 -112 3 -117 7 -7 10 -4 10 7 0 9 5 17 10 17 6
0 10 -5 10 -12 0 -6 3 -9 6 -5 12 11 16 87 6 100 -5 7 -12 28 -16 47 -4 25 -3
31 4 20 8 -13 10 -13 10 2 0 14 -24 48 -34 48 -2 0 -6 -48 -9 -107z"/>
<path d="M3992 2195 c-1 -11 2 -26 7 -33 7 -11 9 -10 14 3 4 9 3 13 -2 10 -5
-3 -12 5 -14 17 -4 20 -4 20 -5 3z"/>
<path d="M4086 2185 c-20 -30 -21 -46 -1 -39 8 4 12 10 9 15 -3 5 2 12 10 15
17 6 22 34 7 34 -5 0 -16 -11 -25 -25z"/>
<path d="M4327 2203 c-3 -5 -4 -19 -2 -33 1 -14 3 -31 4 -37 0 -7 6 -13 12
-13 6 0 8 7 5 16 -5 13 -1 15 21 10 19 -4 23 -4 14 3 -9 6 -11 18 -7 35 6 23
3 26 -18 26 -14 0 -27 -3 -29 -7z"/>
<path d="M4640 2180 c0 -5 4 -10 9 -10 6 0 13 5 16 10 3 6 -1 10 -9 10 -9 0
-16 -4 -16 -10z"/>
<path d="M4780 2170 c-17 -11 -13 -15 23 -24 31 -7 37 8 9 23 -11 6 -24 6 -32
1z"/>
<path d="M3236 2161 c-4 -7 -5 -15 -2 -18 9 -9 19 4 14 18 -4 11 -6 11 -12 0z"/>
<path d="M4166 2138 c-16 -15 -44 -35 -62 -44 -32 -15 -48 -51 -37 -81 8 -20
25 -15 19 5 -4 12 7 32 32 60 21 23 41 42 44 42 3 0 6 -17 6 -37 0 -33 -1 -35
-9 -15 -5 13 -14 22 -21 20 -18 -6 -42 -82 -33 -104 16 -40 13 -62 -15 -95
-27 -33 -29 -33 -43 -15 -11 15 -16 16 -22 6 -5 -9 -4 -11 3 -6 7 4 12 1 12
-8 0 -9 7 -16 15 -16 10 0 15 -10 15 -30 0 -34 -6 -36 -35 -14 -18 14 -21 13
-27 -8 -6 -23 -6 -23 -8 2 -1 23 -2 23 -10 5 -14 -32 -11 -43 11 -50 12 -4 18
-12 15 -21 -3 -8 -1 -26 4 -40 7 -17 7 -31 1 -38 -6 -6 -10 -35 -9 -65 0 -29
-2 -54 -5 -57 -2 -3 -12 7 -21 21 -16 24 -16 27 -1 42 17 16 13 58 -6 78 -6 6
-6 -2 1 -19 20 -53 -9 -74 -30 -22 -8 18 -9 16 -10 -14 -1 -29 -3 -31 -10 -15
-6 15 -8 9 -8 -24 0 -24 4 -38 8 -32 12 21 60 -70 60 -115 0 -14 7 -38 15 -53
15 -30 11 -41 -12 -41 -8 0 -13 8 -11 18 1 9 -7 33 -20 53 -12 20 -22 48 -22
62 0 14 -4 29 -10 32 -6 4 -7 -1 -3 -11 4 -12 2 -15 -8 -12 -8 3 -14 13 -14
24 0 13 -6 18 -20 17 -23 -2 -35 14 -31 42 2 11 1 13 -2 5 -6 -18 -33 92 -33
135 0 17 -3 24 -5 18 -3 -7 -12 -13 -20 -13 -8 0 -14 -7 -14 -16 0 -9 -5 -12
-12 -8 -8 5 -9 2 -5 -10 4 -10 7 -20 7 -22 0 -14 20 -1 21 14 1 9 5 -1 9 -23
9 -43 3 -95 -11 -95 -5 0 -16 14 -24 30 -9 17 -20 28 -24 25 -5 -3 -12 2 -15
11 -3 8 -2 13 2 10 4 -2 14 -1 22 5 10 6 11 9 3 9 -8 0 -13 13 -13 30 0 17 5
30 11 30 6 0 9 6 6 13 -18 44 -20 50 -11 45 12 -8 5 93 -7 109 -6 7 -6 12 1
15 6 2 11 17 10 33 -2 64 -5 85 -12 85 -3 0 -9 13 -13 29 -8 38 -35 30 -35
-10 0 -16 -4 -29 -10 -29 -5 0 -10 -11 -10 -25 0 -14 -4 -25 -8 -25 -4 0 -8
-16 -9 -35 -1 -19 3 -35 8 -35 5 0 7 -16 5 -36 -3 -22 3 -56 15 -87 14 -34 18
-62 14 -84 -9 -48 -25 -40 -25 11 0 41 -15 131 -28 166 -3 8 -4 19 -3 24 1 5
-5 3 -14 -4 -21 -18 -28 -8 -15 24 12 33 13 103 1 110 -5 3 -12 -4 -16 -17 -6
-19 -8 -20 -12 -4 -5 18 -6 18 -24 1 -10 -9 -19 -30 -19 -45 0 -16 -8 -51 -19
-78 -11 -30 -15 -54 -10 -63 7 -10 9 -9 9 4 0 18 29 58 41 58 3 0 -2 -37 -13
-81 -22 -94 -59 -147 -49 -71 3 23 -19 12 -25 -13 -3 -14 -11 -25 -16 -25 -6
0 -8 6 -5 14 18 46 28 101 19 104 -11 3 8 66 29 90 8 10 13 34 12 59 -2 23 2
45 7 48 6 3 10 16 10 28 0 21 0 21 -13 2 -8 -11 -19 -34 -25 -51 -10 -33 -68
-124 -98 -158 -15 -17 -34 -86 -49 -179 -7 -39 -13 -47 -33 -41 -13 5 -14 4
-3 -4 11 -8 9 -14 -8 -31 -22 -22 -27 -46 -12 -55 14 -9 1 -44 -18 -49 -11 -2
-22 -21 -28 -45 -9 -33 -8 -39 3 -35 7 3 16 20 20 39 6 33 7 34 25 18 21 -19
13 -44 -24 -76 -11 -10 -20 -32 -21 -55 -1 -21 -11 -51 -22 -68 -10 -16 -13
-26 -7 -22 10 6 11 2 4 -17 -6 -13 -10 -33 -9 -43 0 -10 -3 -34 -6 -53 -6 -32
-5 -33 5 -10 6 14 11 39 11 55 0 22 5 31 18 32 14 1 17 -5 15 -30 -2 -18 -4
-34 -5 -37 -1 -3 -3 -23 -4 -45 -4 -58 -17 -105 -30 -105 -17 0 -59 -96 -51
-118 3 -12 -1 -26 -10 -36 -9 -9 -15 -22 -12 -29 2 -6 -2 -26 -10 -44 -16 -41
-16 -53 0 -53 14 0 57 44 57 58 0 5 11 37 25 73 14 35 28 79 30 98 6 49 21 59
29 20 7 -37 -12 -159 -25 -159 -5 0 -9 -13 -9 -29 0 -17 -4 -32 -8 -35 -4 -2
-7 -52 -6 -111 0 -91 -2 -110 -19 -131 -12 -15 -14 -24 -6 -22 7 2 14 -6 16
-17 3 -16 2 -17 -6 -5 -6 9 -11 10 -11 3 0 -6 -3 -20 -6 -30 -5 -15 -4 -15 5
-3 14 20 14 18 -9 -89 -11 -51 -18 -96 -15 -101 3 -5 2 -18 -3 -27 -5 -10 -12
-40 -16 -68 -4 -34 -3 -43 3 -30 9 18 10 18 10 -6 1 -14 -4 -30 -11 -37 -9 -9
-6 -12 13 -12 28 0 30 5 29 89 0 43 5 61 25 87 22 29 24 38 16 74 -6 26 -5 42
1 46 5 4 8 17 5 31 -2 13 -2 22 0 19 11 -11 56 50 55 76 -1 33 -10 50 -23 43
-15 -10 -10 7 8 27 14 16 15 21 4 27 -8 5 -11 13 -7 19 3 6 2 20 -2 33 -8 20
0 85 14 129 3 8 6 17 6 20 0 3 9 16 19 29 15 18 16 27 8 38 -13 15 -7 98 15
201 7 34 9 62 4 62 -4 0 -8 7 -8 17 0 15 1 15 18 0 10 -10 25 -17 32 -17 11 0
11 -3 2 -12 -15 -15 -16 -52 -1 -43 6 4 8 13 5 21 -3 7 -1 16 4 19 16 10 11
45 -6 45 -13 0 -14 3 -5 14 7 8 15 41 18 72 7 67 28 118 36 87 3 -10 5 -4 6
15 1 26 39 120 42 102 0 -3 1 -26 2 -51 2 -38 -1 -45 -13 -41 -12 5 -13 3 -3
-9 12 -15 6 -72 -7 -64 -9 6 -26 -136 -29 -245 -1 -33 -4 -41 -11 -30 -11 17
-11 18 -16 -40 -6 -76 -25 -144 -36 -129 -6 10 -8 7 -7 -11 1 -14 0 -27 -1
-30 -1 -3 -3 -16 -5 -30 -2 -14 -6 -35 -10 -48 -6 -17 -3 -22 9 -22 10 0 14 5
11 10 -3 5 -3 10 2 10 13 0 28 -14 29 -27 3 -36 5 -41 19 -47 13 -4 14 -2 5
14 -8 15 -8 20 1 20 12 0 4 67 -11 85 -11 13 -10 65 1 65 5 0 10 12 10 28 2
23 2 24 6 5 2 -13 9 -23 15 -23 11 0 37 -29 38 -42 0 -5 -6 -8 -14 -8 -15 0
-29 -51 -20 -74 3 -8 12 -12 21 -9 11 4 14 2 11 -8 -3 -8 -10 -13 -17 -12 -6
2 -13 -9 -16 -25 -4 -15 -10 -35 -16 -44 -5 -10 -9 -27 -9 -38 0 -12 -4 -19
-9 -15 -5 3 -13 0 -17 -6 -4 -8 -14 1 -25 22 l-18 34 2 -50 c1 -27 7 -53 12
-57 6 -5 4 -24 -7 -55 -11 -31 -14 -52 -8 -62 6 -10 10 -11 10 -3 0 14 40 17
40 2 0 -5 -12 -13 -26 -16 -18 -5 -22 -10 -15 -17 16 -16 14 -163 -2 -179 -8
-8 -11 -22 -7 -32 6 -18 7 -18 27 3 13 14 19 30 16 42 -3 11 -2 19 3 17 5 -1
19 3 30 10 19 10 23 9 27 -8 3 -11 -1 -45 -8 -75 l-12 -55 124 1 c124 0 125 0
119 22 -3 12 -7 40 -9 62 -3 22 -2 32 0 22 2 -9 9 -17 14 -17 5 0 9 -9 9 -21
0 -12 5 -19 12 -17 14 5 20 155 7 164 -13 8 -11 64 2 64 5 0 8 4 4 9 -3 5 2
16 10 25 10 9 13 24 10 39 -5 17 -2 26 10 31 12 4 14 10 8 19 -6 7 -5 25 3 47
12 32 14 33 20 13 3 -13 11 -23 16 -23 5 0 2 -10 -6 -22 -12 -16 -13 -25 -4
-35 6 -7 8 -17 4 -20 -4 -4 -11 -1 -15 6 -7 11 -10 10 -14 -5 -7 -26 -3 -96 6
-112 5 -6 6 -16 3 -21 -3 -4 6 -13 19 -19 19 -9 27 -8 40 4 13 14 15 14 15 0
0 -9 5 -16 10 -16 6 0 10 -7 10 -16 0 -13 3 -14 15 -4 12 10 14 4 10 -47 -3
-32 -2 -52 2 -44 4 11 9 8 20 -10 14 -24 14 -24 10 8 -2 18 0 33 5 33 4 0 8
-9 8 -20 0 -11 5 -20 10 -20 13 0 13 6 -1 32 -14 27 -2 36 16 12 14 -18 14
-18 15 4 0 20 -10 27 -32 23 -15 -2 -8 17 8 23 30 11 51 -4 65 -47 7 -23 16
-44 19 -47 11 -11 30 -51 30 -65 0 -8 5 -15 11 -15 12 0 2 79 -12 94 -5 6 -9
20 -9 32 0 13 -4 26 -10 29 -23 14 -9 27 23 21 45 -8 60 4 48 37 -10 26 1 38
14 17 3 -5 13 -10 21 -10 11 0 13 6 9 20 -3 11 -3 20 2 20 11 0 43 -37 43 -50
0 -5 12 -17 26 -26 16 -11 21 -20 14 -24 -8 -5 -6 -9 5 -14 10 -3 25 -1 33 6
13 11 15 10 9 -5 -3 -9 -2 -17 3 -17 6 0 10 -7 10 -15 0 -8 9 -19 19 -25 26
-14 35 -13 24 3 -5 6 -10 23 -11 37 -1 14 -6 26 -12 28 -5 2 -10 10 -10 19 0
17 -24 43 -39 43 -6 0 -11 6 -11 13 0 8 -9 24 -20 37 -11 13 -20 29 -20 36 0
7 -6 15 -12 17 -10 4 -10 6 0 6 23 2 11 26 -37 74 -31 30 -51 43 -54 35 -7
-20 -19 -3 -21 32 -2 25 3 34 19 40 25 9 35 29 35 68 0 34 88 119 157 152 34
16 56 35 71 61 27 47 28 55 2 29 -11 -11 -20 -23 -20 -26 0 -7 -27 -34 -35
-34 -6 0 -2 18 13 60 4 11 -1 10 -16 -4 -12 -11 -22 -15 -22 -10 -1 5 -7 -3
-16 -18 -10 -19 -19 -25 -32 -21 -9 3 -14 3 -10 -1 3 -4 -10 -24 -30 -45 -40
-41 -120 -102 -108 -83 10 17 -9 15 -23 -2 -9 -11 -9 -15 1 -19 9 -4 9 -6 -2
-6 -18 -1 -43 -38 -35 -51 4 -6 -3 -10 -14 -10 -22 0 -27 10 -12 25 13 15 23
65 12 65 -5 0 -11 -9 -14 -21 -3 -12 -10 -18 -16 -15 -5 4 -14 -1 -19 -10 -13
-23 -34 -8 -30 21 2 15 -7 32 -25 49 -15 14 -27 32 -27 40 0 8 -5 18 -10 21
-6 4 -9 12 -8 18 1 7 -6 24 -15 39 -10 14 -17 33 -15 40 2 8 -12 33 -31 57
-34 43 -52 113 -31 126 6 3 10 16 10 27 0 12 3 18 7 15 12 -12 31 27 28 58 -1
16 0 22 2 12 6 -22 27 -17 31 8 3 10 -7 27 -22 39 -18 14 -28 34 -32 59 -5 47
11 48 26 2 6 -19 18 -35 26 -35 8 0 14 -7 14 -15 0 -26 19 -16 36 20 9 19 14
44 11 55 -3 11 -1 20 4 20 5 0 9 -4 9 -10 0 -5 7 -10 15 -10 18 0 19 11 3 29
-11 11 -8 13 15 9 22 -4 28 -1 33 17 3 13 17 32 30 44 26 22 30 36 14 46 -5 3
-10 15 -10 26 0 10 5 19 10 19 9 0 14 -31 12 -70 0 -11 4 -10 16 5 9 11 33 31
52 44 19 13 45 36 58 52 27 34 39 79 20 79 -10 0 -9 3 1 9 8 5 10 14 6 21 -5
8 -4 11 2 7 6 -4 14 0 17 9 5 14 1 16 -24 11 -17 -4 -30 -2 -30 3 0 6 6 10 13
10 15 0 65 52 85 89 10 17 11 26 3 31 -7 4 -2 11 13 18 29 13 45 57 27 75 -8
8 -11 8 -11 -1 0 -7 -5 -12 -10 -12 -7 0 -7 6 -1 19 8 14 7 22 -6 32 -9 8 -14
9 -10 3 3 -6 0 -20 -8 -30 -14 -18 -15 -17 -10 14 4 24 2 32 -10 32 -20 0 -19
6 10 45 14 18 37 36 52 40 14 3 23 9 19 12 -3 4 0 13 7 22 22 26 27 49 12 61
-10 8 -17 7 -29 -5 -9 -9 -16 -12 -16 -6 0 5 7 16 15 25 8 8 15 17 15 20 0 3
-7 6 -15 6 -8 0 -15 -5 -15 -11 0 -5 -16 -17 -35 -25 -19 -8 -35 -19 -35 -25
0 -6 -6 -9 -12 -6 -7 2 -12 10 -10 17 2 7 -2 16 -9 20 -6 4 -8 13 -5 19 4 6
11 9 15 6 12 -7 -1 49 -13 57 -15 10 -17 9 -50 -24z m44 -102 c0 -3 -4 -8 -10
-11 -5 -3 -10 -1 -10 4 0 6 5 11 10 11 6 0 10 -2 10 -4z m-83 -242 c-12 -13
-37 6 -37 28 l0 22 22 -21 c12 -13 19 -25 15 -29z m-409 -21 c-1 -10 2 -33 6
-50 8 -34 -6 -47 -18 -17 -9 24 -7 84 3 84 6 0 9 -8 9 -17z m-289 -170 c-15
-28 -31 -20 -20 10 5 12 9 27 10 32 0 6 4 26 9 45 7 34 7 34 10 -14 2 -28 -2
-60 -9 -73z m132 73 c5 3 9 -2 9 -10 0 -9 -4 -16 -8 -16 -5 0 -9 -13 -9 -30 0
-16 -7 -38 -16 -48 -9 -10 -17 -28 -17 -40 0 -12 -4 -22 -10 -22 -5 0 -10 -7
-10 -14 0 -22 -47 -70 -52 -54 -3 7 2 23 10 35 8 13 12 30 8 38 -4 10 -2 14 5
9 8 -4 9 1 4 16 -5 15 -4 20 4 16 6 -4 11 -1 11 6 0 10 2 10 8 1 4 -7 9 7 10
32 2 44 32 109 40 86 2 -6 8 -9 13 -5z m156 -18 c-3 -8 -6 -5 -6 6 -1 11 2 17
5 13 3 -3 4 -12 1 -19z m13 -83 c5 -11 11 -41 14 -67 4 -38 3 -48 -9 -48 -10
0 -13 -8 -11 -27 5 -35 16 -63 25 -63 4 0 4 -26 -1 -57 -18 -134 -18 -183 3
-219 18 -32 18 -41 7 -95 -6 -32 -16 -59 -20 -59 -4 0 -7 -8 -6 -17 1 -10 0
-31 0 -47 -3 -58 -24 -10 -26 60 -1 38 -6 86 -11 108 -6 27 -4 40 5 46 9 5 12
33 11 94 -1 48 -4 92 -6 99 -14 43 -22 245 -12 302 3 17 6 37 7 45 1 14 7 3
30 -55z m100 -36 c0 -20 5 -29 16 -29 8 0 12 -4 9 -10 -6 -10 3 -24 40 -61 16
-16 17 -23 7 -39 -13 -22 -16 -44 -4 -37 4 3 7 -9 7 -26 0 -18 3 -52 7 -77 4
-25 4 -36 -1 -26 -7 19 -8 19 -15 1 -6 -16 -9 -17 -16 -5 -6 8 -10 25 -10 38
0 13 -4 20 -10 17 -5 -3 -10 3 -10 15 0 12 -4 18 -10 15 -6 -4 -10 10 -10 34
0 23 -4 41 -8 41 -12 0 -11 34 1 41 6 4 6 13 -1 25 -14 28 -23 84 -13 84 5 0
7 10 3 22 -3 14 -2 19 6 14 7 -4 12 -20 12 -37z m-467 -21 c-9 -52 -43 -82
-43 -38 0 15 32 62 47 69 1 1 0 -14 -4 -31z m251 -35 c4 -38 3 -63 -3 -63 -9
0 -21 108 -13 123 7 14 9 5 16 -60z m446 25 c0 -7 -5 -20 -10 -28 -8 -12 -10
-9 -10 13 0 15 5 27 10 27 6 0 10 -6 10 -12z m-656 -133 c-3 -11 -16 -25 -29
-31 -19 -9 -22 -9 -18 2 3 8 11 14 18 14 8 0 17 9 20 21 8 26 16 20 9 -6z
m550 -11 c9 -24 7 -34 -6 -34 -7 0 -14 11 -14 25 -2 28 11 34 20 9z m-316 -59
c18 -39 -6 -213 -28 -200 -5 3 -7 -9 -5 -27 13 -106 13 -118 -1 -118 -11 0
-13 8 -9 32 3 17 1 44 -5 59 -9 21 -8 45 3 106 9 43 15 89 15 103 -2 74 9 91
30 45z m-274 -19 c-4 -11 -19 -46 -34 -76 -14 -30 -25 -61 -22 -68 2 -6 -4
-20 -14 -29 -16 -17 -17 -16 -10 26 5 35 4 42 -8 38 -11 -5 -12 0 -3 23 6 16
15 26 21 23 5 -4 7 1 3 10 -3 10 -2 17 4 17 5 0 14 12 20 27 8 22 12 25 20 13
9 -12 10 -10 6 7 -3 16 -1 20 9 16 10 -3 12 -13 8 -27z m586 13 c0 -5 -4 -9
-10 -9 -5 0 -10 7 -10 16 0 8 5 12 10 9 6 -3 10 -10 10 -16z m-395 -148 c-7
-53 -8 -54 -17 -26 -9 30 -3 99 10 119 11 17 15 -32 7 -93z m-88 -73 c-3 -8
-6 -5 -6 6 -1 11 2 17 5 13 3 -3 4 -12 1 -19z m99 -38 c8 0 14 -4 14 -10 0 -5
-7 -10 -17 -10 -9 0 -13 -3 -10 -6 3 -4 2 -15 -3 -25 -6 -10 -11 -50 -11 -90
-1 -45 -4 -66 -10 -58 -7 11 -9 9 -9 -7 0 -12 7 -24 15 -28 8 -3 15 -11 15
-18 0 -9 -3 -10 -8 -2 -4 6 -14 10 -24 9 -14 -3 -16 7 -13 79 3 88 12 136 26
136 5 0 9 12 10 28 0 15 3 21 6 15 2 -7 11 -13 19 -13z m47 -137 c-3 -27 -8
-51 -12 -55 -5 -6 -6 5 -2 77 0 14 5 25 10 25 5 0 6 -21 4 -47z m91 -65 c-9
-32 -24 -49 -36 -42 -6 4 -6 9 2 14 6 4 13 16 15 26 2 10 4 20 4 22 1 1 6 2
12 2 6 0 8 -9 3 -22z m136 12 c0 -5 -8 -10 -17 -10 -15 0 -16 2 -3 10 19 12
20 12 20 0z m-236 -53 c8 -8 10 -20 5 -32 -4 -11 -8 -33 -8 -48 -1 -16 -5 -26
-11 -22 -5 3 -10 -2 -11 -12 0 -14 -2 -15 -6 -3 -3 8 -17 25 -32 37 -22 19
-24 24 -11 33 11 7 18 5 26 -5 6 -8 15 -15 19 -15 4 0 3 6 -3 13 -14 17 -10
67 6 67 7 0 19 -6 26 -13z m243 -43 c-1 -32 -2 -34 -11 -15 -5 11 -13 21 -18
21 -4 0 -8 4 -8 10 0 5 8 6 17 3 13 -5 15 -2 10 11 -4 9 -3 15 2 12 5 -3 9
-22 8 -42z m-169 -19 c0 -14 -4 -28 -9 -31 -5 -3 -9 -15 -10 -27 0 -16 -3 -13
-13 13 -10 29 -10 37 1 46 7 6 13 17 13 23 0 7 4 10 9 7 5 -3 9 -17 9 -31z
m-127 -52 c0 -10 2 -27 5 -38 2 -11 -3 -36 -11 -56 -8 -20 -11 -39 -8 -43 3
-3 7 -23 9 -45 3 -28 -1 -41 -11 -45 -10 -3 -15 1 -16 12 0 9 -2 35 -3 57 -2
22 4 55 12 73 13 26 14 37 4 52 -12 20 -7 50 9 50 5 0 9 -8 10 -17z m203 -4
c-6 -11 -24 -2 -24 11 0 5 7 7 15 4 8 -4 12 -10 9 -15z m46 -23 c0 -5 -7 -3
-15 4 -8 7 -12 17 -9 22 7 10 24 -9 24 -26z m-171 5 c10 -6 10 -10 1 -16 -8
-5 -6 -13 9 -29 l21 -22 -21 -1 c-13 -1 -23 5 -26 17 -3 11 -10 17 -17 13 -8
-4 -7 -2 1 7 6 7 9 19 6 26 -6 16 5 18 26 5z m-102 -33 c-3 -8 -6 -5 -6 6 -1
11 2 17 5 13 3 -3 4 -12 1 -19z m183 -22 c0 -3 -4 -8 -10 -11 -5 -3 -10 -1
-10 4 0 6 5 11 10 11 6 0 10 -2 10 -4z m44 -55 c-4 -18 -11 -28 -15 -24 -5 5
-4 21 3 35 16 34 20 30 12 -11z m131 7 c-3 -73 -4 -76 -25 -71 -25 7 -25 8 0
33 14 14 18 28 14 45 -3 14 -2 25 3 25 5 0 8 -15 8 -32z m-260 -8 c-3 -5 3
-16 12 -26 13 -13 14 -19 5 -22 -7 -2 -10 -8 -6 -13 3 -5 0 -9 -6 -9 -6 0 -8
-5 -4 -11 3 -6 0 -15 -7 -20 -23 -14 -29 -10 -29 17 0 14 4 23 10 19 10 -6 12
3 12 57 1 15 5 25 10 22 4 -3 6 -9 3 -14z m485 1 c0 -6 -9 -9 -19 -8 -11 0
-17 5 -15 9 7 11 34 10 34 -1z m-320 -11 c0 -5 -4 -10 -10 -10 -5 0 -10 -7
-10 -16 0 -8 4 -13 9 -10 5 3 12 -1 15 -9 4 -13 2 -14 -14 -5 -27 15 -26 60 2
60 4 0 8 -4 8 -10z m216 -87 c-7 -17 -8 -17 -17 0 -12 21 -2 44 13 29 6 -6 8
-19 4 -29z m-133 17 c6 0 3 -8 -6 -17 -16 -16 -19 -16 -27 -3 -14 22 -12 33 6
26 9 -3 21 -6 27 -6z m57 -38 c0 -15 -2 -15 -10 -2 -13 20 -13 33 0 25 6 -3
10 -14 10 -23z m-653 -24 c-3 -8 -6 -5 -6 6 -1 11 2 17 5 13 3 -3 4 -12 1 -19z
m353 6 c0 -10 -5 -14 -15 -10 -11 4 -10 -2 5 -22 14 -20 21 -48 24 -105 4 -74
3 -79 -15 -74 -16 4 -19 1 -14 -14 4 -10 2 -19 -4 -19 -6 0 -8 -6 -5 -14 3 -8
1 -17 -5 -21 -11 -6 -15 28 -13 113 0 23 -4 42 -10 42 -14 0 -4 106 12 125 16
20 40 19 40 -1z m80 0 c0 -8 -5 -12 -10 -9 -6 4 -8 11 -5 16 9 14 15 11 15 -7z
m-183 -26 c-3 -8 -6 -5 -6 6 -1 11 2 17 5 13 3 -3 4 -12 1 -19z m417 13 c4 -5
0 -11 -6 -13 -21 -7 3 -63 26 -63 25 0 29 -15 11 -39 -12 -16 -17 -17 -30 -6
-8 7 -15 21 -15 32 0 11 -5 18 -12 16 -14 -5 -20 -38 -9 -53 4 -5 8 -23 9 -38
2 -23 0 -26 -12 -15 -8 7 -12 16 -10 19 2 4 -1 22 -8 40 -9 25 -9 34 0 37 7 2
12 10 12 18 0 8 -6 11 -15 8 -23 -9 -18 4 13 36 29 31 38 35 46 21z m63 -32
c2 -27 1 -30 -7 -14 -5 11 -9 15 -9 10 -1 -12 -41 -15 -41 -3 0 14 34 48 45
45 5 -2 11 -19 12 -38z m-587 -7 c0 -4 -9 -13 -19 -19 -16 -10 -18 -9 -14 8 5
18 33 28 33 11z m705 -10 c0 -18 -20 -15 -23 4 -3 10 1 15 10 12 7 -3 13 -10
13 -16z m-283 -54 c-14 -14 -16 -42 -2 -33 6 3 10 -1 10 -9 0 -9 -4 -16 -8
-16 -10 0 -32 22 -32 31 0 9 29 39 38 39 3 0 1 -5 -6 -12z m-328 -14 c9 -24 2
-26 -12 -4 -7 11 -8 20 -3 20 5 0 12 -7 15 -16z m-36 -35 c10 -15 11 -24 3
-32 -8 -8 -11 -8 -11 0 0 7 -9 10 -20 8 -13 -2 -20 2 -20 11 0 9 5 12 12 8 8
-5 9 -2 5 9 -9 25 16 21 31 -4z m649 5 c-3 -3 -12 -4 -19 -1 -8 3 -5 6 6 6 11
1 17 -2 13 -5z m-52 -14 c-3 -5 -10 -10 -16 -10 -5 0 -9 5 -9 10 0 6 7 10 16
10 8 0 12 -4 9 -10z m-527 -85 c-1 -22 4 -50 11 -63 9 -17 9 -22 -1 -22 -27 0
-33 17 -34 93 0 69 1 75 13 55 7 -13 12 -41 11 -63z m452 55 c0 -13 -5 -18
-15 -14 -16 7 -19 17 -8 27 12 13 23 7 23 -13z m101 -18 c-7 -2 -18 1 -23 6
-8 8 -4 9 13 5 13 -4 18 -8 10 -11z m204 -3 c11 -17 2 -18 -19 -3 -17 12 -17
14 -4 14 9 0 20 -5 23 -11z m-691 -95 c10 -27 7 -44 -9 -44 -10 0 -15 10 -15
30 0 32 14 40 24 14z"/>
<path d="M3712 1090 c-6 -11 -12 -28 -12 -37 0 -15 2 -16 10 -3 5 8 10 11 10
5 1 -5 6 1 11 14 12 31 -2 47 -19 21z"/>
<path d="M3600 1135 c0 -8 4 -15 10 -15 5 0 7 7 4 15 -4 8 -8 15 -10 15 -2 0
-4 -7 -4 -15z"/>
<path d="M3581 783 c-1 -12 4 -25 9 -28 12 -7 12 2 0 30 -8 19 -9 19 -9 -2z"/>
<path d="M3603 294 c2 -39 5 -48 14 -39 9 9 8 21 -2 51 l-14 39 2 -51z"/>
<path d="M3489 2138 c-1 -7 -1 -19 0 -27 2 -7 -2 -10 -8 -6 -6 3 -11 0 -11 -8
0 -21 29 -30 36 -12 4 8 4 21 1 29 -3 7 0 19 6 25 8 8 7 11 -6 11 -9 0 -18 -6
-18 -12z"/>
<path d="M3076 2121 c-4 -7 -5 -15 -2 -18 9 -9 19 4 14 18 -4 11 -6 11 -12 0z"/>
<path d="M3275 2108 c-4 -13 -16 -35 -26 -50 -12 -16 -16 -29 -9 -33 5 -3 10
1 10 10 0 9 4 14 9 11 9 -6 37 71 29 80 -4 3 -9 -5 -13 -18z"/>
<path d="M3126 2105 c-17 -18 -21 -41 -8 -49 9 -5 37 52 29 60 -2 3 -12 -2
-21 -11z"/>
<path d="M3381 2104 c0 -11 3 -14 6 -6 3 7 2 16 -1 19 -3 4 -6 -2 -5 -13z"/>
<path d="M3876 2073 c8 -56 8 -57 29 -50 18 7 21 38 3 35 -8 -2 -14 10 -16 30
-2 17 -8 32 -13 32 -6 0 -8 -18 -3 -47z"/>
<path d="M3981 2104 c0 -11 3 -14 6 -6 3 7 2 16 -1 19 -3 4 -6 -2 -5 -13z"/>
<path d="M3794 2099 c-3 -5 0 -16 6 -24 6 -8 9 -18 6 -23 -3 -5 4 -35 14 -68
16 -48 19 -54 20 -29 1 17 3 38 5 47 2 10 -1 20 -6 24 -5 3 -9 20 -9 39 0 33
-23 55 -36 34z"/>
<path d="M3356 2078 c-5 -15 -17 -30 -27 -33 -10 -4 -19 -12 -19 -20 0 -23
-44 -84 -58 -80 -7 3 -11 1 -7 -4 3 -5 0 -22 -5 -38 -10 -28 -10 -28 20 6 38
42 49 34 25 -18 -10 -23 -15 -50 -12 -63 4 -16 -5 -47 -28 -94 -19 -38 -34
-76 -34 -84 0 -10 3 -8 9 5 5 13 7 -2 5 -40 -2 -33 -2 -50 1 -37 9 39 27 25
20 -15 -4 -24 -3 -33 3 -23 15 26 22 87 12 112 -5 15 -6 30 0 39 6 10 9 6 10
-16 l1 -30 9 32 c5 18 14 35 19 38 6 3 10 17 10 30 0 13 5 27 11 31 7 4 9 21
6 42 -4 20 0 49 8 68 8 19 11 34 7 34 -4 0 -8 20 -10 45 -2 33 3 52 19 74 11
16 19 37 17 47 -4 15 -6 14 -12 -8z"/>
<path d="M3531 2054 c0 -11 3 -14 6 -6 3 7 2 16 -1 19 -3 4 -6 -2 -5 -13z"/>
<path d="M4013 2041 c-3 -12 -11 -20 -18 -17 -18 6 -22 -12 -14 -54 l6 -35 2
32 c1 26 4 31 18 26 11 -4 14 -3 9 5 -4 6 -2 21 4 33 7 11 9 24 5 27 -3 3 -8
-4 -12 -17z"/>
<path d="M4438 2052 c-10 -2 -18 -13 -18 -25 0 -21 0 -21 21 2 23 25 23 29 -3
23z"/>
<path d="M4845 2050 c-3 -5 -2 -10 4 -10 5 0 13 5 16 10 3 6 2 10 -4 10 -5 0
-13 -4 -16 -10z"/>
<path d="M3750 2031 c0 -5 5 -13 10 -16 6 -3 10 -2 10 4 0 5 -4 13 -10 16 -5
3 -10 2 -10 -4z"/>
<path d="M3172 1988 c-16 -51 -23 -116 -12 -98 5 8 10 23 10 33 0 10 4 16 9
13 5 -3 11 4 14 16 4 12 1 25 -5 29 -9 6 -8 12 1 23 8 10 9 16 3 16 -6 0 -15
-15 -20 -32z"/>
<path d="M3867 1989 c4 -13 8 -18 11 -10 2 7 -1 18 -6 23 -8 8 -9 4 -5 -13z"/>
<path d="M1881 1974 c0 -11 3 -14 6 -6 3 7 2 16 -1 19 -3 4 -6 -2 -5 -13z"/>
<path d="M3761 1974 c0 -11 3 -14 6 -6 3 7 2 16 -1 19 -3 4 -6 -2 -5 -13z"/>
<path d="M4068 1983 c-10 -2 -18 -8 -18 -13 0 -5 -2 -14 -5 -22 -3 -7 4 -19
15 -25 17 -11 21 -10 30 8 8 14 8 24 1 33 -6 7 -8 16 -4 19 3 4 4 6 2 6 -2 -1
-12 -3 -21 -6z"/>
<path d="M3462 1945 c0 -16 2 -22 5 -12 2 9 2 23 0 30 -3 6 -5 -1 -5 -18z"/>
<path d="M3365 1950 c-3 -5 -1 -18 4 -27 9 -16 10 -14 11 10 0 28 -5 34 -15
17z"/>
<path d="M3780 1933 c0 -13 5 -23 10 -23 13 0 13 11 0 30 -8 12 -10 11 -10 -7z"/>
<path d="M3860 1921 c0 -6 5 -13 10 -16 6 -3 10 1 10 9 0 9 -4 16 -10 16 -5 0
-10 -4 -10 -9z"/>
<path d="M3800 1881 c0 -11 4 -21 8 -21 11 0 32 -69 32 -104 0 -17 5 -26 16
-26 10 0 15 -8 14 -22 -1 -13 -2 -39 -1 -58 1 -29 3 -32 12 -18 5 10 9 24 7
30 -2 7 2 14 7 16 6 1 11 -6 13 -18 5 -31 22 -24 22 9 0 20 -6 30 -20 34 -12
3 -20 14 -20 27 0 14 5 20 13 17 6 -2 19 3 27 11 13 14 12 15 -3 9 -11 -4 -17
-1 -17 9 0 8 -4 13 -9 10 -5 -3 -12 4 -15 17 -6 22 -36 60 -69 86 -15 12 -17
11 -17 -8z"/>
<path d="M3238 1866 c-10 -7 -14 -16 -10 -20 4 -5 -1 -6 -12 -4 -13 2 -24 -8
-38 -34 -11 -20 -38 -56 -60 -80 -35 -37 -78 -99 -78 -113 0 -2 10 -2 22 0 25
5 49 32 75 85 13 27 18 31 21 17 3 -14 8 -11 23 17 10 20 19 44 20 53 0 16 2
15 9 -2 7 -17 9 -15 9 13 1 17 5 32 9 32 5 0 14 11 20 25 13 29 13 29 -10 11z"/>
<path d="M3887 1865 c-6 -15 10 -32 20 -21 4 3 1 6 -5 6 -6 0 -9 7 -6 15 4 8
4 15 1 15 -3 0 -7 -7 -10 -15z"/>
<path d="M1937 1863 c-4 -3 -7 -11 -7 -17 0 -6 5 -5 12 2 6 6 9 14 7 17 -3 3
-9 2 -12 -2z"/>
<path d="M1911 1834 c0 -11 3 -14 6 -6 3 7 2 16 -1 19 -3 4 -6 -2 -5 -13z"/>
<path d="M3960 1805 c0 -8 2 -15 4 -15 2 0 6 7 10 15 3 8 1 15 -4 15 -6 0 -10
-7 -10 -15z"/>
<path d="M1968 1788 c9 -9 15 -9 24 0 9 9 7 12 -12 12 -19 0 -21 -3 -12 -12z"/>
<path d="M2236 1774 c-4 -10 -1 -14 6 -12 15 5 23 28 10 28 -5 0 -13 -7 -16
-16z"/>
<path d="M2069 1723 c-13 -15 -12 -15 9 -4 23 12 28 21 13 21 -5 0 -15 -7 -22
-17z"/>
<path d="M3297 1621 c-3 -14 0 -21 9 -21 16 0 18 9 5 28 -6 10 -10 9 -14 -7z"/>
<path d="M3101 1573 c-12 -14 -19 -28 -16 -31 5 -6 55 39 55 51 0 15 -19 6
-39 -20z"/>
<path d="M3186 1534 c-5 -14 -4 -15 9 -4 17 14 19 20 6 20 -5 0 -12 -7 -15
-16z"/>
<path d="M3210 1506 c0 -10 -12 -40 -27 -67 -29 -55 -28 -69 5 -39 24 22 30
46 10 34 -7 -4 -3 3 10 15 24 24 27 38 12 61 -8 13 -10 12 -10 -4z"/>
<path d="M3110 1456 c0 -8 -8 -17 -17 -20 -13 -5 -14 -9 -4 -19 9 -9 14 -9 21
3 10 16 13 50 5 50 -3 0 -5 -6 -5 -14z"/>
<path d="M2993 1282 c-56 -58 -78 -89 -70 -94 7 -4 21 4 36 23 18 24 26 28 33
17 8 -11 10 -11 15 0 3 7 14 21 24 31 11 10 29 35 39 57 41 80 24 73 -77 -34z"/>
<path d="M2827 1333 c-4 -3 -7 -11 -7 -17 0 -6 5 -5 12 2 6 6 9 14 7 17 -3 3
-9 2 -12 -2z"/>
<path d="M3140 1320 c0 -11 -5 -20 -11 -20 -5 0 -7 -5 -4 -10 3 -6 -1 -13 -9
-16 -20 -8 -21 -34 -1 -34 15 0 41 38 31 47 -2 3 -1 16 4 29 6 15 6 24 0 24
-6 0 -10 -9 -10 -20z"/>
<path d="M3174 1319 c-3 -6 -1 -16 5 -22 8 -8 11 -7 11 5 0 9 6 19 13 21 7 3
6 6 -5 6 -9 1 -20 -4 -24 -10z"/>
<path d="M5020 1300 c0 -33 51 -92 67 -77 4 4 -55 87 -62 87 -3 0 -5 -5 -5
-10z"/>
<path d="M3217 1284 c7 -3 9 -13 6 -22 -4 -14 -3 -14 5 -2 12 16 7 30 -11 29
-9 0 -9 -2 0 -5z"/>
<path d="M4796 1277 c3 -10 9 -15 12 -12 3 3 0 11 -7 18 -10 9 -11 8 -5 -6z"/>
<path d="M4920 1276 c0 -9 13 -25 28 -36 16 -12 41 -47 57 -78 20 -40 39 -63
62 -75 36 -18 39 -16 22 15 -9 18 -8 24 6 34 17 12 17 14 2 20 -10 3 -17 12
-17 20 0 8 -6 14 -14 14 -8 0 -24 14 -36 30 -12 17 -30 30 -40 30 -10 0 -22 4
-25 10 -3 5 -15 15 -26 20 -15 8 -19 7 -19 -4z m144 -123 c3 -7 0 -13 -6 -13
-11 0 -37 29 -38 43 0 11 39 -16 44 -30z"/>
<path d="M2337 1249 c-10 -11 -16 -23 -14 -25 9 -9 58 17 55 28 -7 20 -23 19
-41 -3z"/>
<path d="M4844 1185 c29 -54 33 -65 19 -63 -19 3 -29 17 -63 83 -23 45 -18 10
7 -44 8 -18 16 -43 17 -55 2 -11 6 -31 10 -44 6 -19 10 -21 22 -11 11 9 14 8
14 -4 0 -9 5 -19 12 -23 8 -5 9 -2 5 9 -8 21 6 22 23 2 20 -24 31 -7 24 36 -6
34 -4 38 10 33 9 -3 16 -9 16 -13 0 -11 52 -71 62 -71 5 0 19 9 30 20 20 18
20 22 7 36 -9 8 -26 16 -39 17 -16 1 -27 12 -37 35 -7 18 -25 38 -41 44 -15 7
-34 17 -42 24 -8 7 -32 22 -54 33 l-38 22 36 -66z m66 -93 c0 -7 -4 -10 -10
-7 -5 3 -10 16 -10 28 0 18 2 19 10 7 5 -8 10 -21 10 -28z m-33 -4 c-3 -8 -6
-5 -6 6 -1 11 2 17 5 13 3 -3 4 -12 1 -19z"/>
<path d="M3111 1202 c0 -7 -17 -29 -38 -49 -34 -35 -55 -93 -33 -93 6 0 10 9
10 20 0 11 7 20 15 20 20 0 80 61 68 69 -6 3 -13 15 -16 26 -2 11 -5 14 -6 7z"/>
<path d="M3162 1156 c-14 -32 -12 -39 7 -27 7 5 11 19 9 32 -4 24 -5 24 -16
-5z"/>
<path d="M2758 1122 c-16 -9 -28 -22 -28 -29 0 -18 4 -17 40 17 35 33 30 39
-12 12z"/>
<path d="M4996 1117 c3 -10 9 -15 12 -12 3 3 0 11 -7 18 -10 9 -11 8 -5 -6z"/>
<path d="M3071 1078 c-5 -13 -6 -27 -3 -33 3 -5 8 -2 10 5 3 8 9 20 14 27 5 7
5 14 -2 18 -5 3 -14 -4 -19 -17z"/>
<path d="M4786 1073 c7 -33 33 -77 41 -70 2 3 -3 19 -11 36 -9 16 -16 37 -16
46 0 8 -5 15 -10 15 -6 0 -8 -11 -4 -27z"/>
<path d="M3141 1061 c-6 -10 -8 -21 -5 -23 2 -3 0 -17 -5 -32 -7 -17 -7 -26
-1 -26 9 0 12 8 15 51 0 9 7 24 14 33 8 10 9 16 3 16 -6 0 -16 -8 -21 -19z"/>
<path d="M4082 1040 c-7 -11 -8 -20 -3 -20 9 0 24 30 18 36 -1 2 -8 -6 -15
-16z"/>
<path d="M3186 1015 c-9 -26 -7 -32 5 -12 6 10 9 21 6 23 -2 3 -7 -2 -11 -11z"/>
<path d="M2980 1010 c0 -5 5 -10 10 -10 6 0 10 5 10 10 0 6 -4 10 -10 10 -5 0
-10 -4 -10 -10z"/>
<path d="M3072 985 c-18 -19 -32 -37 -32 -40 0 -3 0 -6 -1 -7 0 -2 -2 -11 -4
-21 -3 -18 -3 -18 17 0 21 19 62 92 55 99 -2 2 -18 -12 -35 -31z"/>
<path d="M4860 1000 c0 -8 5 -22 10 -30 9 -13 10 -13 10 0 0 8 -5 22 -10 30
-9 13 -10 13 -10 0z"/>
<path d="M4023 968 c-21 -18 -42 -39 -46 -46 -7 -11 -11 -10 -22 4 -11 16 -14
14 -32 -27 -23 -51 -21 -60 7 -34 12 11 27 20 35 21 17 3 43 27 79 77 35 46
28 47 -21 5z"/>
<path d="M4500 980 c0 -5 5 -10 10 -10 6 0 10 5 10 10 0 6 -4 10 -10 10 -5 0
-10 -4 -10 -10z"/>
<path d="M4240 970 c0 -5 -10 -19 -22 -32 -13 -13 -36 -43 -52 -67 -15 -24
-64 -80 -107 -124 -43 -44 -79 -82 -79 -84 0 -9 22 -1 38 15 20 18 48 41 101
84 34 28 56 60 91 134 11 23 27 47 35 54 17 14 20 30 5 30 -5 0 -10 -4 -10
-10z"/>
<path d="M2950 960 c0 -5 5 -10 10 -10 6 0 10 5 10 10 0 6 -4 10 -10 10 -5 0
-10 -4 -10 -10z"/>
<path d="M3370 955 c0 -8 4 -15 9 -15 5 0 11 7 15 15 3 9 0 15 -9 15 -8 0 -15
-7 -15 -15z"/>
<path d="M4642 940 c0 -14 2 -19 5 -12 2 6 2 18 0 25 -3 6 -5 1 -5 -13z"/>
<path d="M3810 925 c0 -8 5 -15 10 -15 6 0 10 7 10 15 0 8 -4 15 -10 15 -5 0
-10 -7 -10 -15z"/>
<path d="M3360 909 c0 -5 5 -7 10 -4 6 3 10 8 10 11 0 2 -4 4 -10 4 -5 0 -10
-5 -10 -11z"/>
<path d="M4447 913 c-4 -3 -7 -11 -7 -17 0 -6 5 -5 12 2 6 6 9 14 7 17 -3 3
-9 2 -12 -2z"/>
<path d="M2891 891 c-6 -11 -11 -27 -11 -35 0 -9 -5 -16 -11 -16 -6 0 -9 7 -5
15 9 24 -30 0 -50 -30 -9 -14 -24 -25 -34 -25 -10 0 -25 -11 -34 -25 -20 -31
-4 -33 24 -3 l20 22 0 -27 c0 -16 -7 -30 -15 -33 -12 -5 -13 -9 -3 -21 9 -11
9 -16 -3 -24 -8 -5 -20 -9 -26 -9 -7 0 -13 -7 -13 -16 0 -8 -4 -13 -8 -10 -4
2 -9 -5 -9 -17 -2 -17 0 -19 7 -7 8 12 10 12 10 1 0 -11 3 -11 15 -1 9 7 18
10 22 6 3 -3 1 -6 -5 -6 -7 0 -12 -7 -12 -15 0 -21 24 -19 45 5 23 26 39 26
25 1 -14 -27 -13 -38 3 -22 18 18 16 131 -3 131 -13 0 -13 2 0 9 8 6 17 8 21
5 4 -2 10 3 13 12 9 24 8 26 -14 19 -15 -5 -18 -3 -14 10 4 9 13 13 24 10 13
-4 20 4 30 37 7 24 20 48 27 55 9 7 10 13 4 17 -5 4 -15 -2 -20 -13z"/>
<path d="M3086 863 c-6 -14 -5 -15 5 -6 7 7 10 15 7 18 -3 3 -9 -2 -12 -12z"/>
<path d="M3350 834 c0 -14 4 -23 10 -19 6 3 10 1 10 -6 0 -7 2 -10 5 -7 9 8
-6 58 -16 58 -5 0 -9 -12 -9 -26z"/>
<path d="M2910 819 c0 -5 5 -7 10 -4 6 3 10 8 10 11 0 2 -4 4 -10 4 -5 0 -10
-5 -10 -11z"/>
<path d="M4631 805 c1 -11 5 -31 9 -45 8 -24 8 -24 9 5 0 17 -4 37 -9 45 -8
12 -10 11 -9 -5z"/>
<path d="M3072 768 c-1 -10 -6 -18 -11 -18 -5 0 -13 -10 -16 -21 -6 -17 -9
-19 -17 -8 -6 10 -7 3 -3 -18 4 -21 3 -33 -4 -33 -6 0 -11 -5 -11 -10 0 -7 6
-7 19 0 14 7 21 6 24 -3 9 -27 28 36 24 81 -2 26 -4 39 -5 30z"/>
<path d="M4608 764 c-5 -4 -8 -16 -8 -28 0 -14 3 -17 11 -9 6 6 9 19 7 28 -1
9 -6 13 -10 9z"/>
<path d="M4861 734 c0 -11 3 -14 6 -6 3 7 2 16 -1 19 -3 4 -6 -2 -5 -13z"/>
<path d="M4545 720 c-4 -6 -11 -8 -16 -5 -5 4 -5 -4 1 -19 5 -15 6 -26 0 -26
-4 0 -10 7 -12 16 -3 14 -7 13 -30 -5 -16 -13 -29 -17 -33 -11 -10 16 -23 12
-30 -10 -3 -11 -12 -20 -19 -20 -7 0 -18 -12 -25 -26 -9 -21 -14 -24 -25 -14
-12 9 -15 7 -18 -12 -4 -28 -38 -38 -39 -11 0 10 -3 13 -6 6 -2 -7 -11 -13
-19 -13 -8 0 -14 -4 -14 -10 0 -12 -27 -13 -32 -1 -1 4 -13 -7 -25 -25 -12
-19 -19 -33 -15 -33 25 4 42 -3 42 -17 0 -8 4 -13 9 -10 5 3 11 -3 14 -13 4
-17 10 -18 41 -11 48 11 64 25 88 81 15 33 30 51 55 63 19 9 38 14 43 11 5 -3
15 1 22 9 8 7 23 16 35 20 23 7 81 76 64 76 -6 0 -11 -4 -11 -9 0 -5 -9 -11
-20 -14 -13 -3 -20 0 -20 9 0 8 5 14 10 14 6 0 10 5 10 10 0 13 -17 13 -25 0z"/>
<path d="M3170 645 c0 -8 7 -15 16 -15 14 0 14 3 4 15 -7 8 -14 15 -16 15 -2
0 -4 -7 -4 -15z"/>
<path d="M4777 623 c-3 -4 1 -17 9 -28 10 -13 14 -15 14 -4 0 20 -16 43 -23
32z"/>
<path d="M3160 605 c0 -23 -22 -65 -31 -59 -5 3 -9 2 -10 -3 -3 -33 -7 -51
-13 -70 -5 -15 -3 -23 5 -23 8 0 8 -4 -1 -15 -14 -17 -25 -118 -15 -143 10
-26 27 3 29 46 0 22 4 38 7 36 4 -2 10 3 13 12 4 10 2 13 -7 8 -9 -5 -9 -4 1
7 6 7 12 35 12 61 0 40 16 91 47 151 2 4 -5 7 -16 7 -12 0 -21 -7 -21 -15z"/>
<path d="M2926 559 c-21 -22 -36 -42 -34 -44 2 -3 17 3 33 11 17 9 32 15 35
14 2 -1 6 3 8 9 2 6 -2 11 -8 11 -10 0 -9 4 0 15 7 9 11 17 9 20 -3 2 -22 -14
-43 -36z"/>
<path d="M4533 579 c-10 -12 -26 -30 -36 -41 -10 -10 -15 -23 -12 -28 3 -5 0
-12 -7 -16 -8 -5 -6 -10 8 -14 22 -8 43 14 44 45 0 11 7 31 16 43 21 31 10 40
-13 11z"/>
<path d="M3330 580 c0 -5 4 -10 10 -10 5 0 7 -7 4 -15 -4 -8 -2 -15 3 -15 18
0 22 12 10 31 -13 20 -27 25 -27 9z"/>
<path d="M4485 579 c-11 -17 1 -21 15 -4 8 9 8 15 2 15 -6 0 -14 -5 -17 -11z"/>
<path d="M4654 578 c-3 -5 -10 -6 -15 -3 -5 4 -12 -2 -15 -12 -3 -10 -12 -33
-20 -52 -14 -30 -13 -36 0 -50 15 -14 16 -14 16 2 0 23 8 21 31 -5 l19 -23 6
23 c3 12 10 22 15 22 4 0 9 12 11 27 4 33 28 44 28 12 0 -18 3 -20 12 -11 10
10 9 19 -5 46 -15 26 -25 33 -48 33 -16 0 -32 -4 -35 -9z m26 -78 c0 -5 -2
-10 -4 -10 -3 0 -8 5 -11 10 -3 6 -1 10 4 10 6 0 11 -4 11 -10z"/>
<path d="M4740 584 c0 -3 6 -12 14 -19 17 -17 30 -7 15 12 -12 13 -29 18 -29
7z"/>
<path d="M4570 530 c0 -11 2 -20 4 -20 2 0 6 9 9 20 3 11 1 20 -4 20 -5 0 -9
-9 -9 -20z"/>
<path d="M2686 495 c-11 -8 -15 -15 -9 -15 19 0 43 12 43 21 0 13 -12 11 -34
-6z"/>
<path d="M2895 500 c-3 -5 0 -10 7 -10 8 -1 6 -6 -6 -15 -11 -8 -15 -15 -10
-15 14 0 34 22 34 37 0 15 -16 17 -25 3z"/>
<path d="M2834 475 c3 -24 11 -25 24 -5 10 17 10 20 -7 20 -11 0 -18 -6 -17
-15z"/>
<path d="M2995 440 c-31 -33 -21 -41 15 -12 13 10 21 24 19 31 -3 7 -15 0 -34
-19z"/>
<path d="M4487 443 c-4 -3 -7 -11 -7 -17 0 -6 5 -5 12 2 6 6 9 14 7 17 -3 3
-9 2 -12 -2z"/>
<path d="M2770 420 c0 -5 5 -10 10 -10 6 0 10 5 10 10 0 6 -4 10 -10 10 -5 0
-10 -4 -10 -10z"/>
<path d="M4234 422 c-17 -6 -20 -11 -13 -28 4 -12 12 -25 18 -28 6 -4 8 -13 5
-20 -6 -15 40 -56 62 -56 8 0 14 -3 14 -7 0 -9 52 -35 57 -29 10 9 -12 59 -26
63 -10 2 -25 20 -36 39 -10 19 -21 34 -25 34 -4 0 -10 9 -13 20 -5 21 -9 22
-43 12z"/>
<path d="M3067 383 c-4 -3 -7 -11 -7 -17 0 -6 5 -5 12 2 6 6 9 14 7 17 -3 3
-9 2 -12 -2z"/>
<path d="M2796 361 c-13 -14 -14 -20 -4 -24 8 -2 19 6 25 19 13 29 3 31 -21 5z"/>
<path d="M2997 343 c-9 -11 -15 -22 -12 -25 3 -3 -1 -11 -10 -18 -8 -7 -15
-17 -15 -22 0 -6 14 3 31 20 17 16 29 38 27 47 -3 16 -5 15 -21 -2z"/>
<path d="M3315 347 c-4 -10 -5 -21 -1 -24 10 -10 18 4 13 24 -4 17 -4 17 -12
0z"/>
<path d="M2736 342 c-3 -6 2 -13 12 -17 15 -6 15 -8 -7 -26 -13 -10 -18 -19
-12 -19 6 0 8 -8 5 -17 -4 -13 1 -11 16 6 12 15 20 35 18 49 -3 26 -22 40 -32
24z"/>
<path d="M3266 285 c-3 -9 0 -15 9 -15 16 0 20 16 6 24 -5 3 -11 -1 -15 -9z"/>
<path d="M3340 289 c0 -5 -4 -8 -9 -5 -10 6 -25 -43 -16 -52 9 -9 25 13 31 41
2 15 2 27 -1 27 -3 0 -5 -5 -5 -11z"/>
<path d="M4400 290 c0 -5 8 -13 17 -19 10 -5 15 -13 11 -16 -13 -13 29 -46 66
-52 30 -5 35 -3 31 9 -3 8 -17 21 -31 28 -31 17 -30 28 4 33 22 3 20 4 -10 6
-20 0 -48 5 -62 11 -16 6 -26 6 -26 0z"/>
<path d="M3740 260 c0 -11 4 -20 9 -20 5 0 7 9 4 20 -3 11 -7 20 -9 20 -2 0
-4 -9 -4 -20z"/>
<path d="M3078 263 c7 -3 16 -2 19 1 4 3 -2 6 -13 5 -11 0 -14 -3 -6 -6z"/>
<path d="M3361 258 c-1 -10 -5 -18 -10 -18 -5 0 -11 -11 -13 -24 -4 -17 -1
-23 9 -19 15 6 27 46 20 65 -4 8 -6 7 -6 -4z"/>
<path d="M2905 250 c-3 -5 -1 -10 4 -10 6 0 11 5 11 10 0 6 -2 10 -4 10 -3 0
-8 -4 -11 -10z"/>
<path d="M3260 228 c0 -13 -4 -29 -9 -37 -7 -10 -4 -19 7 -27 15 -11 15 -14 1
-31 -19 -22 -34 -72 -16 -54 6 6 15 11 20 11 13 0 -2 -73 -16 -82 -7 -4 5 -8
25 -8 20 0 39 6 41 13 4 9 6 9 6 0 1 -7 7 -13 15 -13 9 0 12 7 9 20 -3 11 -12
20 -19 20 -9 0 -14 11 -14 28 0 18 -3 23 -9 14 -15 -25 -20 41 -5 70 8 15 14
35 14 45 0 16 -3 15 -18 -5 -22 -29 -33 -20 -22 19 5 17 5 31 -1 34 -5 4 -9
-4 -9 -17z"/>
<path d="M3077 234 c-4 -4 -7 -14 -7 -23 0 -11 3 -12 11 -4 6 6 10 16 7 23 -2
6 -7 8 -11 4z"/>
<path d="M2882 218 c-1 -10 -1 -19 1 -21 1 -1 -8 -15 -21 -31 -27 -35 -20 -49
9 -19 15 14 19 29 16 54 -2 19 -5 26 -5 17z"/>
<path d="M2964 187 c-15 -17 -19 -29 -14 -53 4 -20 2 -38 -7 -49 -18 -25 -17
-56 1 -49 11 4 13 0 9 -18 -6 -21 -5 -22 10 -9 20 16 24 97 6 103 -8 3 -6 14
5 37 24 45 18 67 -10 38z"/>
<path d="M3788 180 c-7 -24 -3 -38 8 -28 3 4 4 17 2 30 l-3 23 -7 -25z"/>
<path d="M4330 180 c0 -5 5 -10 11 -10 5 0 7 5 4 10 -3 6 -8 10 -11 10 -2 0
-4 -4 -4 -10z"/>
<path d="M3846 171 c-4 -7 -5 -15 -2 -18 9 -9 19 4 14 18 -4 11 -6 11 -12 0z"/>
<path d="M4360 170 c0 -5 5 -10 10 -10 6 0 10 5 10 10 0 6 -4 10 -10 10 -5 0
-10 -4 -10 -10z"/>
<path d="M4080 154 c0 -9 41 -44 52 -44 14 0 9 12 -14 31 -21 19 -38 24 -38
13z"/>
<path d="M3820 132 c0 -13 10 -33 21 -45 l22 -22 -7 30 c-4 17 -14 37 -22 45
-12 12 -14 11 -14 -8z"/>
<path d="M2916 124 c-20 -20 -20 -23 2 -20 9 2 18 10 20 19 4 21 -2 21 -22 1z"/>
<path d="M4283 70 c5 -28 14 -50 18 -50 5 0 9 5 9 10 0 6 7 10 15 10 8 0 15 9
15 20 0 11 -7 20 -15 20 -8 0 -20 9 -27 20 -21 33 -26 23 -15 -30z"/>
<path d="M3748 64 c3 -23 8 -32 14 -26 12 12 7 54 -8 59 -6 2 -8 -10 -6 -33z"/>
<path d="M4510 90 c0 -6 7 -10 15 -10 8 0 15 2 15 4 0 2 -7 6 -15 10 -8 3 -15
1 -15 -4z"/>
<path d="M3970 43 c0 -32 4 -43 15 -43 19 0 19 20 0 56 l-15 29 0 -42z"/>
<path d="M3990 71 c0 -6 4 -13 10 -16 6 -3 7 1 4 9 -7 18 -14 21 -14 7z"/>
<path d="M3414 48 c3 -12 0 -18 -9 -18 -8 0 -15 -5 -15 -11 0 -8 -5 -8 -15 1
-12 10 -15 9 -15 -4 0 -14 8 -17 37 -14 42 3 50 16 27 43 -13 17 -15 17 -10 3z"/>
<path d="M3890 37 c0 -20 4 -25 15 -21 13 5 13 9 3 23 -7 9 -14 18 -15 20 -2
2 -3 -8 -3 -22z"/>
<path d="M4260 34 c0 -8 5 -12 10 -9 6 3 10 10 10 16 0 5 -4 9 -10 9 -5 0 -10
-7 -10 -16z"/>
<path d="M4400 21 c0 -5 7 -11 14 -14 10 -4 13 -1 9 9 -6 15 -23 19 -23 5z"/>
</g>
</svg>
