<?xml version="1.0" standalone="no"?>
<!DOCTYPE svg PUBLIC "-//W3C//DTD SVG 20010904//EN"
 "http://www.w3.org/TR/2001/REC-SVG-20010904/DTD/svg10.dtd">
<svg version="1.0" xmlns="http://www.w3.org/2000/svg"
 width="640.000000pt" height="640.000000pt" viewBox="0 0 640.000000 640.000000"
 preserveAspectRatio="xMidYMid meet">

<g transform="translate(0.000000,640.000000) scale(0.100000,-0.100000)"
fill="#000000" stroke="none">
<path d="M2555 5423 c4 -21 18 -56 31 -79 23 -39 28 -42 81 -48 67 -8 83 2 63
40 -32 59 -119 124 -166 124 -13 0 -15 -7 -9 -37z"/>
<path d="M4636 5330 c-26 -10 -56 -26 -65 -34 -10 -9 -22 -16 -27 -16 -11 0
-34 -48 -34 -72 0 -9 9 -22 20 -28 11 -6 20 -17 20 -25 0 -23 79 -20 87 3 4 9
20 30 37 47 17 16 30 35 28 41 -1 7 12 24 29 38 17 15 30 28 28 30 -24 18 -56
36 -64 36 -5 -1 -32 -9 -59 -20z"/>
<path d="M3137 4920 c-33 -26 -36 -70 -6 -111 20 -29 24 -30 87 -27 81 4 87
15 45 98 -25 50 -32 55 -64 58 -24 2 -43 -4 -62 -18z"/>
<path d="M4002 4888 c-7 -7 -12 -19 -12 -27 0 -9 -10 -35 -22 -58 -19 -36 -20
-43 -7 -59 18 -22 71 -44 107 -44 31 0 50 17 76 67 23 46 20 62 -20 99 -27 26
-44 34 -73 34 -20 0 -42 -5 -49 -12z"/>
<path d="M3630 4425 c0 -14 5 -25 10 -25 6 0 10 11 10 25 0 14 -4 25 -10 25
-5 0 -10 -11 -10 -25z"/>
<path d="M3600 4380 c-8 -5 -33 -10 -55 -10 -36 0 -45 -6 -97 -62 -52 -56 -58
-67 -58 -106 0 -26 11 -68 26 -102 24 -55 25 -59 10 -89 -9 -17 -16 -33 -16
-36 1 -31 -2 -35 -29 -35 -17 0 -32 -4 -36 -9 -8 -14 42 -50 89 -62 22 -6 56
-24 74 -40 27 -24 41 -29 87 -29 29 0 56 4 59 9 3 5 37 18 75 30 75 23 126 62
136 104 5 20 3 28 -9 33 -9 3 -16 10 -16 15 0 5 -9 18 -20 29 -19 19 -19 23
-6 49 23 43 46 113 46 139 0 12 -9 30 -20 39 -11 10 -20 27 -20 38 0 11 -4 25
-8 32 -13 21 -79 43 -127 43 -31 0 -47 5 -51 15 -7 17 -13 18 -34 5z"/>
<path d="M4180 4191 c0 -5 9 -7 20 -4 11 3 20 7 20 9 0 2 -9 4 -20 4 -11 0
-20 -4 -20 -9z"/>
<path d="M4115 4130 c3 -5 13 -10 21 -10 8 0 12 5 9 10 -3 6 -13 10 -21 10 -8
0 -12 -4 -9 -10z"/>
<path d="M4175 4120 c-3 -5 3 -10 15 -10 12 0 18 5 15 10 -3 6 -10 10 -15 10
-5 0 -12 -4 -15 -10z"/>
<path d="M4065 4092 c-9 -9 -5 -26 10 -46 13 -17 18 -18 40 -6 14 7 25 18 25
24 0 12 -66 36 -75 28z"/>
<path d="M4117 3993 c-21 -21 7 -49 33 -33 11 7 11 11 1 24 -15 17 -24 20 -34
9z"/>
<path d="M4180 3875 c0 -3 11 -16 23 -28 13 -12 22 -27 20 -34 -2 -6 13 -28
34 -47 31 -30 35 -37 23 -45 -12 -8 -12 -13 -2 -23 9 -9 16 -7 32 10 21 22 27
52 10 52 -5 0 -10 6 -10 14 0 8 -10 23 -23 33 -13 10 -26 26 -30 36 -3 9 -15
17 -26 17 -11 0 -23 5 -26 10 -7 11 -25 14 -25 5z"/>
<path d="M3985 3806 c-13 -15 -7 -52 11 -66 12 -10 14 -8 13 16 -1 42 -12 65
-24 50z"/>
<path d="M4133 3766 c-26 -12 -27 -17 -12 -105 6 -37 6 -68 1 -73 -13 -13 -62
9 -62 27 0 18 16 20 23 3 3 -8 6 -5 6 5 2 31 -38 79 -63 75 -16 -2 -20 -9 -18
-30 1 -16 -2 -28 -8 -28 -5 0 -10 8 -10 19 0 20 -23 45 -33 35 -3 -3 -3 -21 0
-40 4 -25 2 -34 -8 -34 -8 0 -25 -12 -38 -25 -13 -14 -29 -25 -36 -25 -7 0
-18 -13 -25 -30 -7 -16 -16 -28 -20 -25 -13 8 -74 -27 -108 -62 -26 -27 -39
-33 -57 -29 -18 5 -25 1 -30 -15 -9 -27 -31 -18 -28 12 l2 24 -11 -22 c-16
-33 -47 -29 -59 7 -11 30 -29 41 -29 17 0 -23 -45 -58 -57 -46 -8 8 -13 8 -17
0 -11 -18 -26 -13 -26 9 0 23 -15 27 -27 7 -12 -20 -83 -30 -83 -12 0 8 -6 18
-14 22 -7 4 -18 18 -25 31 -6 12 -15 22 -20 22 -4 0 -25 -18 -47 -40 -27 -27
-48 -40 -67 -40 -18 0 -37 -11 -57 -32 -35 -39 -37 -48 -10 -48 28 0 25 -18
-5 -26 -14 -3 -25 -11 -25 -16 0 -6 9 -8 21 -5 11 3 29 -1 39 -10 15 -13 16
-20 7 -35 -10 -15 -9 -21 3 -28 19 -12 6 -24 -41 -39 -47 -15 -76 -41 -71 -63
3 -14 -1 -16 -15 -11 -16 6 -16 5 -5 -10 11 -13 17 -14 34 -4 16 9 22 9 25 0
2 -7 11 -9 20 -6 13 5 15 0 11 -25 -2 -18 -3 -32 -1 -32 2 0 31 26 63 59 36
35 72 61 90 64 34 7 46 6 43 -5 -2 -5 2 -8 7 -8 23 0 7 -30 -37 -71 -54 -49
-42 -65 23 -30 20 11 41 18 47 14 5 -3 13 1 18 8 7 12 9 12 9 0 0 -9 8 -11 25
-7 33 8 32 1 -5 -36 -17 -16 -28 -33 -25 -38 3 -5 1 -11 -4 -15 -6 -3 -8 -12
-4 -21 3 -8 -3 -24 -13 -36 -11 -12 -13 -18 -6 -14 13 8 14 0 16 -84 1 -33 5
-45 17 -48 13 -2 18 8 23 42 4 25 4 51 1 57 -4 6 2 19 14 30 12 11 21 29 21
40 0 15 5 19 15 15 16 -6 23 14 28 74 1 25 -2 35 -13 35 -21 0 -26 68 -6 84
11 10 18 6 35 -18 12 -16 21 -34 21 -41 0 -6 6 -18 14 -26 8 -7 12 -23 9 -34
-3 -11 1 -28 9 -38 8 -9 24 -47 34 -84 10 -38 24 -68 31 -68 16 0 33 32 33 64
0 35 25 34 38 -1 6 -16 17 -37 26 -48 16 -19 16 -18 10 20 -9 62 -14 75 -29
75 -15 0 -25 22 -25 56 0 14 -11 47 -25 75 -24 46 -24 51 -10 72 8 12 15 34
15 49 0 29 6 33 34 22 19 -7 23 -79 5 -90 -7 -4 -8 -18 -4 -38 4 -17 6 -48 6
-68 -2 -39 13 -50 36 -27 14 14 43 5 43 -14 0 -8 8 -32 17 -53 9 -22 17 -56
19 -78 1 -25 10 -46 24 -60 l23 -21 -7 25 c-8 28 -8 31 0 81 3 22 0 54 -10 83
-9 26 -16 51 -16 56 0 13 33 13 47 -1 7 -7 17 -2 32 20 13 17 31 31 42 31 10
0 19 -2 19 -4 0 -14 -48 -105 -53 -100 -5 6 -10 -16 -21 -97 -4 -37 7 -59 31
-59 18 0 16 25 -3 40 -20 17 -15 85 6 85 11 0 15 -11 15 -42 0 -23 6 -48 13
-55 11 -11 16 -9 32 12 10 14 21 39 25 57 6 35 19 43 29 17 3 -9 12 -14 19
-11 6 2 20 0 30 -5 15 -8 20 -5 24 11 6 24 14 26 31 9 20 -20 12 -108 -10
-108 -5 0 -6 5 -3 10 12 20 -7 32 -21 12 -19 -27 -7 -58 29 -76 18 -9 29 -16
25 -16 -4 0 4 -21 17 -46 13 -25 27 -61 31 -80 3 -19 11 -33 18 -31 17 6 19
54 2 78 -11 17 -14 37 -9 85 5 49 2 69 -11 88 -31 49 -14 76 37 57 35 -14 56
-5 50 20 -3 12 0 19 8 19 23 0 36 -13 43 -43 8 -34 34 -46 51 -24 7 10 20 17
29 17 31 0 16 19 -24 30 -46 12 -60 29 -36 42 9 5 14 13 11 19 -4 5 1 12 9 15
9 3 16 15 16 25 0 12 10 23 25 29 14 5 28 18 32 27 4 10 13 23 21 29 13 9 11
12 -12 18 -33 8 -64 -8 -76 -40 -9 -22 -15 -25 -47 -22 -46 4 -54 24 -14 33
17 4 31 10 31 15 0 9 24 24 90 57 32 16 33 17 12 21 -13 2 -41 -6 -63 -17 -22
-12 -46 -21 -54 -21 -23 0 -28 21 -9 35 13 9 19 25 19 51 0 33 -5 41 -28 52
-36 17 -40 13 -22 -22 18 -33 18 -36 5 -36 -5 0 -23 21 -40 46 -19 27 -37 43
-45 40 -9 -3 -15 3 -17 17 -2 13 -12 23 -28 27 -19 4 -26 13 -28 38 -4 43 23
43 41 0 18 -42 44 -65 58 -51 14 14 87 5 114 -13 11 -8 27 -14 37 -14 9 0 26
-10 38 -22 11 -12 23 -18 27 -15 12 13 32 79 27 92 -12 29 -86 26 -100 -5 -14
-28 -49 -8 -75 44 -12 26 -31 54 -41 63 -17 15 -17 17 4 34 28 25 33 24 46 -6
12 -25 58 -37 49 -12 -2 6 3 17 12 23 13 10 9 17 -27 50 -23 20 -42 45 -42 55
0 11 -14 42 -31 70 -27 43 -30 54 -21 75 11 22 9 24 -13 24 -14 0 -25 5 -25
10 0 12 -8 11 -37 -4z m-978 -407 c-10 -15 -25 -10 -19 6 4 8 10 12 15 9 5 -3
7 -10 4 -15z m894 -73 c27 -42 27 -66 1 -66 -13 0 -26 14 -40 44 -25 55 -25
56 -1 56 11 0 28 -14 40 -34z m-419 -26 c0 -5 -4 -10 -10 -10 -5 0 -10 5 -10
10 0 6 5 10 10 10 6 0 10 -4 10 -10z m114 -88 c1 -17 5 -34 9 -38 4 -4 7 -19
7 -32 0 -14 7 -33 16 -43 14 -16 14 -18 -6 -29 -25 -13 -50 1 -50 29 0 9 -9
27 -20 41 -12 16 -20 41 -20 67 0 35 3 42 23 45 29 5 39 -4 41 -40z m376 28
c0 -5 -2 -10 -4 -10 -3 0 -8 5 -11 10 -3 6 -1 10 4 10 6 0 11 -4 11 -10z m60
-55 c0 -2 -7 -5 -15 -9 -9 -3 -15 0 -15 9 0 9 6 12 15 9 8 -4 15 -7 15 -9z
m-155 -75 c3 -5 2 -10 -4 -10 -5 0 -13 5 -16 10 -3 6 -2 10 4 10 5 0 13 -4 16
-10z m189 -26 c9 -3 16 -10 16 -15 0 -5 9 -18 20 -29 22 -22 27 -56 8 -62 -27
-9 -70 6 -80 28 -9 19 -8 28 8 45 16 17 16 22 4 29 -17 11 0 13 24 4z m-167
-108 c-7 -17 -47 -23 -47 -7 0 5 7 14 15 21 8 7 15 24 16 39 1 25 1 25 11 -6
6 -18 8 -39 5 -47z m-71 19 c3 -8 3 -19 -1 -25 -10 -16 -35 7 -28 26 7 18 22
18 29 -1z"/>
<path d="M3110 3510 c0 -15 21 -23 32 -12 6 6 2 11 -11 15 -12 3 -21 1 -21 -3z"/>
<path d="M3120 3441 c0 -18 18 -21 30 -6 10 13 9 15 -9 15 -11 0 -21 -4 -21
-9z"/>
<path d="M790 3286 c0 -8 11 -28 25 -43 19 -22 24 -24 25 -11 0 27 -22 68 -37
68 -7 0 -13 -6 -13 -14z"/>
<path d="M940 3280 c0 -5 5 -10 10 -10 6 0 10 5 10 10 0 6 -4 10 -10 10 -5 0
-10 -4 -10 -10z"/>
<path d="M2736 3185 c-22 -17 -22 -16 19 -34 25 -11 31 -10 42 5 7 10 13 23
13 28 0 6 -5 4 -10 -4 -8 -13 -10 -12 -10 3 0 21 -28 22 -54 2z"/>
<path d="M669 3168 c-8 -68 -6 -99 7 -137 17 -51 10 -64 -37 -65 -29 -1 -34
-5 -41 -36 -5 -19 -13 -44 -18 -55 -4 -11 -11 -35 -14 -54 -3 -19 -14 -40 -23
-46 -10 -7 -18 -24 -18 -36 0 -29 -33 -38 -51 -14 -8 10 -23 15 -41 13 -25 -3
-28 -7 -31 -43 -5 -60 16 -143 38 -150 10 -3 21 -12 24 -20 3 -8 12 -15 20
-15 42 0 96 -86 66 -105 -16 -10 -12 -61 5 -75 9 -7 12 -16 8 -19 -9 -7 -35
-59 -39 -78 -1 -7 -14 -24 -28 -38 -15 -15 -24 -31 -21 -36 10 -15 21 -10 35
16 14 26 34 29 36 4 0 -8 5 -23 9 -33 8 -18 9 -18 17 4 5 14 4 27 -2 35 -8 10
-8 15 0 20 6 4 12 5 13 4 1 -2 8 -14 15 -26 16 -30 15 -53 -1 -53 -16 0 -19
-30 -4 -47 5 -7 19 -13 31 -13 13 0 35 -14 52 -35 16 -19 35 -35 41 -35 16 0
16 12 1 29 -11 11 -10 13 5 7 10 -3 23 -6 28 -6 5 0 9 -5 9 -11 0 -7 8 -18 18
-26 16 -13 16 -14 -3 -12 -38 3 -38 -1 3 -41 34 -32 42 -46 42 -75 0 -33 2
-35 20 -25 11 6 20 16 20 23 0 7 15 19 33 27 22 10 34 24 38 45 11 55 37 103
59 110 30 10 41 -4 44 -59 3 -35 -2 -53 -16 -72 -14 -17 -18 -33 -14 -49 8
-30 -27 -105 -48 -105 -17 0 -27 -25 -20 -45 7 -17 25 -20 40 -5 7 7 15 2 24
-15 12 -23 27 -30 57 -26 7 1 22 -12 35 -29 19 -26 24 -29 33 -17 6 8 27 22
48 31 20 8 40 23 44 33 9 26 54 78 67 78 10 0 12 14 15 100 1 23 9 35 31 48
29 18 29 18 44 -11 9 -18 13 -43 9 -70 -4 -29 -1 -49 11 -66 21 -33 20 -39 -6
-30 -23 7 -23 6 -4 -14 19 -22 15 -57 -6 -50 -6 2 -20 20 -30 39 -24 44 -33
40 -29 -15 1 -25 -3 -54 -9 -66 -15 -27 -21 -110 -8 -110 5 0 6 -5 2 -12 -5
-7 -13 -2 -26 15 -11 15 -25 24 -33 21 -27 -11 -61 -104 -37 -104 4 0 22 4 40
9 21 6 32 6 32 0 0 -6 4 -8 9 -5 8 6 21 -15 21 -35 0 -40 -366 -109 -662 -125
-65 -3 -118 -7 -118 -9 0 -4 52 -184 100 -345 69 -231 205 -696 258 -877 15
-52 15 -53 54 -53 21 0 136 29 256 64 119 35 226 66 237 69 11 3 108 31 215
62 173 51 293 85 455 130 70 19 214 62 250 74 61 21 212 61 229 61 9 0 19 -7
22 -15 8 -21 25 -19 54 8 14 12 53 35 88 52 55 25 67 28 93 18 34 -13 59 -8
59 13 0 30 73 38 107 11 10 -7 8 -16 -7 -37 -22 -31 -26 -79 -8 -113 25 -49
28 -58 28 -86 0 -17 -5 -33 -11 -37 -8 -5 -8 -9 1 -14 9 -6 8 -15 -4 -38 -9
-17 -16 -38 -16 -47 0 -8 -5 -15 -10 -15 -18 0 -32 -51 -19 -66 9 -11 49 -20
49 -11 0 1 7 20 14 42 l14 39 9 -44 c7 -38 12 -45 32 -45 31 0 46 42 55 157 8
85 8 86 27 67 29 -29 39 -23 39 24 0 73 20 171 40 199 11 15 20 34 20 42 0 21
22 66 32 66 9 0 11 -83 2 -128 -5 -23 -10 -28 -25 -25 -22 6 -24 -5 -8 -40 8
-17 7 -38 -5 -84 -9 -34 -16 -83 -16 -110 0 -28 -7 -72 -15 -99 -23 -75 -23
-75 43 -72 l57 3 -3 45 c-4 62 32 160 59 160 23 0 24 -8 2 -32 -13 -14 -17
-38 -18 -96 l0 -77 28 -3 c22 -3 30 1 34 17 4 18 8 19 20 9 18 -14 92 -11 111
5 14 11 12 72 -4 161 -4 27 -3 37 4 32 6 -4 20 2 32 14 11 11 22 20 24 20 11
0 15 -52 5 -77 -6 -15 -13 -37 -14 -48 -2 -11 -7 -39 -10 -62 -9 -53 8 -63 66
-38 43 20 52 49 19 60 -15 5 -20 15 -20 41 0 19 5 34 10 34 6 0 10 6 10 14 0
8 11 28 25 44 14 17 25 34 25 39 0 4 9 14 21 21 15 9 18 19 13 35 -4 12 -12
25 -18 29 -6 4 -17 11 -24 16 -13 9 -29 102 -18 102 4 0 12 -13 19 -28 13 -30
61 -92 72 -92 3 0 11 14 16 30 6 17 15 30 20 30 5 0 9 6 9 14 0 8 10 22 21 30
13 9 19 21 16 30 -5 11 0 16 13 16 12 0 28 13 38 29 10 16 49 53 87 82 115 88
165 145 165 186 0 71 -2 70 450 203 96 28 204 60 240 70 60 18 290 86 435 129
265 80 389 115 440 127 33 8 87 25 120 38 33 13 119 41 190 61 72 21 178 51
238 68 l107 31 0 483 c0 423 -2 483 -15 483 -11 0 -15 11 -15 40 0 36 -2 40
-25 40 -22 0 -25 4 -25 40 0 29 -4 40 -15 40 -11 0 -15 11 -15 40 0 36 -2 40
-25 40 -22 0 -25 4 -25 40 l0 40 -40 0 c-48 0 -56 25 -11 35 23 5 35 1 51 -15
15 -15 25 -18 33 -11 7 5 37 11 67 13 30 2 55 8 57 15 3 9 -26 11 -116 9 -110
-3 -121 -1 -121 15 0 23 104 47 132 30 10 -6 26 -11 35 -11 15 0 16 2 3 10
-11 7 -7 10 18 10 17 0 32 4 32 8 0 5 -52 8 -115 8 -63 0 -115 -3 -115 -6 0
-3 -8 -6 -17 -6 -10 0 -33 -4 -52 -8 -24 -6 -31 -5 -27 3 4 6 1 11 -8 11 -8 0
-17 -4 -20 -9 -6 -9 -38 -13 -101 -13 -22 1 -64 -6 -92 -14 -29 -9 -61 -13
-70 -10 -10 3 -25 1 -33 -5 -12 -9 -11 -10 6 -6 13 3 25 -3 33 -14 6 -11 20
-19 31 -19 10 0 24 -8 29 -17 6 -10 11 -13 11 -8 0 6 4 4 8 -3 5 -7 19 -14 32
-17 26 -5 40 -15 21 -15 -7 0 -9 -5 -6 -10 4 -6 10 -8 14 -6 4 3 31 -24 61
-59 32 -37 61 -62 69 -59 9 3 12 -2 8 -15 -2 -11 3 -24 14 -32 11 -7 19 -18
19 -24 0 -6 13 -37 29 -68 16 -32 36 -85 45 -118 15 -59 26 -85 26 -61 0 7 4
12 9 12 5 0 4 -16 -2 -37 -9 -28 -9 -37 1 -41 14 -4 16 -72 3 -116 -5 -17 -17
-70 -26 -119 -28 -152 -87 -261 -200 -372 -70 -68 -124 -116 -128 -113 -1 1
-15 -7 -32 -18 -74 -48 -206 -85 -330 -91 -181 -9 -322 29 -469 128 -66 45
-174 153 -197 197 -8 15 -16 29 -19 32 -20 18 -75 160 -92 235 -36 165 -15
322 63 490 13 28 29 56 36 63 18 19 36 53 30 59 -6 5 -44 -6 -152 -45 -242
-88 -230 -87 -244 -34 -6 20 -11 43 -11 51 0 14 -28 40 -42 41 -13 0 -9 -59 7
-97 8 -19 15 -41 15 -49 0 -17 -108 -57 -136 -50 -16 4 -23 1 -27 -14 -3 -11
-12 -20 -21 -20 -9 0 -28 -7 -41 -16 -15 -9 -32 -13 -45 -9 -16 5 -30 0 -48
-17 -15 -14 -63 -40 -107 -58 -44 -18 -117 -50 -162 -72 -46 -21 -88 -38 -94
-38 -6 0 -26 -9 -43 -19 -17 -10 -56 -29 -86 -41 -71 -29 -144 -63 -150 -71
-3 -4 -38 -18 -78 -33 -41 -14 -93 -37 -116 -51 -24 -14 -45 -23 -48 -20 -3 3
-31 -10 -63 -30 -63 -37 -101 -46 -91 -20 3 8 1 15 -4 15 -6 0 -10 -5 -10 -10
0 -24 -53 -60 -87 -60 -24 0 -40 -7 -52 -22 -19 -23 -44 -17 -34 7 3 8 0 15
-6 15 -6 0 -11 -8 -11 -18 0 -23 -30 -52 -53 -52 -18 0 -20 18 -8 60 9 29 -12
78 -42 99 -15 11 -18 22 -14 52 3 22 4 39 2 39 -1 0 -19 -15 -40 -34 -20 -19
-44 -32 -51 -29 -8 3 -21 0 -29 -7 -13 -10 -19 -10 -33 4 -10 9 -26 16 -35 16
-18 0 -30 30 -21 54 6 16 -15 22 -54 17 -8 -1 -20 3 -28 10 -11 9 -14 7 -14
-13 0 -13 5 -29 12 -36 9 -9 7 -16 -7 -32 -18 -20 -18 -20 -42 7 -21 22 -22
27 -10 34 8 5 17 31 21 63 5 34 13 56 22 60 9 3 13 10 10 15 -3 5 1 14 9 21
24 20 18 26 -21 22 -24 -3 -34 -9 -30 -17 3 -8 -5 -16 -20 -19 -14 -4 -22 -10
-20 -15 3 -5 -3 -16 -13 -25 -15 -14 -24 -15 -39 -7 -11 6 -22 8 -24 5 -3 -2
-11 2 -18 11 -7 8 -19 15 -26 15 -8 0 -19 9 -26 20 -7 11 -18 20 -25 20 -6 0
-13 6 -16 13 -6 15 -36 -21 -37 -43 0 -9 -14 -20 -32 -25 -45 -14 -51 -38 -7
-30 30 5 35 3 46 -22 19 -40 16 -50 -17 -75 -34 -25 -37 -43 -13 -70 14 -16
14 -18 0 -18 -19 0 -57 51 -57 78 0 26 -29 36 -50 17 -9 -8 -24 -15 -33 -15
-9 0 -19 -5 -22 -11 -5 -6 -13 -3 -22 10 -8 12 -21 21 -29 21 -11 0 -13 6 -8
23 14 42 10 62 -12 65 -12 2 -24 12 -27 23 -3 11 -14 23 -24 25 -10 3 -38 32
-61 65 -44 59 -76 75 -88 44 -4 -8 -15 -15 -26 -15 -12 0 -19 -6 -17 -17 1
-10 -1 -27 -5 -38 -5 -11 -9 -25 -11 -32 -5 -15 -71 -46 -84 -39 -5 3 -11 1
-13 -5 -6 -19 -48 0 -48 22 0 27 36 74 82 105 25 18 38 34 38 50 0 12 5 24 11
26 6 2 12 17 13 33 2 17 10 56 20 87 16 57 16 58 -6 92 -13 19 -33 40 -45 45
-13 6 -23 15 -23 21 0 7 -5 8 -12 3 -7 -4 -17 -8 -23 -8 -5 -1 -18 -5 -28 -9
-11 -5 -26 -2 -42 8 -30 20 -24 39 9 30 38 -9 51 17 36 79 -6 28 -13 65 -14
81 -2 20 -15 38 -44 60 -23 17 -41 37 -42 44 0 6 -9 12 -20 12 -11 0 -31 18
-51 46 -23 34 -36 44 -50 41 -11 -3 -17 -1 -14 4 3 4 -7 14 -22 22 -39 19 -91
28 -98 17 -9 -14 -21 -12 -39 5 -8 8 -27 20 -42 25 -24 10 -30 8 -46 -12 l-17
-23 -16 38 c-18 44 -35 48 -35 8 0 -16 -7 -34 -16 -42 -8 -7 -13 -21 -11 -31
7 -24 -5 -23 -49 7 -20 14 -40 23 -43 20 -3 -4 -15 -32 -27 -63 -11 -31 -27
-58 -35 -60 -26 -5 -74 108 -70 166 1 29 -17 48 -20 20z m5438 -204 c-3 -3
-12 -4 -19 -1 -8 3 -5 6 6 6 11 1 17 -2 13 -5z m-73 -35 c10 15 49 14 44 -1
-3 -7 -19 -13 -36 -14 -24 -1 -32 3 -32 15 0 13 2 13 9 2 6 -9 11 -10 15 -2z
m21 -98 c3 -5 2 -12 -3 -15 -5 -3 -9 1 -9 9 0 17 3 19 12 6z m-5157 -48 c-4
-22 -48 -31 -48 -10 0 19 10 27 32 27 13 0 18 -6 16 -17z m322 -92 c0 -12 -28
-22 -34 -12 -3 5 -3 11 1 15 9 9 33 7 33 -3z m4890 -66 c0 -8 -4 -15 -10 -15
-5 0 -10 7 -10 15 0 8 5 15 10 15 6 0 10 -7 10 -15z m-5025 -15 c3 -5 -1 -10
-10 -10 -9 0 -13 5 -10 10 3 6 8 10 10 10 2 0 7 -4 10 -10z m5054 -42 c1 -5
-3 -8 -9 -8 -5 0 -10 12 -9 28 0 24 1 25 9 7 5 -11 9 -23 9 -27z m78 -190 c-3
-8 -6 -5 -6 6 -1 11 2 17 5 13 3 -3 4 -12 1 -19z m3 -40 c0 -18 -2 -20 -9 -8
-6 8 -7 18 -5 22 9 14 14 9 14 -14z m-3 -90 c-3 -7 -5 -2 -5 12 0 14 2 19 5
13 2 -7 2 -19 0 -25z m-5013 -5 c5 -11 -1 -23 -16 -35 -26 -20 -58 -24 -58 -7
0 5 -6 7 -12 4 -7 -4 2 7 20 24 36 35 57 39 66 14z m-84 -93 c9 -17 6 -26 -22
-55 -34 -37 -72 -46 -82 -20 -4 10 3 19 17 26 13 6 34 24 48 40 13 16 25 29
26 29 1 0 7 -9 13 -20z m880 -86 c0 -8 -4 -12 -10 -9 -5 3 -10 10 -10 16 0 5
5 9 10 9 6 0 10 -7 10 -16z m-470 -59 c0 -8 -4 -15 -10 -15 -5 0 -10 7 -10 15
0 8 5 15 10 15 6 0 10 -7 10 -15z m930 -30 c4 -40 0 -45 -20 -25 -23 23 -26
46 -7 53 16 6 25 -3 27 -28z m80 10 c0 -14 -4 -25 -10 -25 -5 0 -10 11 -10 25
0 14 5 25 10 25 6 0 10 -11 10 -25z m-580 -14 c0 -5 -9 -11 -20 -14 -20 -5
-26 3 -13 16 9 10 33 8 33 -2z m760 -65 c0 -18 -35 -22 -45 -6 -5 8 -11 8 -19
1 -7 -6 -16 -8 -19 -4 -13 12 -7 56 9 67 13 10 21 7 45 -15 16 -15 29 -34 29
-43z m1445 22 c10 -24 13 -24 91 -12 38 6 41 4 53 -24 21 -50 12 -65 -48 -81
-52 -14 -53 -15 -47 -45 9 -44 17 -48 72 -31 74 22 82 20 94 -26 13 -47 10
-52 -42 -69 -21 -6 -38 -16 -38 -21 0 -11 89 -100 138 -139 24 -19 34 -36 38
-67 6 -38 4 -43 -14 -43 -11 0 -49 15 -86 33 -36 19 -66 30 -66 27 0 -4 9 -36
20 -71 11 -35 19 -70 18 -78 -3 -14 -76 -41 -114 -41 -18 0 -25 12 -44 80
l-23 81 -29 -53 c-30 -55 -65 -98 -81 -98 -5 0 -11 8 -14 18 -4 17 -7 16 -32
-9 -29 -29 -160 -75 -185 -66 -7 3 -27 54 -44 114 -17 59 -53 185 -80 278 -43
145 -48 172 -36 181 24 19 214 69 222 58 7 -7 37 -104 57 -180 3 -8 24 -5 67
10 60 21 63 24 60 52 -5 41 -11 44 -67 29 -59 -16 -70 -9 -80 47 l-7 36 56 18
c55 17 56 18 50 50 -6 30 -4 32 38 47 63 23 91 21 103 -5z m-2045 -14 c0 -8
-5 -12 -10 -9 -6 4 -8 11 -5 16 9 14 15 11 15 -7z m238 -33 c3 -8 -1 -12 -9
-9 -7 2 -15 10 -17 17 -3 8 1 12 9 9 7 -2 15 -10 17 -17z m332 -17 c0 -8 -6
-14 -14 -14 -18 0 -29 27 -13 33 16 6 27 -1 27 -19z m-545 -44 c-3 -5 -11 -10
-16 -10 -6 0 -7 5 -4 10 3 6 11 10 16 10 6 0 7 -4 4 -10z m1384 -94 c19 -23
23 -107 8 -162 l-13 -52 30 9 c21 6 34 5 42 -4 11 -11 54 -144 54 -165 0 -6
-20 -17 -45 -25 l-45 -16 -15 29 c-8 16 -15 37 -16 47 0 11 -3 13 -6 5 -2 -7
10 -61 27 -120 18 -59 33 -127 34 -150 1 -52 -18 -72 -95 -97 -59 -20 -74 -12
-85 42 -6 28 -3 34 20 44 33 16 33 29 -5 151 -30 99 -31 100 -57 92 -15 -4
-36 -7 -48 -7 -13 0 -25 -9 -33 -28 -8 -18 -25 -32 -47 -39 -19 -6 -34 -18
-34 -26 0 -18 15 -18 76 1 27 8 51 11 55 7 13 -15 29 -76 22 -83 -5 -3 -32
-14 -60 -24 -31 -10 -53 -23 -53 -31 0 -20 24 -17 72 7 47 24 63 16 74 -38 6
-30 4 -33 -44 -57 -106 -54 -288 -120 -303 -110 -9 5 -33 84 -27 89 2 1 28 11
58 22 43 15 56 24 58 42 4 23 2 24 -35 16 -85 -17 -97 -14 -107 27 -5 21 -7
40 -4 44 4 3 28 11 55 18 32 8 49 18 52 31 3 15 -1 17 -30 11 -19 -4 -48 -10
-65 -13 l-31 -5 -47 166 c-26 91 -44 170 -41 176 3 5 38 19 78 31 40 12 108
32 151 46 44 13 89 23 100 22 12 -1 32 3 46 9 14 6 72 25 130 42 58 18 110 33
115 35 18 6 22 5 34 -9z m-1509 -47 c0 -5 -7 -9 -15 -9 -15 0 -20 12 -9 23 8
8 24 -1 24 -14z m66 -25 c-3 -9 -6 -23 -6 -32 0 -12 -3 -13 -11 -5 -13 13 -3
53 13 53 5 0 7 -7 4 -16z m632 -197 c5 -18 7 -47 4 -65 -4 -30 -2 -32 25 -32
29 0 30 -2 61 -108 18 -59 32 -120 32 -135 0 -42 -37 -71 -120 -96 -133 -39
-125 -35 -123 -70 1 -38 20 -63 42 -57 161 47 161 47 161 76 0 22 6 30 31 39
55 19 67 15 79 -29 12 -46 6 -82 -20 -105 -21 -19 -270 -94 -313 -95 -20 0
-38 10 -58 31 -25 27 -29 28 -29 12 0 -15 -20 -29 -77 -56 -135 -63 -173 -59
-173 18 0 29 4 33 43 44 23 7 73 26 110 42 38 16 73 26 78 23 13 -8 10 16 -6
51 -8 19 -14 24 -14 13 -1 -20 -48 -46 -136 -77 -84 -30 -90 -28 -105 24 -11
40 -10 49 9 90 31 66 29 76 -15 63 -26 -7 -40 -6 -48 2 -13 13 -13 87 -1 217
l8 92 55 16 c71 21 78 14 63 -66 -6 -34 -9 -64 -8 -66 6 -5 77 21 77 29 0 5
11 25 24 46 13 20 27 53 30 73 8 46 38 61 131 64 39 1 81 7 95 13 14 6 37 11
52 11 22 1 29 -5 36 -32z m-1235 -11 c7 -18 -1 -26 -25 -26 -21 0 -23 11 -6
28 16 16 25 15 31 -2z m515 -203 c6 -20 9 -40 6 -45 -3 -4 -31 -15 -62 -24
-31 -9 -94 -27 -139 -41 -80 -24 -83 -26 -76 -52 3 -14 7 -28 9 -30 2 -2 62
13 134 34 72 21 133 35 136 32 11 -11 64 -200 64 -229 0 -50 -40 -82 -144
-113 -98 -28 -107 -36 -86 -76 14 -26 32 -24 169 16 65 19 123 35 129 35 13 0
39 -77 29 -86 -10 -10 -300 -93 -349 -100 -44 -6 -50 -4 -75 23 -20 22 -36 60
-57 137 -16 59 -33 109 -37 111 -4 3 -14 -6 -23 -20 -15 -23 -15 -31 14 -132
35 -125 36 -140 12 -169 -20 -25 -43 -38 -95 -52 -38 -11 -39 -11 -54 26 -15
36 -15 37 10 56 l25 18 -20 72 c-23 82 -31 94 -52 76 -24 -19 -41 -6 -55 41
-12 40 -12 44 8 60 12 10 25 19 30 21 5 2 2 31 -7 66 -16 60 -18 62 -50 62
-26 0 -35 5 -42 26 -16 40 -12 54 16 64 22 9 25 14 19 37 -3 15 -7 32 -8 37
-3 13 39 33 85 41 35 7 37 6 45 -26 7 -24 16 -35 37 -40 27 -7 27 -7 24 29
l-3 36 190 58 c105 31 199 57 211 57 15 1 24 -8 32 -36z m1888 -448 c7 -19 14
-49 14 -67 0 -19 7 -44 16 -57 11 -16 13 -26 6 -33 -15 -15 -45 -1 -38 18 3 8
-4 34 -17 57 -30 57 -35 79 -25 100 13 26 28 21 44 -18z m-135 -5 c5 0 9 -6 9
-14 0 -8 9 -18 20 -21 20 -6 27 -42 12 -61 -5 -5 -6 -49 -3 -97 3 -49 2 -91
-3 -94 -12 -8 -38 28 -32 44 3 7 1 13 -4 13 -6 0 -10 11 -10 25 0 16 -6 25
-15 25 -16 0 -20 16 -16 63 1 15 -3 27 -9 27 -7 0 -9 13 -5 38 10 57 14 65 31
58 9 -3 20 -6 25 -6z m-164 -92 c19 -35 22 -54 18 -103 -5 -54 -14 -187 -15
-208 0 -5 -4 -6 -9 -3 -4 3 -11 52 -15 108 -3 57 -10 132 -15 168 -13 93 0
107 36 38z m403 9 c0 -5 -4 -5 -10 -2 -5 3 -10 14 -10 23 0 15 2 15 10 2 5 -8
10 -19 10 -23z m-502 -197 c-1 -45 -14 -112 -25 -129 -1 -2 -10 4 -19 13 -13
14 -14 24 -6 59 5 23 8 58 5 78 -3 20 1 47 7 60 l13 22 13 -24 c8 -13 13 -48
12 -79z m-334 68 c-3 -13 -13 -35 -20 -50 -8 -15 -14 -33 -14 -40 0 -7 -9 -24
-19 -38 -13 -16 -17 -30 -11 -40 6 -11 3 -20 -10 -27 -16 -11 -17 -8 -15 45 4
69 10 86 48 135 32 42 52 49 41 15z m691 12 c3 -5 1 -10 -4 -10 -6 0 -11 5
-11 10 0 6 2 10 4 10 3 0 8 -4 11 -10z m-466 -182 l-12 -43 -8 35 c-8 37 -3
72 15 105 10 18 11 16 14 -17 2 -20 -2 -56 -9 -80z m63 -50 c5 -74 6 -98 2
-98 -13 0 -34 66 -29 91 8 34 24 39 27 7z m8 -143 c0 -14 -4 -25 -10 -25 -11
0 -14 33 -3 43 11 11 13 8 13 -18z"/>
<path d="M3799 1706 c-3 -4 7 -53 23 -109 16 -56 40 -140 53 -185 13 -46 26
-87 29 -90 17 -16 10 18 -31 158 -67 231 -68 232 -74 226z"/>
<path d="M4022 1549 c-13 -5 -28 -7 -33 -3 -5 3 -9 -3 -9 -12 0 -26 43 -154
52 -154 11 0 38 99 38 142 0 40 -7 44 -48 27z"/>
<path d="M3345 1589 c-75 -23 -91 -24 -105 -1 -13 19 -12 18 18 -90 17 -59 30
-69 62 -48 11 7 12 13 5 23 -55 77 -55 80 5 98 34 10 43 10 58 -4 26 -24 32
-21 32 13 0 34 4 34 -75 9z"/>
<path d="M3120 1521 c0 -6 5 -13 10 -16 6 -3 10 1 10 9 0 9 -4 16 -10 16 -5 0
-10 -4 -10 -9z"/>
<path d="M3000 1476 c0 -9 5 -16 10 -16 6 0 10 4 10 9 0 6 -4 13 -10 16 -5 3
-10 -1 -10 -9z"/>
<path d="M3160 1391 c0 -6 5 -13 10 -16 6 -3 10 1 10 9 0 9 -4 16 -10 16 -5 0
-10 -4 -10 -9z"/>
<path d="M3036 1345 c4 -8 8 -15 10 -15 2 0 4 7 4 15 0 8 -4 15 -10 15 -5 0
-7 -7 -4 -15z"/>
<path d="M2528 1347 c-27 -12 -77 -67 -61 -67 23 0 108 32 115 43 23 35 -3 47
-54 24z"/>
<path d="M2667 1234 c-5 -5 20 -104 30 -114 2 -2 8 2 12 9 5 7 2 34 -7 62 -15
47 -22 56 -35 43z"/>
<path d="M2261 1194 c0 -11 3 -14 6 -6 3 7 2 16 -1 19 -3 4 -6 -2 -5 -13z"/>
<path d="M2530 1176 c0 -30 27 -96 40 -96 14 0 12 19 -6 73 -17 50 -34 62 -34
23z"/>
<path d="M2386 1155 c-8 -46 -35 -124 -49 -142 -13 -18 11 -16 43 2 35 20 49
18 60 -7 16 -37 2 28 -24 114 l-22 73 -8 -40z"/>
<path d="M1584 1045 c5 -14 1 -24 -15 -36 -21 -15 -21 -18 -7 -59 12 -36 19
-43 41 -44 15 -1 27 0 27 1 0 13 -41 147 -46 152 -4 3 -4 -3 0 -14z"/>
<path d="M1835 973 c-27 -8 -54 -18 -58 -22 -9 -9 11 -98 22 -106 10 -5 119
29 131 41 13 13 -17 104 -33 103 -7 0 -34 -7 -62 -16z"/>
<path d="M2720 3091 c0 -5 9 -7 20 -4 11 3 20 7 20 9 0 2 -9 4 -20 4 -11 0
-20 -4 -20 -9z"/>
<path d="M4436 2962 c-2 -4 -1 -14 4 -22 7 -11 11 -11 24 -1 9 7 13 17 10 22
-7 11 -31 12 -38 1z"/>
<path d="M3277 2919 c4 -13 8 -18 11 -10 2 7 -1 18 -6 23 -8 8 -9 4 -5 -13z"/>
<path d="M5300 2849 c-66 -13 -196 -80 -264 -135 -33 -27 -80 -79 -106 -116
-257 -379 -59 -881 387 -982 261 -59 537 67 679 310 141 240 90 565 -119 767
-65 62 -202 137 -287 156 -54 13 -227 12 -290 0z m433 -213 c7 -27 6 -40 -2
-46 -7 -4 -66 -22 -132 -41 -65 -19 -119 -37 -119 -40 0 -3 62 -9 138 -13 75
-3 150 -9 165 -12 26 -6 28 -9 25 -53 -3 -52 9 -50 -133 -27 -133 21 -225 29
-225 20 0 -5 4 -23 9 -41 11 -39 -3 -54 -51 -56 -30 -2 -33 1 -48 53 -10 30
-21 55 -26 57 -5 1 -22 -18 -37 -43 -16 -24 -51 -69 -79 -99 -27 -30 -46 -55
-42 -55 5 0 114 30 242 66 128 36 240 64 250 62 10 -2 21 -18 26 -41 10 -38 9
-38 -62 -110 -40 -40 -72 -75 -72 -79 0 -4 24 0 53 9 28 9 98 28 155 44 l103
28 10 -26 c24 -63 26 -61 -139 -108 -84 -24 -156 -47 -162 -50 -5 -3 -3 -26 6
-56 23 -78 21 -109 -9 -135 -24 -20 -116 -54 -149 -54 -15 0 -62 77 -50 83 4
2 30 10 59 16 29 7 54 20 58 28 9 25 -14 83 -33 83 -9 0 -80 -18 -157 -40
-175 -50 -180 -50 -195 -4 -10 28 -10 38 0 44 10 6 52 19 273 82 64 18 68 21
63 43 -5 19 3 33 41 70 47 45 47 45 18 39 -16 -3 -48 -12 -70 -19 -22 -7 -69
-21 -105 -30 -36 -10 -77 -22 -92 -27 -37 -14 -55 -5 -63 31 -9 43 -21 46 -56
17 -17 -14 -36 -26 -43 -26 -13 0 -73 57 -65 63 2 2 29 21 59 42 55 39 170
144 170 156 0 3 -30 -2 -67 -13 -164 -48 -170 -47 -179 13 l-6 34 124 33 c199
55 191 50 184 95 -6 34 -4 38 20 47 46 18 62 12 74 -25 9 -26 16 -34 28 -31
10 3 73 21 142 41 68 20 126 38 129 41 14 14 36 -6 44 -40z"/>
<path d="M3995 2800 c-3 -5 -1 -10 4 -10 6 0 11 5 11 10 0 6 -2 10 -4 10 -3 0
-8 -4 -11 -10z"/>
<path d="M4290 2795 c0 -8 12 -21 28 -27 15 -7 35 -21 44 -32 26 -31 22 -5 -5
35 -24 37 -67 52 -67 24z"/>
<path d="M3947 2783 c-4 -3 -7 -15 -7 -26 0 -16 3 -17 15 -7 8 7 15 19 15 26
0 15 -12 19 -23 7z"/>
<path d="M4570 2775 c-7 -8 -30 -20 -51 -27 -42 -12 -46 -17 -28 -35 9 -9 15
-8 25 2 8 8 31 12 61 9 41 -2 52 1 75 23 15 14 25 30 22 35 -9 14 -91 9 -104
-7z"/>
<path d="M3593 2725 c0 -14 3 -28 8 -31 5 -3 9 6 9 20 0 14 -4 27 -9 30 -5 3
-8 -6 -8 -19z"/>
<path d="M3195 2680 c-3 -5 -1 -10 4 -10 6 0 11 5 11 10 0 6 -2 10 -4 10 -3 0
-8 -4 -11 -10z"/>
<path d="M3307 2603 c-4 -3 -7 -16 -7 -27 1 -21 1 -21 15 -2 8 11 15 23 15 28
0 10 -14 11 -23 1z"/>
<path d="M3756 2601 c-4 -7 -5 -15 -2 -18 9 -9 19 4 14 18 -4 11 -6 11 -12 0z"/>
<path d="M3847 2540 c-3 -11 -2 -22 3 -25 4 -3 10 6 12 20 6 30 -7 34 -15 5z"/>
<path d="M4165 2520 c4 -6 11 -8 16 -5 14 9 11 15 -7 15 -8 0 -12 -5 -9 -10z"/>
<path d="M4086 2501 c-4 -7 -5 -15 -2 -18 9 -9 19 4 14 18 -4 11 -6 11 -12 0z"/>
<path d="M3320 2285 c0 -8 5 -15 10 -15 6 0 10 7 10 15 0 8 -4 15 -10 15 -5 0
-10 -7 -10 -15z"/>
<path d="M470 2231 c0 -6 4 -13 10 -16 6 -3 7 1 4 9 -7 18 -14 21 -14 7z"/>
<path d="M2555 2170 c-20 -22 -14 -50 11 -46 10 2 18 13 20 29 3 35 -9 41 -31
17z"/>
<path d="M2667 2143 c-12 -12 -7 -22 8 -17 8 4 15 10 15 15 0 11 -14 12 -23 2z"/>
<path d="M2912 1990 c-8 -13 -8 -20 -2 -20 6 0 13 7 17 15 9 24 -1 27 -15 5z"/>
<path d="M2855 1970 c-7 -12 2 -30 16 -30 5 0 9 9 9 20 0 21 -15 27 -25 10z"/>
<path d="M3240 511 c0 -5 5 -13 10 -16 6 -3 10 -2 10 4 0 5 -4 13 -10 16 -5 3
-10 2 -10 -4z"/>
<path d="M2830 435 c-12 -19 -30 -41 -41 -48 -21 -15 -38 -77 -21 -77 5 0 12
7 16 15 11 29 26 15 19 -17 -5 -32 -5 -32 13 -15 10 9 19 27 19 40 2 28 34 79
46 71 5 -3 9 -1 9 3 0 15 -24 63 -32 63 -3 0 -16 -16 -28 -35z"/>
<path d="M2914 415 c-18 -28 -14 -41 11 -32 8 4 15 18 15 32 0 32 -5 32 -26 0z"/>
<path d="M2438 374 c-38 -25 -46 -38 -28 -49 5 -3 24 10 42 28 18 19 40 37 48
40 11 4 9 5 -5 6 -11 0 -37 -11 -57 -25z"/>
<path d="M2907 324 c-4 -4 -7 -14 -7 -23 0 -11 3 -12 11 -4 6 6 10 16 7 23 -2
6 -7 8 -11 4z"/>
<path d="M2880 271 c0 -12 5 -21 10 -21 6 0 10 6 10 14 0 8 -4 18 -10 21 -5 3
-10 -3 -10 -14z"/>
<path d="M3180 244 c0 -8 5 -12 10 -9 6 4 8 11 5 16 -9 14 -15 11 -15 -7z"/>
<path d="M2823 232 c-18 -15 -63 -83 -63 -97 0 -13 24 -3 41 18 25 29 62 97
52 97 -5 0 -18 -8 -30 -18z"/>
<path d="M3936 194 c-39 -35 -44 -54 -8 -35 19 10 57 60 50 66 -2 2 -21 -12
-42 -31z"/>
<path d="M3170 184 c0 -8 5 -12 10 -9 6 3 10 10 10 16 0 5 -4 9 -10 9 -5 0
-10 -7 -10 -16z"/>
<path d="M2670 179 c0 -5 5 -7 10 -4 6 3 10 8 10 11 0 2 -4 4 -10 4 -5 0 -10
-5 -10 -11z"/>
<path d="M3163 110 c2 -34 4 -35 21 -17 9 9 8 16 -6 29 -16 16 -17 16 -15 -12z"/>
</g>
</svg>
